<svg viewBox="0 0 486 531" xmlns="http://www.w3.org/2000/svg" fill-rule="evenodd" clip-rule="evenodd" stroke-linejoin="round" stroke-miterlimit="2"><path d="M308.604 121.467c.471-.43 1.013-.858 1.653-.553 1.252.596 2.675.199 3.914.764.504.23 1.017.363 1.287-.254.214-.49.156-1.026-.372-1.348-1.437-.878-.616-1.403.285-1.93.44-.257.933-.464 1.298-.805.959-.897.914-2.122.553-3.172-.44-1.28-1.386-.23-2.076-.134-2.247.311-4.482.7-6.67-.28-.3-.134-.557-.335-.423-.69.048-.126.316-.223.492-.238.513-.046 1.036-.107 1.542-.05 4.126.467 6.788-2.276 9.72-4.418.46-.338.626-.81.19-1.31-.583-.673-.865-1.416-.49-2.275.383-.881.823-1.64 1.566-.228.196.37.53.746.922.484.454-.303.06-.688-.13-1.046-1.213-2.33-1.143-2.266 1.071-4.262 1.031-.928 1.834-2.136 2.623-3.296.537-.788.769-1.498-.388-2.287-1.671-1.141-1.383-2.912.43-3.724.558-.25 1.195-.51 1.778-.478 2.052.114 2.868-1.132 2.835-2.818-.047-2.495 1.558-3.66 3.302-4.793 1.12-.727 2.347-1.272 2.576-2.848.11-.745.756-1.2 1.499-1.414.394-.114.802-.2 1.19-.333 4.867-1.675 4.99-1.675 5.089-7.021.09-4.849.378-9.679.756-14.508.325-4.175 1.184-8.139 4.665-10.996.295-.243.378-.727.606-1.068 1.744-2.594 3.863-4.754 6.674-6.254 2.981-1.592 5.385-4.074 8.62-5.354 3.843-1.52 7.749-1.878 11.744-1.276 1.008.152 2.01.356 3.027.345 1.376-.015 2.652.306 3.866.914 1.65.828 3.259 1.758 5.205 1.706.292-.008.656.085.869.268 2.234 1.925 4.976 3.292 6.7 5.76.836 1.192 1.658 2.374 2.762 3.298 2.288 1.918 3.8 4.52 5.762 6.713 1.877 2.096 2.669 5.326 1.475 8.436-.56 1.456-.868 2.948-.779 4.523.037.613.11 1.322-.142 1.835-1.24 2.514-1.021 5.203-1.108 7.863-.033.938-.387 1.731-.865 2.573-1.39 2.444-.706 4.222 1.95 4.782 2.659.561 4.96 1.762 7.37 2.938 4.757 2.324 9.69 4.36 14.959 5.255 1.465.249 2.739.829 4.075 1.33 5.46 2.045 10.94 4.034 16.368 6.169 2.264.891 4.443 2.033 6.601 3.176 2.069 1.097 2.948 3.304 3.57 5.247 1.334 4.144 3.674 7.776 5.335 11.74 1.665 3.96 3.3 8.037 5.975 11.404 2.052 2.587 3.673 5.319 4.167 8.45.54 3.4 1.46 6.806 1.091 10.327-.106 1.014.08 2.02.305 3.046.965 4.417 1.78 8.863 1.538 13.428-.056 1.119.057 2.165.627 3.262.643 1.238 1.114 2.738 1.097 4.117-.056 4.477 1.45 8.66 2.195 12.979.193 1.114.451 2.193.408 3.33-.016.409-.103.907.086 1.217 2.06 3.382 1.767 7.325 2.69 10.973 1.421 5.628 1.667 11.327 1.594 17.103-.053 4.054-.716 7.979-1.611 11.875-1.403 6.103-2.703 12.176-2.868 18.502-.123 4.682-.703 9.392-2.063 13.945-.633 2.111-.503 4.325-.175 6.434 1.008 6.444.988 12.847-.222 19.25-.405 2.125-1.42 3.716-3.465 4.77-3.657 1.88-7.151 4.01-9.996 7.106-2.066 2.246-5.103 1.88-7.788 2.342-.753.13-1.25-.626-1.32-1.441-.053-.646.077-1.453.604-1.667 2.831-1.145 1.94-3.671 2.138-5.708.206-2.123-1.376-3.138-3.328-2.35-.57.23-1.118.565-1.711.684-1.472.295-1.747 1.258-1.558 2.53.825 5.524.865 11.04-.03 16.566-.18 1.107-.083 2.264-.057 3.397.1 4.636-.789 9.192-1.087 13.784-.328 5.04-1.134 9.976-2.079 14.896-.961 5.013-1.74 10.102-4.041 14.76-.183.369-.385.77-.402 1.164-.179 4.632-2.045 8.899-2.88 13.388-.054.295-.084.663.042.912 1.625 3.166.906 6.306-.003 9.469-.136.464-.093 1.06.083 1.515.62 1.604.517 3.259.385 4.89-.136 1.621.722 2.98.921 4.492.2 1.532-1.657 2.199-1.561 3.873.228 3.972-.312 8.037.331 11.919 1.433 8.63 1.217 17.137-.02 25.758-1.448 10.118-4.658 19.753-7.317 29.547-1.021 3.756-1.747 7.592-2.699 11.372-1.521 6.054-3.716 11.919-4.727 18.132-.584 3.58.106 6.654 1.826 9.684 2.175 3.83 5.587 6.558 8.534 9.701.425.451.935.822 1.333 1.293 3.352 3.989 7.765 5.892 12.808 6.654 3.037.458 3.7 1.562 3.11 4.669-.077.404-.09.818-.15 1.226-.202 1.343-.825 1.83-2.32 1.718-3.077-.232-6.22-.524-9.26-.156-6.598.802-13.153-.372-19.73-.053-1.224.06-2.554.106-3.677-.292-2.789-.981-5.65-.806-8.498-.932-.723-.033-1.449.024-2.165-.026-1.197-.086-2.758.437-3.405-.842-.766-1.509-1.581-3.193-.895-5 1.276-3.349 2.138-6.856 3.793-10.046.593-1.147.769-2.4.859-3.52.235-2.968.722-5.909.815-8.903.279-8.975-.696-17.913-.68-26.871.01-4.85-.487-9.665-.65-14.499-.152-4.515-1.61-8.865-2.539-13.281-.627-2.994-2.132-5.846-1.668-9.022.726-5.003.455-10.089 1.313-15.078.123-.703.348-1.36.113-2.112-.385-1.217.036-2.258 1.058-2.984 1.114-.793.915-1.615.749-2.888-.371-2.838-1.17-5.772-1.025-8.49.276-5.133-1.478-9.854-1.906-14.81-.308-3.575-1.568-7.179-1.27-10.673.498-5.835-.4-11.734.912-17.51a2.76 2.76 0 00.03-.904c-.73-6.525-.968-13.106-2.573-19.528-.776-3.107-2.016-6.028-3.143-8.982-1.538-4.048-2.616-8.195-3.557-12.397-.107-.485-.004-1.152-.637-1.237-.72-.096-1.064.481-1.23 1.107-.391 1.482-.988 2.956-1.084 4.46-.163 2.527-1.12 4.762-1.913 7.096-1.18 3.484-1.817 7.151-3.471 10.483-.488.985-.342 2.023-.332 3.037.043 4.32.056 8.627-1.14 12.841a3.825 3.825 0 00.116 2.43c.454 1.194.4 2.42.235 3.654-.013.1-.11.222-.08.292 1.854 4.09-.464 7.854-.928 11.76-.076.63.03 1.206.212 1.813.173.57.146 1.21.163 1.82.046 1.502-2.026 2.318-1.472 3.853.533 1.482.192 2.738-.047 4.174-.305 1.83.136 3.83-.53 5.586-.76 2-.372 4.257-1.578 6.114-.22.338-.544.806-.458 1.107.68 2.351-.902 3.863-1.98 5.547-2.095 3.272-2.877 6.81-3 10.706-.142 4.545.803 8.988.677 13.537-.116 4.25-.663 8.381-1.482 12.515-1.055 5.328-2.073 10.64-2.427 16.094-.312 4.794-1.094 9.571-2.116 14.282-1.495 6.887-1.714 13.856-1.478 20.858.056 1.648.626 3.21 1.34 4.698 1.12 2.34 1.763 4.608 1.24 7.377-.525 2.788-.087 5.752-.14 8.64-.02 1.12.587 1.64 1.462 2.112 1.005.543 2.026 1.2 2.145 2.463.196 2.03 1.035 4.042.391 6.107-.344 1.107-1.432 1.436-2.403 1.714a3.377 3.377 0 01-1.834-.02c-5.198-1.634-10.394-.73-15.582-.033-2.911.391-5.71-.534-8.584-.56-.962-.01-1.644-.822-2.291-1.479-.826-.832-.282-1.69.01-2.57.192-.573.156-1.22.249-1.83.305-2.019 1.084-3.62 3.136-4.525 1.625-.716 2.417-2.463 3.703-3.63.653-.59.504-1.36.299-2.016-.83-2.653-.421-5.252-.08-7.934.431-3.362.358-6.77-.09-10.165-1.577-11.942-4.512-23.593-7.426-35.247-2.152-8.61-3.349-17.366-3.886-26.188-.311-5.123-.003-10.298 1.386-15.321.08-.288.345-.623.265-.849-1.266-3.663.82-6.776 1.575-10.115.445-1.953 1.021-3.883.514-5.998-.394-1.66-.47-3.382.71-5.023.855-1.19.477-2.814.122-4.197-.39-1.525-.295-2.845.826-4.008.142-.146.401-.335.381-.468-.567-3.299 1.986-6.183 1.177-9.558-.467-1.946-1.044-3.989.19-5.978.467-.753-.117-1.591-.382-2.364-.796-2.297-.899-4.605-.342-6.992.71-3.054.415-6.17.143-9.237-.375-4.197-.753-8.405-1.74-12.526-.309-1.296-.399-2.626-.468-3.972-.226-4.207-.62-8.404-.952-12.606-.04-.508-.212-1.031-.139-1.52.428-2.881.086-5.72-.315-8.571-.981-7.021-1.326-14.082-1.25-21.17.033-3.21-1.505-4.577-4.615-3.835-1.601.383-3.256.32-4.834.88-1.05.374-2.218.23-3.329-.192-3.232-1.23-5.51-3.5-7.121-6.488-.872-1.623.126-2.944 1.193-3.801 2.398-1.932 3.027-4.812 4.178-7.35.961-2.118.312-4.429-.912-6.491-1.996-3.37-3.663-6.9-4.927-10.616-.301-.879-.663-1.72-.643-2.68.017-1.035.372-1.822 1.4-2.156 2.877-.939 5.092-3.075 7.817-4.294 1.177-.526 1.916-1.518 2.457-2.675a61.963 61.963 0 005.073-16.447c.656-4.06 1.637-8.066 1.989-12.181a7.555 7.555 0 01.746-2.664c1.94-3.924 2.473-8.199 3.468-12.387 1.104-4.644-.54-8.468-2.242-12.427-.328-.764-.822-1.439-1.803-1.466-1.184-.032-1.568.843-1.887 1.718-.676 1.866-1.618 3.557-3.1 4.902-.746.678-1.137 1.5-.921 2.475.56 2.561-.733 4.68-1.93 6.599-2.861 4.577-5.782 9.091-7.572 14.231-.2.57-.554 1.11-.935 1.584-3.88 4.838-6.704 10.16-8.576 16.135-1.006 3.214-2.775 6.203-5.788 8.487-2.375 1.8-3.884 4.74-5.973 7.025-2.218 2.425-4.238 5.032-6.436 7.478-3.838 4.271-4.222 10.771-.918 15.541 2.456 3.545 4.814 7.17 6.202 11.293.752 2.233 1.399 4.517 1.87 6.824.815 3.99.596 7.763-2.638 10.847-1.62 1.546-2.078 3.384-.85 5.53.484.846.9 1.84.812 2.937-.135 1.694-1.184 2.417-2.736 1.75-1.07-.46-1.783-1.294-2.444-2.268-1.205-1.775-2.43-1.737-3.345.123-.646 1.313-1.48 2.04-2.923 2.427-2.193.588-3.47 2.505-4.957 4.052-4.959 5.16-10.514 9.469-17.058 12.473-2.706 1.243-5.294 2.745-7.943 4.114-1.48.766-2.28 1.93-2.559 3.604-.506 3.043-1.366 5.99-2.432 8.908-1.165 3.187-.353 6.469.448 9.635.307 1.217.483 2.311.35 3.597-.275 2.646.504 5.255.799 7.884.173 1.545.553 3.104.092 4.589-.555 1.787-.366 3.438.253 5.116 1.052 2.858 1.593 5.722.631 8.756-.264.835-.211 1.903.058 2.748.905 2.842.378 6.001 1.99 8.667-.931 2.957.548 4.602 2.9 6.153.94.62 1.02 2.42 1.742 3.518 1.357 2.066 2.892 4.012 4.359 6.004.428.58.99 1.094 1.292 1.731 1.276 2.692 3.257 4.48 6.215 5.073 1.89.38 2.076 1.962 2.101 3.345.053 2.894.592 5.739.72 8.61.127 2.868.873 5.673.44 8.604-1.788 12.12-6.02 23.264-13.032 33.326-1.828 2.623-3.65 5.239-5.226 8.027-1.717 3.04-1.56 5.769.653 8.567 2.95 3.727 5.415 7.772 6.889 12.347.785 2.437.328 4.091-1.534 5.474-1.746 1.296-3.38 1.346-5.114.03-.814-.62-1.5-1.41-2.234-2.129-4.332-4.264-8.665-8.524-12.624-13.142-.937-1.094-1.79-2.265-2.602-3.452-1.74-2.55-1.93-5.169-.136-7.784.715-1.045 1.244-2.142 1.233-3.432-.01-1.064.386-2.009.778-2.967.313-.76.794-1.505.887-2.294.553-4.705 2.241-9.194 2.592-13.935.164-2.232 1.466-4.065 2.49-5.935.746-1.366 1.15-2.851 1.883-4.177 1.076-1.953.31-3.548-1.028-4.698-2.641-2.271-4.705-5.146-7.821-6.95-2-1.157-4.075-1.936-6.22-2.655-1.091-.365-1.703.05-2.18 1.064-1.767 3.747-2.503 7.56-1.257 11.644.596 1.953.316 3.909-.934 5.557-.841 1.107-.969 2.138-.597 3.448.43 1.511.212 3.047-.264 4.565a39.496 39.496 0 00-1.122 4.486c-.233 1.243-.409 2.397-1.688 3.1-.908.497-.868 1.551-1.055 2.46-1.2 5.835-.883 11.723-.312 17.562.351 3.584-.034 7.227.864 10.768.581 2.291 1.11 4.602 1.603 6.916.775 3.64 2.944 6.28 5.881 8.402 1.084.782 2.201 1.548 3.162 2.47 2.72 2.605 1.527 7.526-2.103 8.643-1.216.375-2.418.567-2.668 2.122-.04.252-.37.633-.59.653-2.277.176-2.55 2.417-3.813 3.624-.762.73-1.23 1.531-1.465 2.619-.488 2.251-1.622 3.08-3.882 3.193-2.708.139-5.333-.484-7.945-1.028-2.09-.438-3.54-2.603-2.757-4.781 1.018-2.825.432-5.354-.007-8.116-.495-3.117-.57-6.412 1.655-9.157.4-.494.819-1.068.507-1.678-1.396-2.732-1.25-5.815-2.07-8.686-1.587-5.55-3.877-10.865-5.3-16.468a72.948 72.948 0 01-1.543-7.881c-.243-1.74-.253-3.544.3-5.215.797-2.417.712-4.87.743-7.34.024-1.89-.03-3.694-1.393-5.22-.64-.712-.729-1.697-.846-2.615-.629-4.917-2.303-9.595-3.383-14.406-.496-2.208-1.288-4.548-2.372-6.604-2.162-4.101-2.399-8.69-3.68-13.006-.407-1.366-.493-2.809-.147-4.27.586-2.477-.63-4.841-.6-7.305.022-1.697.035-3.348 1.849-4.164 1.023-.46.605-1.233.46-1.82-.66-2.695-1.145-5.484-2.228-8.007-1.067-2.486-1.264-4.953-1.186-7.536.049-1.648.204-3.285-1.148-4.635-.572-.573-.852-1.478-.702-2.31.48-2.66-.077-5.348.322-8.004.276-1.847.533-3.783-.08-5.527-1.552-4.42-1.384-8.919-.876-13.414.43-3.8-.414-7.35-1.507-10.888-.576-1.863-1.366-3.66-1.983-5.514-.46-1.386-1.35-2.049-2.781-1.873-2.612.322-5.13-.215-7.65-.756-1.52-.328-3.057-.53-4.604-.48-3.375.112-6.548-.77-9.602-2.033-4.605-1.903-7.918-5.056-9.277-10.04-.566-2.078-1.334-4.107-2.1-6.124-.593-1.56-.88-3.155-1.054-4.804-.56-5.32-.942-10.635-.391-15.984.228-2.214-.037-4.273-1.917-5.9-1.148-.995-1.356-2.488-1.274-3.992.087-1.588.515-3.134 1.445-4.348 1.744-2.28 1.761-4.646 1.077-7.254-.786-2.992-1.145-6.06-1.367-9.15-.172-2.4-.163-4.753.847-6.972.638-1.4.151-2.626-.38-3.85-.947-2.183-2.27-4.16-3.564-6.145-6.195-9.498-12.367-19.013-17.504-29.142-2.607-5.14-5.065-10.355-7.591-15.536a46.033 46.033 0 01-.197-.068l.276-.007c-.753 2.391.133 4.683.447 7.004.595 4.384 1.242 8.76 2.324 13.061.837 3.329 2.1 6.458 4 9.321 2.511 3.784 3.66 8.033 4.2 12.474.286 2.35.464 4.714.706 7.07.116 1.135.342 2.239 1.073 3.175 1.093 1.4 1.401 2.967.861 4.66-1.36 4.263-1.232 8.155 1.175 12.275 2.067 3.54 2.157 7.895 2.372 12.023.086 1.645.048 3.299.017 4.948-.02 1.124.037 2.073 1.578 1.949 1.29-.104 1.604.687 1.372 1.78-.384 1.812-.685 3.656-1.249 5.413-1.259 3.918-1.277 7.912-.892 11.924.112 1.162.11 2.29-.199 3.358-.76 2.625-.546 5.294-.624 7.96-.186 6.366-.482 12.721-1.15 19.067-.32 3.037.038 6.16.22 9.234.138 2.357.503 4.698.718 7.048.045.498-.124 1.018-.202 1.525-.26 1.691-.152 3.263 1.114 4.619.717.769 1.043 1.694.73 2.844-.551 2.023-.382 4.148-.061 6.144.83 5.179.597 10.45 1.662 15.612 1.826 8.846 1.527 17.83 1.29 26.782-.167 6.277-.778 12.54-1.036 18.812-.308 7.503-1.239 14.96-1.486 22.466-.129 3.905-.694 7.794-.514 11.72.128 2.788.558 5.52 1.212 8.225.323 1.336 1.005 2.474 1.944 3.462 3.735 3.935 8.346 6.647 12.994 9.306.808.46 1.666.68 2.657.55 1.01-.136 2.106-.185 3.039.309 1.546.815 2.975.789 4.297-.358 1.024-.892 2.19-.19 3.264-.295 1.666-.163 3.415.215 4.956 1.02 1.655.866 2.083 2.153.825 3.475-1.782 1.874-2.53 4.87-5.603 5.405-.092.016-.186.099-.25.175-3.547 4.237-8.364 4.486-13.293 4.078-4.793-.394-9.402.342-14 1.582a43.78 43.78 0 01-13.451 1.495c-1.465-.07-2.877-.302-4.23-.796-2.048-.749-2.951-2.069-2.82-4.273.084-1.433.309-2.885.685-4.267 1.907-7.02 1.187-14.14.731-21.212-.497-7.725-2.536-15.225-4.089-22.778-2.053-9.992-3.133-20.16-5.475-30.074-2.448-10.354-2.647-20.801-2.538-31.318.046-4.416.419-8.829-.663-13.225-.815-3.309-2.058-6.462-3.08-9.688-1.814-5.725-2.884-11.57-3.673-17.502-1.253-9.412-3.684-18.526-7.371-27.29-.934-2.219-3.157-3.483-6.135-2.944-2.958.535-5.718.083-8.538-.584-2.962-.7-3.295-.459-3.768 2.617a68.725 68.725 0 00-.618 5.205c-.18 2.36-.216 4.718-1.35 6.916-.623 1.21-.558 2.666-.424 3.956.194 1.87-.123 3.68-.151 5.513-.033 2.112-.337 4.078-1.544 5.869-.518.769-.899 1.664-.876 2.609.07 2.934-1.457 5.848-.072 8.816.187.397.06 1.047-.126 1.498-1.598 3.89-1.895 7.9-1.257 12.019.1.646-.015 1.306-.558 1.674-1.312.892-1.165 1.983-.7 3.259.199.55.347 1.509.054 1.784-2.096 1.956.11 4.9-1.68 6.87-.423.463-.784.997-.753 1.647.177 3.677-1.46 7.334-.111 11.024.101.278.118.633.048.918-1.55 6.37.149 12.722.27 19.067.098 5.033.343 10.08.46 15.125.142 6.11-.514 12.145-1.494 18.152-.878 5.371-.444 10.686.44 15.99.233 1.403.524 2.812 1.915 3.714 1.083.703 1.695 1.913 1.83 3.127.28 2.51 1.61 4.95.542 7.572-.338.829.054 1.628.434 2.364 1.928 3.733 4.28 7.23 8.372 8.696 3.491 1.25 4.699 4.151 6.075 6.973.902 1.846.156 3.431-1.795 4.263-5.59 2.39-11.381 3.458-17.45 2.281-.203-.04-.445-.02-.602-.126-3.38-2.294-7.357-1.568-11.064-2.191-.608-.1-1.233-.093-1.85-.133-4.914-.325-4.373-2.964-3.066-5.848.17-.375.37-.75.631-1.061 2.495-3 1.686-6.09-.23-8.796-1.665-2.35-2.058-4.519-1.18-7.211 1.785-5.477.9-10.974-.27-16.425-.756-3.527-1.813-6.972-3.097-10.354-1.91-5.03-2.818-10.327-3.916-15.563-1.458-6.952-2.501-13.98-3.575-21.003-1.506-9.853-1.51-19.694-.486-29.584.71-6.86 1.23-13.739 1.392-20.641.055-2.344.494-4.692.901-7.013.591-3.361 1.083-6.7.434-10.125-.187-.985-.077-2.069.09-3.073.5-3-.108-5.962-.202-8.939-.045-1.429-.825-2.019-2.08-2.211-2.03-.315-4.057-.783-6.099-.866-2.943-.116-4.897-1.6-6.031-4.097-.876-1.923-2.314-3.03-4.032-4.062-2.203-1.323-4.287-2.844-6.41-4.3-1.497-1.028-2.433-2.5-3.123-4.137-1.244-2.956-2.919-5.597-5.03-8.046-1.451-1.682-3.047-2.244-5.126-2.222-3.543.038-4.106-.462-4.435-3.966-.126-1.337-.362-2.643-.555-3.964-.709-4.842-.606-9.633 1.376-14.223.297-.687.326-1.363.315-2.1-.093-6.027 1.12-11.601 5.386-16.225 1.235-1.339 2.104-2.96 2.547-4.863.613-2.633 2.579-4.652 3.83-7.015 2.848-5.383 5.42-10.81 7.075-16.731 1.38-4.939 3.57-9.65 5.401-14.463.293-.768.782-1.52.847-2.306.254-3.102 1.423-5.992 1.998-9.021.469-2.468.654-4.92.443-7.375-.477-5.54-.66-11.112-1.636-16.6-.39-2.192.191-4.298.364-6.439.094-1.169-.137-1.805-1.214-2.68-2.558-2.078-4.595-4.725-5.075-8.195-1.408-10.194-3.713-20.282-3.647-30.65.025-3.917.083-7.834.14-11.751.017-1.181-.058-2.413-1.268-2.93-3.057-1.305-4.021-4.248-5.519-6.776-.416-.702-.565-1.588-1.06-2.21-1.709-2.145-1.595-4.276-.407-6.62 1.81-3.567 3.716-7.078 5.086-10.877.676-1.873 2.181-3.483 3.458-5.096 3.395-4.293 7.312-8.09 11.403-11.714.462-.41 1.011-1.04 1.592-.636 1.677 1.163 3.687.245 5.383 1.004 1.209.541 1.796-.014 2.004-1.078.324-1.654.828-3.01 2.353-4.109 1.019-.733-.117-1.822-.936-2.007-2.516-.566-3.447-2.795-4.989-4.38-.28-.288-.577-.66-.651-1.037-.746-3.819-1.894-7.61-1.003-11.57.188-.835.516-1.657 1.418-1.86 1.236-.28 1.674-1.142 1.83-2.206.45-3.059 1.088-6.073-1.3-8.825-1.773-2.044-1.17-5.093 1.326-6.27 2.788-1.317 3.876-3.49 4.346-6.248.7-4.111 1.968-7.982 4.697-11.246.197-.236.447-.501.488-.78.494-3.368 2.889-5.85 4.11-8.879 1.029-2.55 2.777-4.642 5.011-6.158 2.283-1.547 4.622-3.047 7.37-3.819 2.75-.773 5.236-2.26 8.065-2.964C75.75-.317 79.883-.6 83.741 2.253c.485.359 1.088.687 1.672.765 5.71.763 9.257 4.417 12.17 8.964 1.004 1.568 2.244 2.952 3.648 4.168.795.689 1.49 1.441 1.93 2.382a350.81 350.81 0 013.456 7.576c.777 1.765.455 3.494-.633 4.985-2.421 3.32-1.427 6.859-.85 10.39.111.678.654.986 1.103 1.412 3.767 3.57 3.152 9.98-1.495 12.508-2.036 1.109-2.81 2.535-3.158 4.522a43.475 43.475 0 01-4.648 13.355c-1.038 1.91-1.313 3.81-.382 5.913.788 1.78 1.283 3.692 1.873 5.557.394 1.242 1.044 2.118 2.356 2.619 4.313 1.645 8.35 4.029 13.074 4.556 1.638.183 3.136.993 4.42 2.091 3.873 3.315 7.325 6.855 8.714 12.051 1.3 4.862 3.08 9.574 5.778 13.896.836 1.339 1.102 2.882.348 4.438-.883 1.82-.694 4.081-2.426 5.577-.552.477-.276 1.376-.308 2.087a60.804 60.804 0 002.096 18.957c1.684 6.15 3.259 12.332 4.991 18.468 1.037 3.672 2.447 7.21 4.608 10.402.287.423.554.887.704 1.372 1.703 5.523 4.82 10.48 6.525 15.981 2.072 6.68 3.981 13.42 5.273 20.305 1.312 6.994 3.14 13.852 5.29 20.624 2.114 6.666 4.176 13.338 5.814 20.146.984 4.09 2.56 7.955 5.107 11.439 1.524 2.083 1.837 4.76 1.97 7.355.02.41-.084.828-.047 1.234.493 5.36.526 10.654-1.78 15.711-.432.949-.178 2.023.313 2.991 1.083 2.135 1.58 4.427 1.921 6.788.417 2.88 1.996 3.76 4.54 2.516 1.587-.776 3.24-1.294 4.9-1.843 1.661-.55 3.477-1.018 4.689-2.265 1.655-1.704 3.58-2.226 5.807-2.382 3.706-.26 7.371-.82 10.875-2.131 2.488-.931 2.6-1.252 1.424-3.532-.047-.092-.135-.17-.156-.266-1.218-5.468-5.766-9.19-7.507-14.41-1.73-5.182-2.512-10.328-.437-15.582.263-.666.657-1.272.6-2.043-.158-2.099.849-3.818 2.02-5.386 1.858-2.487 3.274-5.038 3.766-8.232.62-4.028 4.84-6.302 8.64-4.9 1.78.658 3.443.556 5.13.02 3.208-1.02 6.483-.41 9.726-.485.606-.013 1.21.105 1.819-.067 1.587-.445 3.07.02 4.508.617a238.04 238.04 0 016.76 2.93c.55.248 1.129.601 1.494 1.064 3.223 4.079 7.399 7.283 10.096 11.908 1.552 2.661 2.123 5.276 2.188 8.125.03 1.362.317 2.907-.845 4.102-.176.18-.156.587-.165.89-.208 6.721-2.125 13.167-3.158 19.755-.272 1.734-1.129 3.294-1.342 5.062-.265 2.191-.242 2.377 1.915 2.89 1.602.382 3.252.618 4.802 1.148 3.362 1.15 6.196 1.03 9.241-1.413 2.299-1.844 4.097-4.296 6.772-5.687.623-.324 1.09-.934 1.678-1.342 1.897-1.32 1.894-1.304 1.188-3.75-.11-.38-.203-.854-.074-1.198.92-2.448.578-5.075 1.19-7.592.918-3.772 1.371-7.649 2.401-11.416.368-1.345.349-2.927.04-4.296-.48-2.133.039-4.265-.373-6.399-.293-1.513.537-3.004 1.135-4.425 2.602-6.175 4.406-12.569 5.61-19.164.716-3.926 1.504-7.885 3.685-11.361.58-.924.505-1.967.57-2.995.192-3.053 1.42-5.549 4.074-7.21.338-.211.86-.25.94-.693.692-3.887 4.396-6.52 4.383-10.733-.005-1.559 1.215-2.84 1.91-4.122 2.065-3.803 2.343-8.545 5.951-11.527.301-2.256 1.934-3.758 3.108-5.523.379-.57.18-1.257-.063-1.791-1.194-2.613-.343-5.097.564-7.485.95-2.504 2.03-4.934 2.036-7.679.001-.723.168-1.378.687-1.983 1.497-1.746 1.42-3.803.818-5.831-.473-1.593-.455-3.031.55-4.395.06-.082.141-.158.177-.252 1.5-3.82 2.354-7.832 3.46-11.768.261-.932-.006-1.398-1.11-.845-.763.383-1.775 1.268-1.928-.748-.043-.563-1.433-1.477-2.624-.837a3.64 3.64 0 01-2.094.418c-1.12-.106-1.592-.835-1.253-1.944.117-.384.434-.704.578-1.084.395-1.045.327-1.842-1.098-1.814-.514.01-1.032-.01-1.544-.058-.172-.017-.333-.16-.499-.247.104-.167.178-.367.32-.492.147-.13.352-.245.544-.269 2.38-.297 4.663-.68 5.876-3.212.366-.765 1.483-.602 2.194-1.02.593-.348 1.66-.276 1.649-1.139-.01-.782-.907-.88-1.61-1.1-2.175-.68-4.206-1.648-5.644-3.532l-.068.079zm24.17-35.475c-.352.209-.617.464-.405.913.026.058.182.056.278.082.063-.275.14-.548.183-.826.01-.08-.083-.176-.13-.264.203.162.355.152.458-.028-.053-.022-.123-.077-.156-.06-.083.045-.153.12-.229.183zm122.554 157.78c-.513 6.798 1.051 13.533.65 20.33-.026.402.02.835.15 1.213.135.39.47.653.921.694.368.032.587-.212.7-.49.809-1.964 2.3-3.355 3.862-4.7.554-.476.992-1.023.832-1.865-.162-.854.299-1.606.56-2.375 1.678-4.936 2.123-10.068 1.93-15.199-.295-8.052-2.526-15.792-4.718-23.475-.66-2.314-1.094-4.54-1.137-6.887-.043-2.266-.01-4.534-.023-6.8-.003-1.026.083-2.054-.302-3.053-1.246-3.246-1.02-7.102-4.078-9.614-.4-.33-.537-1.119-.586-1.712-.25-3.001-2.477-5.397-2.543-8.45-.007-.277-.242-.559-.402-.82-.268-.437-.61-.994-1.13-.877-.458.101-.852.589-.832 1.18.136 4.209-.425 8.438.301 12.63.647 3.733 1.038 7.51 1.986 11.192.461 1.801.067 3.659.438 5.512 1.06 5.31 2.294 10.64 2.669 16.017.411 5.828 1.346 11.666.752 17.55zM315.444 135.661l.612-.086c.396-.054.893-.023 1.062-.438.217-.53-.316-.631-.645-.841-1.039-.66-.607-1.42-.029-2.052.618-.677 1.386-1.215 2.034-1.867.173-.173.286-.643.175-.798-.128-.18-.556-.27-.813-.215-1.522.33-2.968.867-4.104 1.985-.666.655-1.363 1.392-.8 2.424.535.983 1.079 2.05 2.508 1.888zM92.834 80.04c-1.055.425-2.099.847-2.918 1.658-.303.3-.078.552.161.717.504.349 1.01.713 1.563.967.884.408 2.006 1.389 2.702.78.777-.68-.199-1.878-.427-2.837-.128-.536-.306-1.212-1.081-1.284z" fill-rule="nonzero"/></svg>
