<svg viewBox="0 0 355 568" xmlns="http://www.w3.org/2000/svg" fill-rule="evenodd" clip-rule="evenodd" stroke-linejoin="round" stroke-miterlimit="2"><path d="M73.234 396.06c-.001.022-.012.057-.012.079 0 .41-.007.312.012-.078zm279.722-279.4c-.943-3.435-2.318-8.86-3.544-9.869-1.227-1.008-1.471-1.716-2.098-3.571-.628-1.854-1.255-3.925-2.29-6.16-1.038-2.237-2.975-6.543-4.663-7.361-1.69-.817-3.709-3.434-5.561-6.488-1.852-3.054-6.324-6.651-6.87-8.45-.543-1.8-4.851-3.544-9.812-6.16-4.962-2.619-16.575-9.215-21.21-12.377-4.634-3.162-11.176-7.81-19.271-12.512-8.097-4.703-22.243-5.439-24.82-5.602-2.576-.164-8.137-5.684-12.024-6.297-3.883-.614-9.647 1.472-13.001 1.432-3.354-.042-7.374 1.743-8.657 2.534-1.281.79-3.787-2.208-6.186-4.961-2.4-2.754-4.2-2.862-5.696-2.971-2.89-.301-7.88 4.334-9.106 5.315-1.228.982-2.863.083-4.173-2.371-1.308-2.454-.816-3.844-.898-6.543-.083-2.698.082-1.963-1.39-5.397-1.47-3.435-5.123-6.788-10.47-10.494-5.341-3.71-12.429-5.344-19.952-7.416-7.523-2.072-17.882-.219-25.079.763-7.198.98-14.83 7.743-17.447 11.45-2.616 3.707-4.69 9.485-5.015 11.23-.328 1.745-2.836 6.652-3.6 11.778-.762 5.124-2.289 9.594-.762 18.427 1.527 8.831 5.534 13.494 6.35 14.72.82 1.226 1.5 2.835 4.827 6.979 3.325 4.143 10.904 6.869 10.904 6.869l1.253-.11c2.398 1.581 6.652 1.554 7.878 1.61 1.226.054 1.364.19 1.364 1.634 0 1.445.571 1.527.737.545.162-.981.98-.953 1.469-.517.492.436 1.092 2.236 2.29 4.58 1.2 2.344 3.435 3.271 4.254 2.562.816-.708 2.78-2.072 3.925-1.635 1.527 1.963 3.748 2.548 4.812 1.73 1.063-.818 2.208-1.104 3.597-1.307 1.39-.205 3.558 1.061 4.254 1.921.695.859 1.512 1.431 2.657 1.267 1.144-.164 3.313-.122 4.539.492.897.777 1.115.357 2.097 1.448.98 1.09 2.207.825 2.896.595.704-.235 1.17-.546 1.363-1.065.19-.519.634-1.592 1.372-1.02.738.572 1.717 2.862 2.29 4.334.572 1.472-.109 2.126.437 5.944.545 3.815-.191 7.55-.111 8.04.082.492.409.982-.817 3.272-1.228 2.29-1.636 5.889-2.862 8.505-1.227 2.618-5.97 9.078-7.605 13.33-1.636 4.252-2.782 11.123-4.007 16.438-1.228 5.316-3.927 14.475-5.071 16.846-1.146 2.372-3.353 8.533-3.79 10.005-.437 1.471-1.09 2.726-3.215 5.451-2.127 2.727-4.73 9.038-5.63 10.387-.496.742-1.898 1.753-3.423 2.988.007-.091.02-.192.022-.28.095-2.16.565-5.386 1.096-7.61.534-2.223.972-4.572 1.034-5.825-.218-4.103-4.415-6.484-5.543-6.89-3.132-.909-7.65.68-8.73 1.01-1.08.328-3.077-1.527-4.393-2.326-2.16-1.503-4.698-1.62-5.026-1.644-1.48.14-3.243 1.386-4.439 2.56-1.198 1.175-3.407 2.866-4.558 3.687-1.151.824-1.573.212-1.997-.14-.868-.916-.164-6.201-.634-7.8-.47-1.596-3.992-1.22-4.886-.985-.892.234-1.715-.188-2.137-.47-.305-.705-1.808-1.292-2.372-1.41-2.725-.657-3.805 1.457-4.628 2.162-.822.704-1.613-1.692-1.613-3.633-.5-4.322-2.724-5.418-4.259-6.326-3.445-1.19-5.198.908-7.83 3.915-2.63 3.006-4.886 4.791-8.111 7.36-3.225 2.568-3.665 2.505-6.358 2.943-2.693.44-4.667.22-6.357-.438-1.692-.658-3.712-.11-7.141 2.427-3.43 2.536-6.436 3.712-7.564 3.664-5.12-4.65-14.94-.845-11.603-2.584 3.334-1.737 1.596-1.69-4.888 1.175-6.48 2.866-10.427 10.382-9.582 9.208.846-1.175 3.241-1.785 2.256-.423-.987 1.362.234 1.221-1.317 2.63-1.55 1.41-2.442 3.384-4.885 7.236-2.443 3.852-11.369 6.388-6.858 5.638 4.51-.753 4.322-1.598 2.348 1.033-1.973 2.63-3.665 5.166-6.39 10.523-2.724 5.357-10.991-.19-9.676 1.69 1.315 1.88 6.2 3.29 7.047 2.35-1.692 3.757-2.914 11.462-1.316 10.335-4.697 9.018-5.92 20.765-4.792 16.911 1.128-3.85.189 5.637-1.315 12.873-1.504 7.234-1.127 21.546 0 26.246 1.127 4.697 4.323 6.953 3.382 9.96-.94 3.007-.564 14.216-.627 9.207-.062-5.01 2.82-7.454 2.382-2.88-.44 4.569 3.318 10.646 3.883 12.525 2.13 7.894 11.149 17.163 8.706 13.592-2.443-3.568-3.632-9.332-3.696-10.708-.062-1.38-.814-3.447 1.754 1.19 2.568 4.633 7.204 8.204 8.457 8.58-5.325-8.143-7.392-19.23-7.329-20.23.063-1.004 2.13 4.947 3.508 8.456 1.377 3.507 3.633 5.824 5.7 14.843 2.067 9.02 5.825 10.838 8.518 16.037 2.694 5.196 10.023 6.575 7.33 5.072-2.694-1.506-3.571-3.948-5.325-7.702-1.755-3.76 4.385 3.002 5.763 6.45 1.377 3.442 2.255.376 3.883 3.382 1.63 3.009 3.07 3.696 2.568 2.126-.5-1.563 1.942-.871 2.569.631.626 1.503 2.255 2.69 1.88 1.627-.377-1.063.625-2.258 1.564.188.94 2.442 3.571 5.011 2.568 3.317-1.002-1.687.877-3.505 1.566-.811.689 2.693 1.379 2.63.877.939-.5-1.69.502-1.375 2.757.751 2.254 2.13 3.757 8.02 3.256 5.14-.5-2.882 1.817 3.816 1.692 6.825-.126 3.006-1.566 5.387-.69 4.572.878-.815 1.567-1.187.815 1.818-.751 3.006-5.324 4.633-2.944 4.197 2.38-.44 4.697-3.325 3.194.251-1.502 3.57-6.012 5.696-3.82 5.132 2.192-.563 5.074-1.563 3.57-.312-1.503 1.255-.188 1.882 2.067-.503 2.255-2.378 4.01-4.444 3.194-2.19-.548 1.517-.697 3.569-.738 4.37.074-1.312 2.247-4.895 2.618-6.437.376-1.566 1.315-1.694.063 2.194-1.253 3.881-.628 3.442.25 2.378.876-1.063 1.44-.063.564 1.255-.877 1.315.438 1.124 1.44-.124 1.003-1.255 2.63-1.567 2.63.627 0 2.19 2.57-1.63 3.259-3.764.688-2.13.688-5.695 1.503-6.826.813-1.123 1.19.94 1.44 5.767.25 4.823 2.255-4.888 2.757-6.206.5-1.311.939-1.311 2.442 2.378 1.503 3.7-1.19 6.394-.188 7.27 1.003.878 3.508-9.584 4.51-8.585 1.002 1.01 2.756-3.629 2.694-.5-.063 3.133 4.07 8.836 2.317 3.258-1.753-5.572 2.756-8.58 2.756-8.58l.752.754c.752.748 1.879 2.63 2.381 4.133.5 1.502 1.377 2.877 2.004 4.883.627 2.006 1.127 2.134 1.253 6.766.125 4.636 1.503 1.882 1.252 5.015-.251 3.13 1.128 5.256 2.506 8.765 1.378 3.509 1.253 3.38 1.753 7.645.501 4.26.752 7.64.501 11.025-.25 3.378 4.511 11.147 3.884 14.404-.081.422-.117.985-.121 1.64-.328 5.54-.146 17.144 4.812 26.157 5.513 10.022 6.013 10.022 7.517 24.553 1.503 14.531 1.002 19.546-1.002 31.068-2.005 11.526-9.521 13.528-7.517 22.548 2.004 9.02-1.503 17.54-1.503 17.54H259.06c0-15.034-.973-34.824-9.488-59.378-8.52-24.554-12.052-66.822-12.052-66.822.315-3.445-.736-10.682-1.769-13.266a79.23 79.23 0 01-2.254-6.482c-.52-1.69-.66-1.499-.423-3.331.233-1.836.844-5.78.844-10.43 0-4.65-1.22-7.99-1.455-11.136-.237-3.148-1.926-7.702-2.115-9.63-.186-1.928.72-4.728 1.847-7.361 1.128-2.63.815-3.441 1.975-5.511 1.16-2.066 2.943-5.355 3.602-5.919.656-.563 3.225-4.292 3.821-5.511 1-1.69 2.003-4.824 2.224-6.77.187-2.186-.221-4.348-.877-7.198-.66-2.853-1.716-5.723-3.361-8.945-1.644-3.216-3.923-7.162-5.661-9.982-1.737-2.817-1.91-3.374-3.977-6.788-2.067-3.41-4.384-5.354-6.483-8.894-2.098-3.54-6.733-6.39-6.733-6.39s.797-.639 6.34-3.463c5.115-2.599 12.085-7.42 17.305-10.956a.56.56 0 00-.026.324c.37 1.308 3.436 2.29 3.436 2.29s.163 1.1.367 1.837c.818 1.105 2.332.984 3.434.861 1.104-.124 2.17-.165 2.493.572-.572 1.51-.324 2.986.37 3.556.698.694 1.43.534 2.576.45 1.144-.079 2.454-1.88 4.702-2.615 2.248-.737 5.562-1.515 8.218-2.862 2.658-1.352 8.425-4.374 11.982-5.889 3.559-1.515 9.404-4.416 11.37-5.725 1.96-1.308 2.941-.367 4.044.9 1.719 2.085 5.522 1.8 6.912 1.554 2.412-.532 3.394-1.187 6.093-2.78 2.697-1.595 8.75-4.214 11.367-4.214 2.616 0 7.81-.857 10.387-1.511 4.457-1.308 6.949-4.745 7.81-7.074 1.553-4.538-1.8-8.261-2.619-9.445-.816-1.186-2.494-2.783-2.943-4.909-.45-2.125-1.348-4.703-2.373-7.034-1.022-2.33-4.498-11.528-5.109-14.473-.615-2.945-1.348-6.46-2.905-11.12-1.553-4.662-6.03-12.637-7.195-14.293-1.165-1.656-1.268-2.937-.723-2.393.545.546 5.343 1.364 6.08 1.2.734-.163 0-3.953.543-4.06.544-.11 5.943 1.906 7.853 1.797 1.906-.109 2.016-2.017 2.672-4.252.653-2.236.38-6.324.925-7.96.544-1.636 4.525-6.924 7.714-11.748 3.19-4.826 6.338-12.554 8.057-16.398 1.715-3.843 4.047-12.921 4.866-15.537.819-2.618 2.821-11.45 3.477-16.765.652-5.317-.33-15.09-1.27-18.523zM209.77 192.99c.093 1.174.847 2.018.283 2.7-.563.682-.87 1.715-.965 2.748-.093 1.033-.585 1.55-.822 2.443-.234.892-1.409 1.55-2.514 2.302-1.102.752-.56 2.678-.867 3.36-.305.682-1.223.258-2.21.682-.984.422-1.759 1.173-1.9 2.137-.142.963-.517 1.15-1.458 1.548-.938.401-1.595.964-2.49 1.833-.89.868-.14.916-1.15 1.175-1.01.258-3.453 2.89-5.543 4.016-2.091 1.127-4.886 3.218-7.423 4.768-2.537 1.55-6.554 3.641-7.188 3.971-.634.327-1.573 1.244-3.03 1.902-1.456.657-2.654 1.316-3.97 2.044-1.315.727-3.123 1.62-4.791 2.372-1.668.751-3.079 1.01-5.003 2.02-1.927 1.01-2.185-.164-2.49-1.176-.306-1.009-1.213-3.373-2.216-6.787-1.002-3.414-2.975-7.047-3.852-8.394-.3-.461-.623-1.007-.934-1.688.314-.709.656-1.406.903-2.197.546-1.746 3.434-4.362 3.434-4.362s-.053 1.143-.028 1.635c-.488 2.916-.052 6.379.084 7.496.298 2.208 2.044 3.19 2.562 3.217 1.036-.217 2.208-1.254 2.264-2.508.053-1.255-.138-4.716.189-6.786.328-2.073 2.537-3.79 4.988-5.236 2.454-1.444 6.433-5.398 7.28-5.534.844-.135 2.507-.081 2.453-.762-.054-.682.654-2.481 2.208-4.798 1.39-2.154 2.207-6.244 2.534-7.28 3.218-1.635 6.599-6.814 8.287-9.65 1.692-2.834 4.745-8.395 7.034-11.938 2.29-3.545 8.504-16.574 9.921-20.391 1.056-2.837 2.931-6.412 4.36-9.404.384 2.52.7 4.993.87 5.868.424 2.16.297 5.573.627 8.063-1.55 2.443-.892 4.135-.892 4.135s-.284 2.395 1.692 4.146c.104 1.381.19 2.68.234 3.699.142 3.289.093 11.65-.234 15.597-.33 3.945-.33 11.838-.237 13.013zm43.783 1.266c-4.227-12.683-10.743-27.09-11.368-29.126-.73-2.382-.954-5.13-1.726-7.373.6-3.431-.497-4.465-.497-4.465s.314-2.881-2.624-3.98c-1.514-3.832-6.835-20.36-9.766-29.264 2.39 1.357 4.367 2.786 6.454 4.073.218.135.457.256.682.387 1.637 5.746 7.631 26.658 9.733 32.072-.775 2.435-1.284 5.607.595 8.05.53 1.51.772 2.216 2.194 3.18.91 4.483 6.895 26.338 6.323 26.446zm29.174-42.138c.848-3.383-1.503-5.45-1.315-5.826-.094-3.1-4.745-3.24-4.745-3.24l-1.409-2.068c-.327-.481-.843-1.28-1.47-2.246 4.587 2.098 8.538 4.212 9.41 5.155.462.954.521 5.185.616 10.633-.67-1.326-1.15-2.28-1.087-2.408zm24.104 110.083c-.49 1.745-4.471 5.07-5.89 5.232-1.416.165-4.415 2.182-5.124 2.946-.707.762-2.4 1.908-2.78 1.962-.381.056-1.308.217-1.582-1.744-.272-1.962-.546-4.853.872-8.943 1.419-4.087 3.818-8.014 4.253-9.976.437-1.962 1.035-4.362 2.125-4.2 0 0 3.818 6.11 5.236 7.963.983 2.126 3.38 5.016 2.89 6.76z" fill-rule="nonzero"/></svg>
