<svg viewBox="0 0 307 484" xmlns="http://www.w3.org/2000/svg" fill-rule="evenodd" clip-rule="evenodd" stroke-linejoin="round" stroke-miterlimit="2"><path d="M1.19.303c-1.7.34-1.587 1.058.416 2.04 1.7.87 4.497 1.437 9.673 1.966 1.172.15 2.154.378 2.154.529 0 .453-5.063 5.176-8.502 7.935-1.662 1.322-3.174 2.645-3.325 2.91-.831 1.435 1.55 1.738 3.665.49 1.36-.793 1.89-.49.794.416-.302.265-.567.87-.567 1.36 0 1.248 1.36 1.21 3.25-.113.793-.529 2.531-1.624 3.854-2.456l2.38-1.436-2.115 2.457c-1.134 1.36-2.079 2.72-2.079 3.022 0 .907 1.134 1.134 2.305.492.718-.416 1.55-.567 2.608-.416 1.398.189 1.813.038 3.778-1.322 1.474-1.059 3.137-1.814 5.064-2.306 1.587-.415 3.06-.869 3.25-.982.188-.113 1.36-.038 2.569.189 1.852.378 2.758.34 5.404-.189 6.915-1.398 7.481-1.474 9.673-.945 6.462 1.436 19.196 10.959 34.122 25.507 6.424 6.235 10.694 10.051 15.228 13.527 3.476 2.646 6.65 5.215 7.066 5.668 1.134 1.172 2.494 3.741 4.043 7.445.718 1.776 2.721 6.197 4.384 9.824 2.645 5.744 4.496 10.505 9.37 23.995 1.399 3.892 1.437 6.348.152 7.935-.491.605-.907.945-.945.756 0-.227-.189-1.852-.415-3.59-.454-3.703-1.625-6.083-3.401-6.99-1.285-.68-1.625-1.436-2.04-4.27-.303-2.192-1.02-3.137-5.026-6.424-1.398-1.172-2.38-2.418-3.288-4.232-.756-1.474-1.89-3.061-2.72-3.741-2.192-1.814-12.357-6.688-16.173-7.784-3.93-1.096-10.24-1.663-13.793-1.21-3.4.416-10.731 4.157-15.039 7.71-1.851 1.51-4.61 4.911-6.008 7.33-2.532 4.459-3.854 11.223-3.892 19.46 0 5.101.34 6.462 2.078 8.653.68.832 1.512 2.494 1.852 3.666.491 1.738 1.058 2.607 3.174 4.76 1.398 1.437 3.514 3.326 4.723 4.195 1.21.87 3.174 2.796 4.346 4.232 1.171 1.436 3.06 3.288 4.232 4.081 1.134.794 3.703 2.759 5.668 4.346 4.875 3.968 7.67 5.29 10.92 5.29 3.93 0 7.747-2.078 10.279-5.517l1.02-1.473.453 1.36c.605 1.89.227 3.476-1.473 6.16-1.323 2.04-8.39 9.295-11.072 11.41-1.7 1.323-3.628 5.215-4.837 9.863-1.625 6.349-3.287 14.964-3.93 20.594-.566 4.8-.831 5.933-3.25 12.772-3.665 10.505-5.29 21.199-4.534 29.323.794 8.427.643 8.162 6.65 10.392 6.765 2.456 7.86 2.758 29.815 7.746 7.897 1.776 14.51 2.947 26.073 4.572 7.897 1.096 10.505 1.21 12.016.567.567-.265.642-.076.642 1.398 0 1.36-.68 3.099-3.778 9.371-2.267 4.535-4.27 9.22-4.95 11.45a1133.68 1133.68 0 01-3.552 11.374 594.04 594.04 0 00-3.968 13.036c-.87 3.023-2.154 7.33-2.91 9.636-1.7 5.252-2.229 7.028-5.403 17.949-2.759 9.522-4.27 13.64-7.935 21.35a327.356 327.356 0 00-3.968 8.69c-.87 2.079-3.854 7.671-6.613 12.47-5.668 9.9-11.034 20.594-14.17 28.378l-2.116 5.328-1.398-.037c-1.398-.038-1.436 0-2.948 3.06-1.322 2.683-1.927 4.535-2.645 8.314-.113.49-1.247 1.7-2.645 2.834-2.456 1.927-3.174 2.947-3.174 4.61 0 1.247-1.322 2.758-2.607 3.06-1.587.34-2.38 1.436-2.72 3.666-.303 2.002-.643 2.418-3.024 4.118-.718.492-.869 1.058-1.096 3.855-.226 2.683-.415 3.514-1.322 4.799-.794 1.133-1.096 2.154-1.323 4.232-.264 2.947-.907 4.421-2.91 7.066-1.435 1.89-1.549 2.494-.566 3.099.642.415.567.755-1.172 5.403-.982 2.72-2.758 7.255-3.892 10.052-3.325 8.124-3.174 9.975.907 11.978 2.079 1.02 2.305 1.058 8.049 1.02 6.424-.075 9.22-.604 11.79-2.267 2.342-1.55 2.91-2.834 2.91-6.764 0-3.363.037-3.438 1.737-6.235.945-1.549 1.814-3.287 1.927-3.854.152-.87.34-1.02 1.058-.831 1.323.34 1.739-.832 2.154-5.857.454-5.064.756-5.555 3.892-6.84 2.343-.944 2.834-1.776 2.834-4.912 0-2.872.567-4.043 2.343-4.95 1.663-.87 2.38-1.852 2.72-3.854.19-.945.794-2.041 1.74-3.061 1.586-1.7 1.813-2.683 1.36-5.366-.265-1.512-.227-1.625 1.435-3.174 3.212-2.985 5.895-8.011 5.895-10.996 0-.567-.151-1.096-.34-1.172-.189-.075 2.267-3.552 5.441-7.784 6.349-8.464 8.125-11.6 11.903-21.16 1.247-3.175 2.872-6.916 3.552-8.351 2.079-4.12 6.424-10.316 9.674-13.83 3.174-3.44 5.781-7.785 7.935-13.226 4.27-10.883 7.482-17.269 14.397-28.643 3.854-6.348 8.162-12.772 12.734-19.007 2.456-3.325 9.107-14.925 12.432-21.614 1.776-3.627 3.061-5.668 4.535-7.293 2.342-2.494 3.514-2.985 7.293-2.985 2.871 0 6.688 1.55 7.784 3.174.34.567 1.511 3.363 2.607 6.235 3.665 9.598 6.877 16.475 13.83 29.55 5.441 10.164 7.217 14.926 8.653 23.012 1.663 9.296 4.006 15.568 8.049 21.5 2.305 3.477 5.517 10.052 7.028 14.587.643 1.851 2.003 6.952 3.061 11.26 2.23 9.182 4.837 16.891 7.935 23.73 1.474 3.212 2.23 5.366 2.23 6.311-.038 1.587 1.134 4.534 3.816 9.862.983 2.003 2.683 6.273 3.78 9.485 1.095 3.212 3.022 7.973 4.27 10.543l2.342 4.723v3.93l.038 3.93 2.494 2.342c1.436 1.323 2.645 2.797 2.796 3.401.113.567.151 2.268 0 3.741-.227 2.872.075 3.93 1.058 3.552.718-.302.718-.113.189 2.948-.454 2.682.34 8.54 1.36 9.635.907 1.02 7.18 3.817 9.75 4.384 3.249.68 12.356.68 15.756-.038 3.363-.718 4.762-1.436 5.669-2.948 1.549-2.531.68-5.063-3.364-9.484-1.511-1.663-3.06-3.628-3.438-4.346-1.058-2.116-1.89-5.894-1.89-8.653 0-2.305-.113-2.72-1.398-4.572-1.322-1.89-1.436-2.343-1.889-6.31-.378-3.855-.605-4.648-2.418-8.54-1.096-2.343-2.57-5.253-3.25-6.424-1.814-3.137-2.305-4.724-2.834-9.485-.416-4.119-.491-4.232-1.927-5.819-.983-1.096-1.512-2.003-1.587-2.91-.151-1.511-.718-2.72-1.927-4.005-1.096-1.21-2.268-3.854-2.608-6.046-.302-1.927-.755-2.645-1.662-2.645-.567 0-.756-.794-1.323-4.648-1.36-9.144-4.005-20.632-5.895-25.393-.604-1.55-2.57-5.668-4.307-9.22-3.628-7.217-4.988-10.845-6.651-17.987-.642-2.72-1.663-6.877-2.23-9.257-1.51-6.009-2.607-13.075-3.06-20.14-.454-7.218-1.89-14.133-6.575-31.704-1.814-6.802-6.537-20.48-9.069-26.3-2.72-6.386-3.212-7.822-4.383-13.68-1.058-5.251-2.834-10.466-5.555-16.436-1.247-2.721-3.174-7.293-4.308-10.203l-2.04-5.29-6.386-6.5c-9.22-9.37-10.92-12.016-15.493-24.486-6.122-16.55-6.726-17.722-16.06-31.627-7.028-10.43-10.391-14.85-10.958-14.473-.189.076-3.514-3.098-7.482-7.104-7.33-7.444-9.144-9.787-13.527-17.457-1.02-1.852-4.006-6.16-6.613-9.598-5.857-7.747-5.555-7.255-7.747-12.508-11.071-26.45-17.986-37.258-29.285-45.685-5.97-4.42-17.155-11.638-28.529-18.364-6.235-3.665-14.321-8.54-17.986-10.807-3.666-2.267-7.633-4.497-8.805-4.912-3.476-1.21-7.52-1.814-14.586-2.268-3.627-.189-8.124-.642-10.013-.944C22.616 1.324 7.576-.036 4.553 0 3.306.039 1.795.152 1.19.303zm110.603 188.029c2.192 2.91 4.421 4.648 11.45 9.144 6.272 3.968 11.525 8.389 14.926 12.508 3.816 4.61 3.892 4.837 3.325 10.353l-.454 4.573-2.04 2.834-2.003 2.796v9.069l-2.91-.265c-4.005-.34-11.978-1.813-18.213-3.4-5.177-1.247-7.33-2.04-16.853-5.97-4.837-1.966-9.182-3.364-12.016-3.855-2.343-.378-2.872-1.21-2.494-3.741.453-2.834 1.058-4.232 5.97-14.208 2.834-5.744 4.724-10.09 5.744-13.339l1.511-4.799 3.25-3.136c1.965-1.89 3.439-3.665 3.817-4.572l.604-1.512 2.192 2.494c1.209 1.323 3.098 3.628 4.194 5.026z" fill-rule="nonzero"/></svg>
