<svg viewBox="0 0 460 600" xmlns="http://www.w3.org/2000/svg" fill-rule="evenodd" clip-rule="evenodd" stroke-linejoin="round" stroke-miterlimit="2"><path d="M446.3 124.3c-.3-7.6-86.2 4.4-92.8-96.9-.5-6.5-99-15.7-124-15C204.2 13 118.1 18 107.7 27c0 0-5.8 59.2-35.3 75.4-38.6 21.2-56 19.7-56 19.7s-30.8 257 60.3 358.6c91.1 101.5 150.9 107 150.9 107s91.2-31 160.2-113c69-82 62.2-265 58.4-350.4" fill="#366093" fill-rule="nonzero"/><path d="M424.2 142.3c-.3-6.8-77.4 4-83.4-87-.4-5.8-88.7-14-111.3-13.4-22.6.6-99.9 5.1-109.2 13.1 0 0-5.2 53.1-31.6 67.6-34.6 19-50.4 17.7-50.4 17.7S10.8 371 92.5 462.1c81.8 91.2 135.4 96 135.4 96s81.9-27.7 143.8-101.3c62-73.6 55.9-237.8 52.5-314.5" fill="#fff" fill-rule="nonzero"/><path d="M413 151.3c-.2-6.4-72.9 3.7-78.5-82-.4-5.5-83.7-13.3-105-12.7-21.2.6-94.1 4.8-102.9 12.4 0 0-5 50-29.9 63.8-32.6 18-47.4 16.7-47.4 16.7s-26 217.5 51 303.4c77.2 86 127.7 90.5 127.7 90.5s77.2-26.1 135.6-95.6c58.4-69.4 52.7-224.2 49.5-296.5" fill="#366093" fill-rule="nonzero"/><path d="M232.6 10l-3.2.1c-1.1 0-110 4-122.9 15.2l-.7.5v1c-.1.6-6.2 58.1-34.2 73.6-33.8 18.5-51.2 19.5-54.3 19.5h-.7l-2-.2-.2 2.1c-.1.7-7.7 65.4-4 141.6 2.2 44.9 7.7 84.9 16.6 119 11 42.8 27.3 76.4 48.3 99.8 47.3 52.7 86 79.2 110.2 92 26.4 14.1 41.4 15.6 42 15.7h.4l.4-.1c1-.3 92.6-32 161.1-113.6 30-35.7 49.3-94.7 57.1-175.2 6.7-69.2 3.6-139.2 2-176.8-.2-3.4-4-4.1-12.3-5.6-22.6-4.1-75.5-13.7-80.6-91.3-.2-2.5-.5-6.3-51.6-12-26.7-3-56.8-5.2-71.4-5.2m0 2.3c29.2 0 120.4 8.7 120.9 15 6.6 101.3 92.5 89.3 92.8 97 3.8 85.3 10.6 268.3-58.4 350.3s-160.2 113-160.2 113-59.8-5.5-150.9-107C-14.2 379 16.4 122 16.4 122h.9c3.8 0 21.4-1.1 55.2-19.7C102 86.2 107.8 27 107.8 27c10.4-8.9 96.5-13.9 121.7-14.6h3" fill-rule="nonzero"/><path d="M232.3 41l-2.8.1c-1 0-98.3 3.6-109.8 13.5l-.6.5-.1.9c0 .5-5.4 52-30.5 65.7-30.1 16.6-45.7 17.4-48.5 17.4a9 9 0 01-.6 0l-1.8-.1-.2 1.9c0 .5-6.8 58.3-3.5 126.4 1.9 40 6.9 75.8 14.8 106.3 9.8 38.2 24.4 68.2 43.2 89.2 42.2 47 76.8 70.6 98.3 82.1 23.6 12.6 37 14 37.6 14h.3l.4-.1c.8-.3 82.6-28.6 143.9-101.4 26.8-32 44-84.6 51-156.5 6-61.8 3.2-124.3 1.7-157.9-.2-3-3.5-3.7-11-5-20.1-3.7-67.4-12.2-72-81.6-.1-2.2-.3-5.5-46-10.7a707.6 707.6 0 00-63.8-4.6m0 2c26.1 0 107.6 7.8 108 13.5 6 90.4 82.6 79.7 83 86.5 3.3 76.3 9.3 239.7-52.3 313-61.6 73.2-143 100.8-143 100.8s-53.4-4.9-134.8-95.6c-81.3-90.6-54-320.2-54-320.2h.8c3.4 0 19.2-1 49.3-17.6C115.6 109 121 56.2 121 56.2c9.2-8 86.1-12.4 108.6-13l2.8-.1" fill-rule="nonzero"/><path d="M232.2 54.7h-2.7c-1 0-93.1 3.4-104 12.8l-.6.5v.8c-.1.5-5.2 49.2-29 62.3-28.5 15.7-43.3 16.5-46 16.5h-.5l-1.7-.2-.2 1.8c0 .6-6.5 55.3-3.4 119.8 1.9 38 6.6 71.9 14 100.7 9.4 36.3 23.2 64.7 41 84.5 40 44.6 72.8 67 93.2 77.9 22.4 11.9 35 13.2 35.6 13.2h.7c.7-.3 78.3-27.2 136.3-96.2 25.5-30.2 41.7-80 48.3-148.2 5.7-58.7 3-117.8 1.7-149.6-.2-3-3.4-3.6-10.4-4.8-19.1-3.5-64-11.6-68.3-77.3-.1-2.1-.3-5.3-43.6-10.1-22.6-2.6-48-4.4-60.4-4.4m0 1.9c24.7 0 102 7.4 102.3 12.7 5.6 85.7 78.3 75.6 78.6 82 3.2 72.3 8.9 227.1-49.5 296.5-58.4 69.5-135.6 95.6-135.6 95.6s-50.5-4.6-127.6-90.5c-77.1-86-51.1-303.4-51.1-303.4h.7c3.2 0 18.1-1 46.7-16.7 25-13.7 29.9-63.8 29.9-63.8 8.7-7.6 81.6-11.8 103-12.4h2.6" fill-rule="nonzero"/><path d="M226.7 122.3c-8.5 0-15.7 3.1-21.2 9.1a29.3 29.3 0 00-8.4 20.6c0 5.9 1.8 11.1 5.3 16 5.2 7.4 18.1 17.5 38.3 30a299.6 299.6 0 0132.9 22.9l-8.3-25.2c-2.1-6.6-3.7-10-4.3-11-1-1.6-2.5-3.1-4.6-4.4a16.6 16.6 0 00-7.7-2l-1.9-.2v-6h25.7a97.2 97.2 0 00-6.7-23 50 50 0 00-16.7-19.9 41.4 41.4 0 00-22.4-6.9M192.2 289c4 6 9.4 11 16 15.1 7.5 4.7 16.3 7.1 25.6 7.1 10.4 0 18.7-3.2 24.6-9.5 6-6.3 9-13.6 9-22.3 0-4.7-1.2-9.6-3.5-14.5a43 43 0 00-10.8-13.8c-3.2-3-12.1-9-28-19.4a279.6 279.6 0 01-32.9-23.8V289zm38.8 39.5c-3 0-6.2-.1-9.4-.8l-2.1-.1c-3-.2-8.2-.5-14.9-4h-46v-9h6c3 0 5.3-1.8 7.4-5.6.9-1.7 1.3-7.5 1.3-17.4v-40.3h-46.2v40.3c0 8.3 1.4 13.8 1.8 15.2.3 1.2 1.8 3 3.3 4.3l.7.6c1.8 1.4 3.7 3 5.2 3h3.7v9H93.5v-9h6.7c2.8 0 4.9-1.7 7-5.7 1-1.8 1-9.5 1-17v-98.3-5.5c.1-4.4.1-8-.3-9.4v-.4c-.5-1.7-.9-2.8-1.8-3.5-2.4-2-4.3-2.8-6-2.8h-6.6v-6.8h48.3v6.8h-3.7c-1.8 0-4 1-6.3 2.7a9.2 9.2 0 00-3 4.7c-.4 1.6-1.7 6.6-1.7 14.2V240h46.2v-46.3c0-6.5 0-12.7-.6-15-.5-1.8-1.2-3-2.2-3.8-2.4-2-4.3-2.8-5.9-2.8h-6v-6.8H172v-2.2c0-15.7 5.1-29.3 15.3-40.5a50.8 50.8 0 0139.1-16.7 69 69 0 0131.2 8.7l1.6.8c3.5 1.9 6.6 3.5 7.9 3.5h2.6c1 0 1.2 0 1.5-.4l.5-.5c1.1-1.2 1.8-1.9 2.4-5.2l.4-1.8h8v68c0 .4.2.8.3 1 .2.2.3.5.4.9l.2.5c.3.6.7 1.3.9 2.6v.5c.5 3.4 1.4 9.8 3.6 16.6l25 77.1 23.2-76a69.8 69.8 0 003.6-16.2c0-1.5-.6-2.9-1.7-4.3-1.2-1.5-3.4-2.5-6.4-3.2h-.3c-.7-.2-2.6-.5-2.6-2.5v-4h33.6v5.5l-1.3.6c-1.8.8-4.5 2.5-6.3 4.6a30.3 30.3 0 00-4 10.3l-1.4 5-37.6 123.4h-5.9l-12.3-38.5a59.3 59.3 0 01-14.8 27.4 55 55 0 01-42.1 18.1H231" fill-rule="nonzero"/><path d="M273.9 224a265.6 265.6 0 00-34.3-24c-20.5-12.7-33.4-23-38.9-30.6-3.8-5.3-5.7-11-5.7-17.4 0-8.3 3-15.7 9-22.2s13.6-9.7 22.7-9.7c8.1 0 16 2.4 23.5 7.2a51.6 51.6 0 0117.5 20.7c3.3 6.6 5.7 17.3 7.4 26.4h-26.2v1.6a18 18 0 018.6 2.3c2 1.3 4 3 5.3 5.1.8 1.4 2.5 5.3 4.5 11.6l11 33.8a57 57 0 00-4.4-4.7m-14 79.2a34.1 34.1 0 01-26 10.2 53.2 53.2 0 01-43.7-23.7v-86.5c2 .9 2.2 1.7 3.1 2.6 6.5 6 17.6 13.9 32.9 23.8 15.3 10 24.8 16.5 28.2 19.6a45 45 0 0111.4 14.6 36.8 36.8 0 013.6 15.5c0 9.2-3.1 17.2-9.5 24m71-129v1.6l1 .3c3.7.8 6.1 2 7.7 4a9 9 0 012.2 5.7c0 3.2-1.3 8.8-3.7 17L313 285.2l-27-83.4c-2.5-7.4-3.3-14.1-3.8-17.6-.2-1.5-.8-1.8-1-2.9-.1-.2-.8-1-.8-2.3v-65.8h-4.2c-1 4.5-2 5.2-3.5 6.8-1.5 1.6-3.3 1-5.6 1-2 0-5.5-2-10.4-4.5a67.5 67.5 0 00-30.3-8.4 48.5 48.5 0 00-37.6 16 56 56 0 00-14.6 43.4h-13.5v2.2h3.9c2.5 0 4.9 1.5 7.1 3.3a9.4 9.4 0 013 5c.7 2.5.7 7.9.7 15.6v48.5H125v-48.5c0-7.4 1.2-12.4 1.8-14.8.6-2.4 2.1-4.8 3.8-6 2.2-1.7 5-3 7.5-3h1.6v-2.3h-44v2.2h4.5c2.5 0 4.9 1.5 7.2 3.3 1.6 1.3 2 3.2 2.5 5 .7 2.5.4 7.9.4 15.6v98c0 9 0 16-1.2 18.4-2 3.7-4.5 6.8-9 6.8h-4.5v4.5h44.1v-4.5h-1.6c-2.5 0-4.9-2.2-7.1-4a12.8 12.8 0 01-4.1-5.4c-.7-2.5-1.9-8.2-1.9-15.9V249h50.4v42.6c0 9.1-.3 16.2-1.6 18.5-2 3.7-4.9 6.8-9.2 6.8h-3.9v4.5h44.4c8.5 4.5 14.1 3.6 16.9 4.1 4.5 1 9.4.7 14.6.7 16.5 0 30-6.1 40.6-17.5a56 56 0 0015.5-35.1l14.6 45.5h3l37-121.8c2.1-7 3.1-12.7 5.9-16.1 1.9-2.3 5-4.3 7-5.2v-1.6h-29.4z" fill-rule="nonzero"/><path d="M273.9 224a265.6 265.6 0 00-34.3-24c-20.5-12.7-33.4-23-38.9-30.6-3.8-5.3-5.7-11-5.7-17.4 0-8.3 3-15.7 9-22.2s13.6-9.7 22.7-9.7c8.1 0 16 2.4 23.5 7.2a51.6 51.6 0 0117.5 20.7c3.3 6.6 5.7 17.3 7.4 26.4h-26.2v1.6a18 18 0 018.6 2.3c2 1.3 4 3 5.3 5.1.8 1.4 2.5 5.3 4.5 11.6l11 33.8a57 57 0 00-4.4-4.7m-14 79.2a34.1 34.1 0 01-26 10.2 53.2 53.2 0 01-43.7-23.7v-86.5c2 .9 2.2 1.7 3.1 2.6 6.5 6 17.6 13.9 32.9 23.8 15.3 10 24.8 16.5 28.2 19.6a45 45 0 0111.4 14.6 36.7 36.7 0 013.6 15.5c0 9.2-3.1 17.2-9.5 24m71-129v1.6l1 .3c3.7.8 6.1 2 7.7 4a9 9 0 012.2 5.7c0 3.2-1.3 8.8-3.7 17L313 285.2l-27-83.4c-2.5-7.4-3.3-14.1-3.8-17.6-.2-1.5-.8-1.8-1-2.9-.1-.2-.8-1-.8-2.3v-65.8h-4.2c-1 4.5-2 5.2-3.5 6.8-1.5 1.6-3.3 1-5.6 1-2 0-5.5-2-10.4-4.5a67.5 67.5 0 00-30.3-8.4 48.5 48.5 0 00-37.6 16 56 56 0 00-14.6 43.4h-13.5v2.2h3.9c2.5 0 4.9 1.5 7.1 3.3a9.4 9.4 0 013 5c.7 2.5.7 7.9.7 15.6v48.5H125v-48.5c0-7.4 1.2-12.4 1.8-14.8.6-2.4 2.1-4.8 3.8-6 2.2-1.7 5-3 7.5-3h1.6v-2.3h-44v2.2h4.5c2.5 0 4.9 1.5 7.2 3.3 1.6 1.3 2 3.2 2.5 5 .7 2.5.4 7.9.4 15.6v98c0 9 0 16-1.2 18.4-2 3.7-4.5 6.8-9 6.8h-4.5v4.5h44.1v-4.5h-1.6c-2.5 0-4.9-2.2-7.1-4a12.8 12.8 0 01-4.1-5.4c-.7-2.5-1.9-8.2-1.9-15.9V249h50.4v42.6c0 9.1-.3 16.2-1.6 18.5-2 3.7-4.9 6.8-9.2 6.8h-3.9v4.5h44.4c8.5 4.5 14.1 3.6 16.9 4.1 4.5 1 9.4.7 14.6.7 16.5 0 30-6.1 40.6-17.5a56 56 0 0015.5-35.1l14.6 45.5h3l37-121.8c2.1-7 3.1-12.7 5.9-16.1 1.9-2.3 5-4.3 7-5.2v-1.6h-29.4zM123.6 382.7L99.7 351v23.4c0 2 .5 3.4 1.3 4.1.9.7 1.8 1.1 3 1.1h1.3v2.2h-14v-2.2h.6c1.8 0 3.1-.4 3.8-1.2.7-.7 1-2 1-4v-27.6l-.6-.8c-.8-1-1.4-1.7-2-2-.4-.2-1.2-.4-2.2-.4h-.6v-2.2h13.8l17.2 23.3v-15.3c0-2.8-.5-4-.8-4.4-.8-1-2-1.4-3.8-1.4h-.5l-.2-.6v-1.6h13.1v2.1h-.4a8 8 0 00-3 .8c-.4.3-.7.7-1 1.4-.2.7-.4 2-.4 3.7v33.3h-1.7z" fill="#fff" fill-rule="nonzero"/><path d="M130.6 340.8h-14.1v3.3h1.2c1.6 0 2.7.4 3.4 1.2.2.4.7 1.4.7 4.1v13.7l-16.2-21.9-.3-.4H90.8v3.3h1c1.2 0 1.8.3 2.1.5.4.1.9.6 1.7 1.7l.6.8v27.3c0 1.7-.3 3-.9 3.6-.6.7-1.8 1-3.4 1h-1v3.4h15V379h-2a4 4 0 01-2.6-1c-.9-.6-1-2.3-1-3.6v-21.8l22.8 30.2.3.5h2.5v-33.9c0-2.1.1-3 .3-3.5.2-.5.5-.9.8-1.1.2-.1.8-.4 2.7-.7l1-.1v-3.2zm-1 1.1v1.1c-1.6.2-2.6.5-3.1.8-.5.4-1 1-1.3 1.7-.3.7-.4 2-.4 3.9v32.7h-1l-24.6-32.7v25c0 2.3.5 3.8 1.5 4.6a5 5 0 003.2 1.2h1v1h-13v-1c2 0 3.4-.5 4.2-1.4.8-.8 1.1-2.3 1.1-4.4v-27.7l-.7-1c-.8-1.1-1.5-1.8-2-2.1-.7-.4-1.5-.6-2.6-.6v-1h13l18 24.3v-16.9c0-2.4-.4-4-1-4.8-.9-1-2.2-1.6-4.2-1.6h-.2v-1h12" fill-rule="nonzero"/><path d="M131.5 381.8v-2.2h1.7c1 0 1.7-.2 2.3-.5.4-.3.6-.6.8-1.2.1-.1.3-.8.3-3.4v-25.8l-.1-3.2c-.2-.5-.4-1-.8-1.2a4 4 0 00-2.5-.7h-1.7v-2.2H163V354h-2l-.1-.4c-.5-2.8-1.2-4.7-2.1-6-.9-1-2.1-2-3.7-2.5-1-.3-2.8-.4-5.5-.4h-3.3v14.8h.2c2.2 0 3.7-.7 4.6-2 1-1.6 1.6-3.8 2-6.7v-.6h2v21.8h-2v-.5c-.3-2.2-.7-4-1.4-5.4a5.7 5.7 0 00-2.2-2.6c-.7-.4-1.8-.6-3.2-.7v10.5c0 2.8.2 3.6.2 3.8.2.4.4.7.8 1 .2 0 .8.3 2 .3h2.1c3.3 0 6-.8 8-2.4a14 14 0 004.2-7.5v-.4h2l-1.7 13.6h-32.5z" fill="#fff" fill-rule="nonzero"/><path d="M163.6 340.8h-32.7v3.3h2.3c1 0 1.7.2 2.2.6.3.3.5.6.6 1v28.8l-.1 3.2-.6.9c-.6.3-1.2.4-2.1.4h-2.3v3.4h33.5l.2-1 1.6-12.5.2-1.3h-3l-.2.8c-.9 3.3-2.2 5.7-4 7.2a11.6 11.6 0 01-7.6 2.3h-2.2c-1.2 0-1.6-.2-1.7-.3-.3-.1-.5-.3-.6-.6l-.1-3.6v-9.9c1 .1 1.8.3 2.4.6.7.4 1.4 1.2 2 2.4.6 1.3 1 3 1.2 5.1l.1 1h3v-22.8h-3v1c-.4 2.8-1 5-1.9 6.4-.8 1.2-2 1.8-3.8 1.9v-13.8h2.7c3.3 0 4.7.3 5.3.5 1.5.5 2.7 1.3 3.5 2.4.8 1 1.5 3 2 5.6l.1.9h3v-14zm-1 1.1v11.7h-1c-.6-2.9-1.3-5-2.3-6.2a8.1 8.1 0 00-4-2.7c-1-.3-2.9-.5-5.6-.5h-3.8v16h.7c2.3 0 4-.8 5-2.4 1.1-1.5 1.8-3.8 2-6.9h1v20.6h-1c-.2-2.2-.6-4-1.3-5.5a6.1 6.1 0 00-2.4-2.9c-1-.5-2.3-.7-4-.7v11c0 2.2 0 3.5.3 4 .1.5.4.9 1 1.2.4.3 1.1.5 2.2.5h2.2c3.4 0 6-.9 8.1-2.6 2.1-1.7 3.6-4.3 4.5-7.8h1l-1.7 12.5H132v-1h1.2c1 0 2-.2 2.6-.6.4-.3.8-.8 1-1.4.2-.5.3-1.7.3-3.7v-25.8l-.1-3.3c-.2-.7-.5-1.2-1-1.6-.7-.5-1.6-.8-2.8-.8H132v-1h30.5" fill-rule="nonzero"/><path d="M187.4 382.7c-3.2 0-5.7-.5-7.5-1.4-2.5-1.3-4.2-3-5.2-5s-1.6-4.7-1.6-8V349c0-2.8-.1-3.7-.3-4-.1-.4-.5-.8-1-1-.3-.2-1-.4-2.6-.4h-.8v-2.2h19.9v2.2h-1.5c-1.6 0-2.3.2-2.6.4-.5.2-.8.6-1 1 0 .3-.2 1.2-.2 4v19.2c0 3.5.2 5.7.7 6.8a6 6 0 002.2 2.6 7 7 0 004 1c1.9 0 3.5-.4 4.8-1.3a8.1 8.1 0 002.9-3.7c.6-1.6 1-4.5 1-8.6v-16c0-1.7-.2-2.8-.5-3.5-.3-.7-.6-1.1-1-1.3-.8-.4-1.8-.6-3.2-.6h-.5v-2.2H207v2.2h-1.3a4 4 0 00-2.2.5c-.6.4-1 1-1.3 1.8-.1.4-.3 1.2-.3 3.1v15c0 4.6-.3 8-.9 10-.6 2.2-2 4.2-4.3 6a14.7 14.7 0 01-9.3 2.7" fill="#fff" fill-rule="nonzero"/><path d="M207.5 340.8h-14.7v3.3h1c1.4 0 2.4.2 3 .6.3.1.6.5.8 1 .2.4.4 1.3.4 3.3v16c0 4-.3 6.8-1 8.4a7.5 7.5 0 01-2.6 3.4 7.7 7.7 0 01-4.5 1.3c-1.5 0-2.8-.3-3.7-1-1-.6-1.7-1.4-2-2.3-.4-.7-.7-2.4-.7-6.6V349c0-3 .2-3.6.2-3.8l.7-.7c.2-.1.7-.4 2.4-.4h2v-3.3h-21v3.3H169.3c1.6 0 2.2.3 2.4.4.4.2.6.4.8.7 0 .2.2.8.2 3.8v19.2c0 3.5.5 6.3 1.6 8.4 1 2.1 2.9 3.9 5.4 5.2 2 1 4.5 1.5 7.8 1.5 4 0 7.2-1 9.6-2.8 2.4-1.9 3.9-4 4.5-6.3.6-2.1.9-5.5.9-10.3V349c0-1.9.2-2.6.3-3 .2-.6.5-1 1-1.4.5-.3 1.2-.5 2-.5h1.8v-3.3zm-1 1.1v1.1h-.8c-1 0-1.8.2-2.5.7-.7.4-1.2 1-1.5 2-.2.6-.3 1.7-.3 3.3v15c0 4.5-.3 7.9-.9 10-.6 2-2 3.9-4.1 5.6a14.1 14.1 0 01-9 2.6 16 16 0 01-7.3-1.4 11 11 0 01-5-4.8c-1-1.9-1.4-4.5-1.4-7.8V349c0-2.3-.2-3.7-.4-4.2-.2-.6-.6-1-1.2-1.3-.5-.3-1.5-.5-3-.5h-.2v-1h18.9v1h-1c-1.4 0-2.4.2-2.9.5s-.9.7-1.1 1.3c-.3.6-.4 2-.4 4.2v19.2c0 3.6.3 5.9.8 7 .5 1.2 1.3 2.1 2.4 2.9 1.1.7 2.6 1.1 4.3 1.1 2 0 3.6-.5 5-1.4 1.4-1 2.5-2.3 3.2-4 .6-1.7 1-4.6 1-8.8v-16c0-1.8-.2-3-.5-3.8-.4-.7-.8-1.2-1.3-1.5-.8-.5-2-.7-3.4-.7v-1h12.6" fill-rule="nonzero"/><path d="M244.6 382.7l-8.7-24.4-9.6 24.4h-1.7l-12.2-32.4c-1.4-4-2.1-5.3-2.4-5.8-.4-.5-1.1-.8-2.1-1h-.5v-2.1h16.9v2.1h-.5c-1.5.1-2 .4-2.3.6-.3.2-.4.5-.4 1 0 .4.2 1.5 1.3 4.4l6.6 17.8 5.2-13.4-1.4-4c-.8-2.2-1.5-3.7-1.9-4.5-.4-.6-.8-1.1-1.3-1.4-.5-.3-1.3-.4-2.4-.4h-.5v-2.2h18.7v2.2h-.5a9 9 0 00-2.5.3c-.2 0-.5.2-.6.4-.2.3-.2.5-.2.8 0 .2 0 .9 1.1 3.9l6.2 17.2 5.5-15.5c.6-1.7 1-2.8 1.1-3.5l.2-1.6c0-.6-.2-1-.6-1.4-.2-.3-1-.6-2.5-.6h-.5v-2.2h10.5v2.1h-.5c-.6.1-1 .3-1.5.6a4 4 0 00-1 1.4l-1.7 4.4-11.6 32.8h-1.7z" fill="#fff" fill-rule="nonzero"/><path d="M263.1 340.8h-11.6v3.3h1c1.7 0 2.2.4 2.3.5.2.2.4.4.4 1 0 .5 0 1-.2 1.5l-1.1 3.4-5 14.1-5.7-15.8a22 22 0 01-1.1-3.7l.1-.4.4-.3a8 8 0 012.3-.3h1v-3.3h-19.7v3.3h1c1.2 0 1.8.2 2.1.4.4.2.8.6 1.2 1.2.4.7 1 2.2 1.8 4.4l1.3 3.8-4.5 11.9-6.2-16.5c-1.2-3-1.3-4-1.3-4.3 0-.2 0-.3.3-.5 0 0 .4-.3 1.9-.4h1v-3.3h-18v3.2l1 .1c.9.1 1.4.4 1.7.8.3.3 1 1.5 2.5 5.6l12 32 .2.8h2.4l.3-.7 9-22.8 8 22.7.3.8h2.5l.3-.8 11.4-32.4 1.6-4.4c.3-.5.6-1 1-1.2.2-.2.7-.3 1.1-.4h1v-3.3zm-1 1.1v1.1c-.7 0-1.3.3-1.8.6-.4.4-.8.9-1.2 1.6l-1.7 4.5-11.4 32.4h-1l-9.1-25.3-10 25.3h-1l-12-32a36 36 0 00-2.5-6c-.5-.6-1.3-1-2.5-1.1v-1h15.8v1c-1.2 0-2 .2-2.5.6-.4.4-.6.9-.6 1.4 0 .8.4 2.3 1.3 4.7l7.1 19 5.8-14.8-1.5-4.2c-.9-2.3-1.5-3.8-2-4.6-.4-.7-1-1.3-1.5-1.6-.6-.3-1.4-.5-2.6-.5v-1H245v1a9 9 0 00-2.6.3l-1 .7a2 2 0 00-.3 1c0 .5.5 1.9 1.3 4.2l6.6 18.6 6-16.9 1.1-3.5a8 8 0 00.2-1.8c0-.8-.2-1.4-.7-1.9-.5-.4-1.5-.7-3-.7v-1h9.6" fill-rule="nonzero"/><path d="M263.1 381.8v-2.2h1.8c1 0 1.7-.2 2.2-.5.4-.3.7-.6.9-1.2 0-.1.3-.8.3-3.4v-25.8c0-2.6-.2-3.4-.3-3.6-.1-.4-.5-.7-1-1a4 4 0 00-2.1-.5H263v-2.2h20.1v2.2h-1.7c-1 0-1.7.1-2.3.5-.4.2-.6.6-.9 1.1 0 .2-.2.9-.2 3.5v25.8c0 2.5.1 3.3.2 3.5.2.4.5.8 1 1.1.6.3 1.3.5 2.2.5h1.7v2.2h-20z" fill="#fff" fill-rule="nonzero"/><path d="M283.8 340.8h-21.2v3.3h2.3c.8 0 1.4.2 1.9.4.2.2.6.5.7.8 0 .1.2.7.2 3.4v25.8c0 2.5-.1 3.1-.2 3.2-.1.4-.3.7-.6.9-.5.3-1.2.4-2 .4h-2.3v3.4h21.2V379h-2.3c-.8 0-1.5-.1-1.9-.4-.4-.2-.7-.5-.8-.8 0 0-.2-.7-.2-3.3v-25.8c0-2.6.2-3.1.2-3.2.2-.5.4-.7.6-.9.6-.3 1.2-.5 2.1-.5h2.3v-3.3zm-1 1.1v1.1h-1.3c-1 0-1.9.2-2.5.6-.5.3-.9.7-1.1 1.4-.2.5-.3 1.7-.3 3.7v25.8c0 2 0 3.3.3 3.8.2.5.6 1 1.2 1.3.6.4 1.4.6 2.4.6h1.2v1h-19v-1h1.2c1 0 1.9-.2 2.5-.6.5-.3.8-.8 1-1.4.3-.5.4-1.7.4-3.7v-25.8c0-2-.1-3.3-.3-3.8-.2-.5-.6-1-1.2-1.3-.6-.4-1.4-.6-2.4-.6h-1.3v-1h19.1" fill-rule="nonzero"/><path d="M284.6 381.8v-2.2h1.7c1 0 1.7-.2 2.3-.5.4-.3.6-.6.8-1.2.1-.1.3-.8.3-3.4v-25.8l-.1-3.2c-.2-.5-.4-1-.8-1.2a4 4 0 00-2.5-.7h-1.7v-2.2H316V354h-2v-.4c-.5-2.8-1.2-4.7-2.1-6-.9-1-2.1-2-3.7-2.5-1-.3-2.8-.4-5.5-.4h-3.3v14.8h.2c2.2 0 3.7-.7 4.6-2 1-1.6 1.6-3.8 2-6.7v-.6h2v21.8h-2v-.5c-.3-2.2-.7-4-1.4-5.4a5.7 5.7 0 00-2.2-2.6c-.7-.4-1.8-.6-3.2-.7v10.5c0 2.8.2 3.6.2 3.8.2.4.4.7.8 1 .2 0 .8.3 2 .3h2.1c3.3 0 6-.8 8-2.4 1.9-1.7 3.3-4.2 4.2-7.5v-.4h2l-1.7 13.6h-32.5z" fill="#fff" fill-rule="nonzero"/><path d="M316.7 340.8H284v3.3h2.3c1 0 1.7.2 2.2.6.3.3.5.6.6 1v28.8l-.1 3.2-.6.9c-.6.3-1.2.4-2.1.4H284v3.4h33.5l.2-1 1.6-12.5.2-1.3h-3l-.2.8c-.9 3.3-2.2 5.7-4.1 7.2a11.5 11.5 0 01-7.5 2.3h-2.2c-1.2 0-1.6-.2-1.7-.3-.3-.1-.5-.3-.6-.6l-.1-3.6v-9.9c1 .1 1.8.3 2.4.6.7.4 1.4 1.2 2 2.4.6 1.3 1 3 1.2 5.1l.1 1h3v-22.8h-3v1c-.4 2.8-1 5-1.9 6.4-.8 1.2-2 1.8-3.8 1.9v-13.8h2.7c3.3 0 4.7.3 5.3.5 1.5.5 2.7 1.3 3.5 2.4.8 1 1.5 3 2 5.6l.1.9h3v-14zm-1 1.1v11.7h-1c-.6-2.9-1.3-5-2.3-6.2a8 8 0 00-4-2.7c-1-.3-2.9-.5-5.6-.5H299v16h.7c2.3 0 4-.8 5-2.4 1.1-1.5 1.8-3.8 2-6.9h1v20.6h-1c-.2-2.2-.6-4-1.3-5.5a6.1 6.1 0 00-2.4-2.9c-1-.5-2.3-.7-4-.7v11c0 2.2 0 3.5.3 4 .1.5.4.9 1 1.2.4.3 1.1.5 2.2.5h2.2c3.4 0 6-.9 8.1-2.6 2.1-1.7 3.6-4.3 4.5-7.8h1l-1.7 12.5h-31.5v-1h1.2c1 0 2-.2 2.6-.6.4-.3.8-.8 1-1.4.2-.5.3-1.7.3-3.7v-25.8l-.1-3.3c-.2-.7-.5-1.2-1-1.6-.7-.5-1.6-.8-2.8-.8h-1.2v-1h30.5" fill-rule="nonzero"/><path d="M335.9 374.8c0 2.1.1 2.7.2 2.8 0 .2.2.4.5.6.4.2 1 .3 1.8.3 2.9 0 5-1 6.5-3 2-3 3-7.5 3-13.6 0-4.9-.6-8.9-2-11.8a9.3 9.3 0 00-4.3-4.6c-1.1-.5-3-.8-5.7-.8v30.1zm-15 7v-2.2h1.8c1 0 1.7-.2 2.1-.5.5-.3.9-.7 1-1.2.1 0 .3-.7.3-3.4v-25.8c0-2.6-.2-3.4-.3-3.6-.1-.4-.5-.7-1-1-.5-.4-1.2-.5-2.1-.5h-1.8v-2.2h16.9c4.4 0 8 .6 10.7 2 3.4 1.5 6 4 7.7 7.3 1.7 3.2 2.5 7 2.5 11 0 2.8-.4 5.5-1.2 7.8a16.4 16.4 0 01-8 9.7 23.8 23.8 0 01-11.7 2.6h-16.9z" fill="#fff" fill-rule="nonzero"/><path d="M338.4 378c-.9 0-1.3-.2-1.6-.3a.5.5 0 01-.2-.3s-.2-.6-.2-2.6v-29.5c2.9 0 4.3.4 5 .8 1.6.7 3 2.2 4 4.3 1.4 2.8 2 6.7 2 11.5 0 6-1 10.4-3 13.2-1.3 2-3.3 2.9-6 2.9m-.6-37.2h-17.4v3.3h2.3c.8 0 1.5.2 1.9.4.4.3.6.6.7.8 0 .1.3.7.3 3.3v26a15 15 0 01-.2 3.1 2 2 0 01-.8 1c-.3.1-.8.3-2 .3h-2.2v3.4h17.4a24.1 24.1 0 0012-2.6 17 17 0 008.2-10 24 24 0 001.3-8.1c0-4.2-1-8-2.7-11.3-1.8-3.4-4.4-6-7.8-7.6-2.8-1.3-6.5-2-11-2m.6 38.3a8 8 0 006.9-3.3c2.1-3 3.2-7.6 3.2-13.9 0-5-.7-9-2.2-12a9.8 9.8 0 00-4.5-4.9c-1.2-.6-3.3-.8-6.1-.8h-.3v30.6c0 1.7 0 2.6.2 3 .1.4.4.7.7.9.5.2 1.2.4 2.1.4m-.6-37.2c4.4 0 7.9.7 10.5 2a16 16 0 017.4 7c1.7 3.2 2.5 6.8 2.5 10.8 0 2.8-.4 5.3-1.2 7.6a15.8 15.8 0 01-7.7 9.4 23.1 23.1 0 01-11.5 2.5h-16.3v-1h1.2c1 0 1.9-.2 2.4-.6.6-.3 1-.8 1.3-1.4.1-.4.2-1.7.2-3.7v-25.9c0-2 0-3.2-.3-3.7-.2-.5-.6-1-1.2-1.3-.6-.4-1.4-.6-2.4-.6h-1.2v-1h16.3" fill-rule="nonzero"/><path d="M136.1 461.3v-1.8l.2-.2a219 219 0 0020.4-29c2.4-5 3.6-9.8 3.6-14.4 0-3.3-1-6.1-2.9-8.3a8.9 8.9 0 00-7-3.3c-4.5 0-8 2.4-10.5 7.4l-.2.4-2.6-1 .2-.5a28.7 28.7 0 017.7-14.4 17.5 17.5 0 0127.2 4.5c1.6 2.9 2.3 5.6 2.3 8 0 4.5-1.1 9.1-3.4 13.7-3 6-9.6 14.3-19.5 24.8h12.2c4 0 5.7-.2 6.3-.4 1-.3 1.7-.7 2.2-1.4.6-.6 1.5-2.1 2.5-4.3l.1-.3h2.6l-3.7 20.5h-37.7z" fill="#fff" fill-rule="nonzero"/><path d="M157 391a18 18 0 00-12.4 4.8 29.2 29.2 0 00-7.8 14.6l-.3 1 1 .4 1.6.7.9.3.4-.9c2.4-4.7 5.7-7 10-7 2.7 0 4.8 1 6.6 3 1.9 2.2 2.7 4.8 2.7 8 0 4.5-1.1 9.3-3.5 14a219 219 0 01-20.3 29l-.3.4v2.6h38.7l.1-1 3.5-19.4.3-1.3h-3.6l-.3.6c-1.2 2.7-2 3.8-2.3 4.2-.5.6-1.2 1-2 1.2-.6.2-2.2.4-6.2.4h-11a119 119 0 0018.7-23.9 31 31 0 003.6-14c0-2.5-.8-5.3-2.4-8.3A17.8 17.8 0 00157 391m0 1.1a16.3 16.3 0 0114.8 9c1.5 2.7 2.2 5.3 2.2 7.7 0 4.4-1.1 8.8-3.4 13.4-3.1 6-9.9 14.6-20.3 25.6h13.5a29 29 0 006.5-.5c1-.3 1.8-.8 2.4-1.5.7-.7 1.5-2.2 2.6-4.5h1.6l-3.5 19.5h-36.7v-1.1a218.2 218.2 0 0020.5-29.2c2.4-5 3.6-9.9 3.6-14.6 0-3.5-1-6.4-3-8.7a9.3 9.3 0 00-7.3-3.4c-4.7 0-8.4 2.5-11 7.6l-1.7-.6a28 28 0 017.5-14.1A17 17 0 01157 392" fill-rule="nonzero"/><path d="M205 396c-1.3 0-2.2.4-2.9 1.1-1 1-1.7 3-2.1 5.8a403.4 403.4 0 00.3 49.6c.4 2.2 1 3.7 1.8 4.4.8.7 1.8 1 3 1 1.5 0 2.5-.4 3.1-1.3 1.2-1.7 2-4.5 2.1-8.3l.2-21.3c0-11.9 0-18.6-.2-20.5-.3-4.5-1-7.5-2-9-.7-1-1.8-1.4-3.4-1.4m.1 66.6c-3 0-5.9-.8-8.4-2.5a23.2 23.2 0 01-6.6-7.3 36.7 36.7 0 01-3.6-9.1 68.4 68.4 0 01.9-36.2c1.6-5.1 4-9.1 7.3-11.9a16 16 0 0110.4-4.2 16 16 0 0110.5 4.2c3.2 2.7 5.6 6.4 7.1 11a65 65 0 013.1 20.4 66 66 0 01-2.6 19 27 27 0 01-4.3 9 22.3 22.3 0 01-6.2 5.5c-2.3 1.4-4.8 2.1-7.6 2.1" fill="#fff" fill-rule="nonzero"/><path d="M205.2 457.4c-1.2 0-2-.3-2.7-1-.5-.3-1.2-1.4-1.7-4a405.4 405.4 0 01-.3-49.4c.4-2.7 1-4.5 2-5.5.6-.6 1.4-.8 2.4-.8 1.4 0 2.4.3 3 1.1.6 1 1.5 3.3 2 8.7V427l-.1 21.4c-.2 3.5-.8 6.2-2 7.9-.5.7-1.4 1.1-2.6 1.1M205 391c-3.8 0-7.5 1.4-10.8 4.3-3.4 2.8-5.9 6.9-7.5 12.1a69 69 0 00-.9 36.5c1 3.9 2.3 7 3.7 9.3 2 3.2 4.2 5.7 6.7 7.4 2.6 1.8 5.6 2.7 8.8 2.7a15 15 0 007.8-2.2c2.3-1.4 4.5-3.3 6.3-5.7 1.8-2.3 3.3-5.4 4.4-9.1a66.4 66.4 0 002.7-19.2c0-7.4-1-14.4-3.2-20.6-1.5-4.7-4-8.5-7.2-11.3-3.4-2.8-7-4.2-10.8-4.2m0 67.5c1.6 0 2.8-.5 3.5-1.6 1.3-1.8 2-4.7 2.3-8.5l.1-21.4-.1-20.6c-.4-4.6-1-7.7-2.3-9.3-.7-1-2-1.6-3.7-1.6-1.3 0-2.4.4-3.1 1.2-1.2 1.2-2 3.2-2.3 6.1a400.9 400.9 0 00.3 49.8c.5 2.4 1.1 4 2 4.7.8.8 2 1.2 3.4 1.2m-.1-66.4c3.6 0 7 1.3 10.1 4 3.2 2.7 5.5 6.2 7 10.7 2 6.2 3 13 3 20.3 0 6.7-.8 13-2.6 18.8-1 3.6-2.4 6.5-4.2 8.8-1.8 2.3-3.8 4.1-6 5.5a14 14 0 01-7.3 2c-3 0-5.8-.9-8.2-2.5-2.4-1.7-4.6-4-6.4-7.1a36 36 0 01-3.6-9 67.6 67.6 0 01.9-35.8c1.5-5 4-9 7.1-11.7 3.2-2.7 6.6-4 10.2-4" fill-rule="nonzero"/><path d="M235.2 461.3v-3h2.2c2.6 0 4.4-.2 5.4-.9 1-.5 1.8-1.4 2.1-2.4.3-.7.6-2.7.6-7.9v-34.9a22 22 0 00-.4-5.6c-.2-.7-.7-1.2-1.4-1.7-.6-.5-1.4-.7-2.3-.7-1.5 0-3.3.5-5.5 1.5l-.4.2-1.3-2.8 23.6-11.6h2.1v55.6c0 4.1.2 6.7.5 7.8.3 1 1 1.8 1.9 2.5 1 .6 2.6 1 4.9 1h2v3h-34z" fill="#fff" fill-rule="nonzero"/><path d="M260.5 391H257.4l-23 11.4-1 .5.6 1 .8 1.8.4 1 1-.5a13 13 0 015.2-1.5 3.3 3.3 0 013.2 2.1c.1.3.3 1.4.3 5.4v35c0 5-.2 7-.5 7.6-.3 1-.9 1.6-1.8 2.1-.7.4-2.1.9-5.2.9h-2.7v4.1h35v-4.1h-2.5c-2.7 0-4-.5-4.6-1a4 4 0 01-1.7-2.1c-.2-.7-.4-2.6-.4-7.6V391zm-1.1 1.1v55c0 4.2.2 6.8.5 8a5 5 0 002.1 2.7c1.1.8 2.8 1.1 5.2 1.1h1.4v1.9h-32.9v-1.9h1.7a12 12 0 005.7-1 5 5 0 002.3-2.7c.4-1.1.6-3.8.6-8v-35c0-3-.1-5-.4-5.8-.3-.8-.8-1.4-1.6-2-.7-.5-1.6-.8-2.6-.8-1.5 0-3.4.5-5.7 1.6l-.8-1.8 23-11.3h1.5" fill-rule="nonzero"/><path d="M300.3 434.9v-24.3l-16.6 24.3h16.6zm0 26.4v-15h-22.6v-11l29.9-43.8h6.4V435h5.7v11.4H314v15h-13.7z" fill="#fff" fill-rule="nonzero"/><path d="M284.7 434.3l15-22v22h-15zm29.8-43.3h-7.2l-.3.4-29.7 43.3-.2.4v11.7h22.6V462h14.8v-15h5.7v-12.6h-5.7V391zm-31.8 44.4h18.1V409l-18.1 26.5m30.8-43.3v43.3h5.7v10.3h-5.7v15h-12.7v-15h-22.6v-10.3l29.6-43.3h5.7z" fill-rule="nonzero"/><path d="M207 493c0-1-.2-1.6-.3-1.8-.3-.7-.8-1.3-1.3-1.7a3 3 0 00-1.8-.6c-1 0-1.9.4-2.6 1.2-.7.8-1.1 1.7-1.3 3h7.3zm-2.8 15.4c-2.3 0-4.4-1-6-3-1.7-2-2.5-4.6-2.5-7.8 0-3.5.8-6.3 2.5-8.3 1.7-2 4-3 6.5-3a7 7 0 015.4 2.3 9 9 0 012.2 6.3v.5h-12.7c0 2.6.7 4.6 1.8 6 1.3 1.6 2.7 2.3 4.4 2.3 1 0 2-.3 2.8-1 .8-.6 1.5-1.7 2-3.3l.3-.7 1.4 1v.4c-.3 2-1.2 4-2.6 5.7a6.9 6.9 0 01-5.5 2.6" fill="#fff" fill-rule="nonzero"/><path d="M200.3 492.5c.2-.8.6-1.5 1-2a3 3 0 012.3-1c.5 0 1 .1 1.5.5.5.3.8.8 1 1.4l.3 1h-6zm4.4-6.8c-2.7 0-5 1-6.8 3.2a13 13 0 00-2.7 8.7c0 3.4.8 6.2 2.6 8.2 1.8 2 4 3.2 6.4 3.2 2.4 0 4.3-1 5.9-2.9 1.5-1.7 2.4-3.7 2.7-6l.1-.7-.6-.4-.6-.4-1-.7-.5 1.3a6.9 6.9 0 01-2 3.1c-.6.6-1.5.9-2.4.9-1.5 0-2.8-.7-4-2.1-1-1.3-1.5-3-1.7-5h12.7v-1.2c0-2.8-.8-5-2.3-6.7a7.6 7.6 0 00-5.8-2.5m-5.6 8h8.5c-.1-1.4-.2-2.2-.5-2.8-.3-.8-.8-1.4-1.5-1.9-.6-.4-1.3-.7-2-.7a4 4 0 00-3 1.4c-.9 1-1.4 2.3-1.5 4m5.6-6.9c2 0 3.7.7 5 2.2 1.4 1.5 2 3.4 2 5.9h-12.6c0 3 .6 5.2 2 6.9 1.3 1.7 2.9 2.5 4.7 2.5 1.2 0 2.2-.4 3.1-1a8 8 0 002.2-3.7l.7.4c-.3 2-1.1 3.8-2.5 5.4a6.3 6.3 0 01-5 2.4c-2.3 0-4.2-1-5.7-2.8a11.2 11.2 0 01-2.4-7.4c0-3.4.8-6 2.4-8a7.6 7.6 0 016.1-2.8" fill-rule="nonzero"/><path d="M218 508.4c-.7 0-1.4-.3-1.9-.9a3 3 0 01-.8-2c0-1 .3-1.6.8-2.2.6-.6 1.2-.8 2-.8.7 0 1.4.3 2 .8.4.6.7 1.3.7 2.1a3 3 0 01-.8 2.1c-.5.6-1.2.9-2 .9" fill="#fff" fill-rule="nonzero"/><path d="M218 501.9a3 3 0 00-2.3 1c-.6.7-1 1.5-1 2.5s.4 1.8 1 2.5a3 3 0 002.4 1 3 3 0 002.3-1c.6-.7 1-1.5 1-2.5s-.4-1.8-1-2.5a3 3 0 00-2.3-1m0 1.1a2 2 0 011.5.7c.5.5.7 1 .7 1.7s-.2 1.3-.7 1.7a2 2 0 01-1.5.7 2 2 0 01-1.6-.7c-.5-.4-.7-1-.7-1.7s.2-1.2.7-1.7a2 2 0 011.6-.7" fill-rule="nonzero"/><path d="M237.7 508.5l-10.3-25.7-1-2.2a3 3 0 00-1-.9 5 5 0 00-1.9-.4h-.5v-2h12.2v2h-.5c-1.5.1-2 .4-2.1.5a1 1 0 00-.4.9c0 .4.1 1.3.9 3.1l6.4 16 6-15.8c.7-2 .8-2.8.8-3.2 0-.3 0-.5-.4-.8-.3-.3-.8-.5-1.7-.7l-.7-.1v-1.9h9.4v1.9h-.4c-.9.2-1.5.5-2 1-.6.6-1.2 1.6-1.7 3l-9.6 25.3h-1.5z" fill="#fff" fill-rule="nonzero"/><path d="M253.4 476.8H243v2.9l1 .1h.2l1.5.6.2.4c0 .2 0 1-.8 3l-5.5 14.5-6-14.7a8.9 8.9 0 01-.8-3c0-.1 0-.2.2-.3 0 0 .3-.3 1.9-.5h1v-3h-13.3v3h1c.7 0 1.2.2 1.6.4l.8.7c0 .1.3.4 1 2.2l10.2 25.2.3.7h2.1l.3-.7 9.5-25a8 8 0 011.6-2.8c.3-.3.9-.5 1.7-.7l.8-.2v-2.8zm-1 1.1v.8c-1 .2-1.7.5-2.2 1a9 9 0 00-1.9 3.2l-9.5 25h-.7l-10.2-25.3-1.1-2.4c-.4-.4-.8-.8-1.3-1-.5-.3-1.1-.4-2-.5v-.8h11.2v.8c-1.3.1-2.1.4-2.5.7-.3.3-.5.8-.5 1.3 0 .7.3 1.8.9 3.3l7 17.2 6.3-17c.7-1.6 1-2.8 1-3.4 0-.4-.2-.8-.6-1.2-.4-.4-1-.7-2-.8l-.3-.1v-.8h8.4" fill-rule="nonzero"/><path d="M252.7 508.4c-.7 0-1.4-.3-2-.9a3 3 0 01-.7-2c0-1 .2-1.6.8-2.2.5-.6 1.2-.8 2-.8.7 0 1.3.3 1.9.8.5.6.8 1.3.8 2.1a3 3 0 01-.8 2.1c-.6.6-1.2.9-2 .9" fill="#fff" fill-rule="nonzero"/><path d="M252.7 501.9c-.9 0-1.7.3-2.3 1-.6.7-1 1.6-1 2.5 0 1 .4 1.8 1 2.5a3.1 3.1 0 004.6 0c.7-.7 1-1.5 1-2.5s-.3-1.8-1-2.5a3 3 0 00-2.3-1m0 1.1a2 2 0 011.6.7c.4.5.6 1 .6 1.7s-.2 1.3-.6 1.7a2 2 0 01-1.6.7 2 2 0 01-1.6-.7c-.4-.4-.6-1-.6-1.7s.2-1.2.6-1.7a2 2 0 011.6-.7" fill-rule="nonzero"/></svg>
