<svg viewBox="0 0 418 438" xmlns="http://www.w3.org/2000/svg" fill-rule="evenodd" clip-rule="evenodd" stroke-linejoin="round" stroke-miterlimit="2"><path d="M234.03 1.431c-1.899.95-4.51 1.582-6.883 1.582-4.035 0-5.301 1.029-4.272 3.64.633 1.74-3.482 5.775-6.725 6.33-3.165.632-3.719 1.582-2.532 4.667.791 2.057.554 2.77-2.848 7.754-5.301 7.753-9.811 11.947-15.903 14.795-2.927 1.424-6.171 3.244-7.279 4.035-1.028.79-3.086 1.503-4.51 1.503-2.69 0-2.69 0-2.69 3.877 0 2.69-.633 4.984-2.057 7.516-2.61 4.747-2.136 6.567 2.69 9.731 4.273 2.77 12.66 12.66 15.507 18.356 1.978 3.956 5.143 13.924 7.121 22.232.712 2.927 1.424 11.235 1.661 19.384.475 15.27 1.9 26.03 4.352 33.387 4.272 12.817 12.026 27.217 18.276 33.863 1.899 2.057 2.453 3.56 3.165 9.02 1.266 9.493.237 29.985-1.662 33.782-1.266 2.453-1.424 4.114-1.028 12.5l.475 9.732-2.611.475c-1.424.317-9.02.554-16.932.554-24.289 0-40.983 1.661-51.505 5.143-7.912 2.69-16.14 4.193-25.95 4.826-7.675.474-8.862.791-11.077 2.61-4.273 3.482-5.934 5.776-9.257 12.343-11.156 22.47-24.21 43.198-27.85 44.385-1.107.317-4.114 5.776-10.047 17.96-4.668 9.652-9.653 20.412-11.077 23.893-4.668 11.314-5.696 13.371-9.178 18.277-3.48 4.826-6.487 7.437-8.623 7.437-.633 0-2.611-1.266-4.51-2.77-3.798-3.243-5.38-3.243-6.883-.079-.95 1.82-.95 2.849-.08 5.776.95 3.56.95 3.64-1.344 5.3-1.266.871-4.431 3.64-7.042 6.093-2.927 2.69-7.833 6.013-12.659 8.545C4.431 423.999 0 427.559 0 429.933c0 2.294 3.956 4.905 9.573 6.25 6.567 1.661 11.077 1.345 22.707-1.266l8.15-1.74 7.278 2.056c4.035 1.187 9.336 2.137 11.71 2.137 4.984 0 11.63-2.77 13.687-5.618 1.82-2.61 1.661-9.969-.317-14.478-1.345-3.244-1.424-3.956-.474-6.963 1.424-4.668 2.61-7.12 6.725-14.478 6.092-10.84 12.421-18.039 22.627-25.634 8.387-6.33 19.938-17.723 24.131-23.815 3.56-5.222 8.07-14.004 9.81-19.304.713-2.137 2.216-5.38 3.324-7.28 1.74-3.006 2.452-3.48 4.51-3.48 3.639.079 7.753 1.74 13.37 5.38 4.43 2.848 5.934 3.322 13.688 4.51 4.826.711 9.968 1.582 11.472 1.977 1.503.475 3.956.791 5.459.791 1.424 0 3.956.317 5.538.792 1.582.395 3.798.949 4.985 1.186 1.503.317 3.006 1.662 4.826 4.59 3.64 5.616 8.465 9.73 15.19 12.816 4.826 2.215 6.646 2.611 14.637 3.086 5.222.316 10.918.158 13.292-.317 2.294-.395 12.026-.95 21.757-1.186 16.931-.475 26.9-1.583 36.157-3.877 8.703-2.216 16.298-4.668 20.017-6.409 3.48-1.661 4.114-1.74 6.725-.79 1.582.553 5.063 1.66 7.674 2.53 2.928.871 9.415 4.51 17.802 9.97 7.2 4.668 14.478 8.86 16.219 9.336 1.74.474 4.43 1.424 5.934 2.057 7.99 3.56 14.478 4.193 19.463 1.898 2.848-1.345 3.718-2.373 6.566-7.99 3.007-6.013 3.244-6.963 3.244-12.976 0-3.877.633-8.624 1.503-11.947.87-3.085 2.137-9.494 2.849-14.24.712-4.827 2.136-10.76 3.243-13.292 3.482-8.387 2.374-29.195-2.136-41.379-1.661-4.352-4.826-7.99-13.291-15.27-2.77-2.373-5.539-5.459-6.093-6.883-.632-1.424-1.74-2.927-2.452-3.402-1.266-.633-1.424-2.057-1.424-11.71.079-10.443.158-11.155 2.294-15.27 1.266-2.373 3.323-5.537 4.51-6.962 1.266-1.424 2.294-3.402 2.294-4.51 0-1.028 1.108-4.509 2.374-7.753 2.136-5.38 2.373-6.804 2.373-14.953 0-8.624-.079-9.178-2.294-12.659-3.086-4.826-7.279-9.415-10.918-11.947-6.804-4.747-25.714-6.566-32.28-3.164-4.115 2.136-5.222 3.402-8.862 10.522-1.74 3.244-3.639 6.963-4.351 8.308-2.057 3.876-3.323 16.14-3.56 36.315l-.317 18.909-8.07-.475c-4.43-.237-10.048-1.028-12.421-1.82-2.374-.712-6.646-1.424-9.494-1.424-4.747-.079-5.618.238-10.602 3.323-2.928 1.82-5.776 3.323-6.33 3.323-.553 0-4.905-4.035-9.731-8.94l-8.703-8.861-2.61-7.912c-3.957-12.105-7.834-20.65-11.157-25.16-1.977-2.531-3.243-5.221-3.56-7.516-.316-2.215-1.582-4.826-3.323-7.12-2.848-3.64-2.927-3.877-3.402-12.817-.316-6.884-.87-10.048-2.136-12.897-.95-2.136-1.74-4.193-1.74-4.667 0-1.583-11.947-24.448-16.378-31.252-2.453-3.877-5.38-8.861-6.408-11.235-3.323-7.2-3.165-19.067.237-19.067.712 0 1.187.712 1.187 1.978 0 1.108.95 4.272 2.057 7.12 1.661 4.115 3.164 6.172 7.358 10.048 7.358 6.725 11.946 8.703 21.678 9.178 6.646.317 8.386.08 12.659-1.503 8.228-3.086 12.026-5.776 15.982-11.789 6.329-9.494 7.041-11.788 6.487-21.203-.395-7.28-.791-9.02-3.165-14.004-1.503-3.165-4.035-7.2-5.617-8.94-3.64-4.035-13.608-9.178-20.096-10.523-9.731-1.899-20.808 1.74-29.827 9.731-2.295 2.137-4.43 3.798-4.747 3.798-1.74 0 3.006-14.558 8.386-26.109 3.244-6.804 3.877-8.94 3.719-11.867-.238-3.165-.475-3.56-2.216-3.798-1.107-.08-3.322.554-4.905 1.424z" fill-rule="nonzero"/></svg>
