<svg viewBox="0 0 407 550" xmlns="http://www.w3.org/2000/svg" fill-rule="evenodd" clip-rule="evenodd" stroke-linejoin="round" stroke-miterlimit="2"><path d="M237.914.62c-7.9 1.7-17.6 9.3-21.3 16.6-4 8.1-5.1 21.5-2.3 29.3 1.5 4.1 1.5 4.7-.5 9.2-1.1 2.6-3.6 6.2-5.4 8l-3.4 3.3-17.3.2c-18.9.2-18.9.2-40 8.1-6.5 2.4-15.3 4.9-19.5 5.6-8.6 1.2-10.9 2.6-11.8 6.8-.8 3.6-1.9 4.4-8 5.9-8.1 1.9-24.1 10.4-36.8 19.5-13.9 10-30 22.3-36.1 27.5-4.5 3.9-6.2 4.7-16 7.6-11.2 3.2-18.2 12.5-19.3 25.5-.5 5.7-.2 6.9 1.7 9.2 1.2 1.6 2.6 2.8 3.2 2.8.6 0 2.6 1.3 4.5 3 4.2 3.7 5.9 3.7 11.1.2 6.1-4.1 9.9-9.6 12.7-18.4 1.4-4.3 3.2-9.2 4-10.7 1.7-3.4 12.9-9.5 25.8-14 4.8-1.7 11.2-4.2 14.2-5.6 3.1-1.4 8.2-3.6 11.5-5 3.3-1.4 10.9-5.9 16.9-10 6.4-4.3 12.5-7.7 14.7-8.1 4.2-.8 35.6.2 39.2 1.2 2.1.6 2.3 1.1 1.7 3.8-.4 1.7-.9 10.7-1.2 20.1-.5 16.8-.3 18.5 3.4 36.4 2 9.3 1.3 25-1.5 34.8-1.1 3.7-2.5 9.4-3.1 12.6-.7 3.1-2.3 7-3.5 8.5-6.2 7.4-12.5 21-12.6 27.2 0 1.4.9 5 2.1 8 1.1 3 2.5 6.7 3.1 8.2 1.1 3.1.1 7.3-3.8 14.9-3 6-10.7 17.2-15.7 22.9-7.1 8.1-7.2 8.8-3 16.6 2 3.8 5.1 8.9 7 11.3 3.8 5.1 4 6.4 1.3 9.1-1.9 1.9-3.2 2.4-10 3.4-2 .4-6.8 2.1-10.6 4-7.5 3.6-22.3 16.6-44.4 39.1-5.8 5.9-11.5 11.1-12.7 11.5-1.2.5-6.8 1.4-12.5 2-11.2 1.1-16.3 2.4-19 4.8-2.3 2-2.4 12.3-.1 20.7 1 3.7 1.6 11.1 1.8 19.5.2 14.7 1.8 21.3 7.3 30.7 2.5 4.2 3.3 4.8 6.5 5.1 4.7.4 4.8.3 9.1-21.1 2-9.9 4.4-18.7 5.8-21.2 6.1-11.6 18.4-24.4 32.8-34.2 5.9-4 32.5-18.1 42-22.3 17.5-7.7 32.5-15.2 36.2-18.2 3.4-2.6 4.3-3 5.9-2 1 .7 2.5 1.2 3.2 1.2 1.5 0 11.4-9.7 14.9-14.6 3.9-5.4 8.1-10.7 13.1-16.7l4.9-5.7 3.8 2.1c2.1 1.2 6.8 5.2 10.3 8.9 7.5 7.7 16.6 13.1 18.9 11.2.8-.6 2.7-3.8 4.3-6.9 5.5-11 7.4-13.3 11.1-13.3 4.7 0 8.4 1.6 8.4 3.8 0 1-1.6 3.4-3.6 5.3-12.4 11.9-20.4 41.9-19 71.6.6 13.6.5 14.8-2.3 25.2-3.6 13.5-5.7 17-13.1 22.1-6.5 4.4-9.7 8.3-10.6 12.9-.8 4.1.6 5.7 12.6 13.6 12.3 8.1 17.9 13.1 24.8 22.3 7.3 9.6 9.5 11.2 17.1 12.1 6 .7 6.2.8 13.8 8.8 9.1 9.3 13.4 11.3 24.8 11.3 9.6 0 15.4-2.2 22.1-8.3 7.7-7 9.7-11.2 10.2-22 .6-10.9-.9-16.4-5.9-22.8-7.4-9.3-19.4-13.9-31.2-12-3.8.6-8.5 2-10.5 3-5 2.6-12.7 10.7-14.7 15.3-2 4.9-3.5 4.2-8-3.7-5.6-10-6.9-16.7-6.2-32.5.9-24.7 7.9-47.1 23.9-77.2 17.5-32.8 19.9-38.8 20.6-50.4.6-11.2-.2-12.8-10.9-23.6-4.7-4.7-7.9-8.7-7.9-9.9 0-1.1-.5-3-1.2-4.2-3.7-7-27.5-35.8-33.1-40.1-1.8-1.4-6.1-3.8-9.7-5.4-8.5-3.8-10.2-5.7-9.1-10.3.5-1.8 1.2-9.3 1.5-16.4.4-8.9 1.4-16.2 3.1-23 1.4-5.5 2.5-10.7 2.5-11.6 0-.9 1.6-4.7 3.7-8.5 6.5-12.2 9.5-22.2 13.3-43.4 1.4-7.5 2.9-12.2 4.4-13.2.6-.4 3.4-.8 6.1-.8 2.8 0 8.2-.7 12-1.6 3.9-.9 9.7-1.9 13-2.1 5.1-.4 6.5-1 9.3-3.6l3.3-3.2 16.2-.5c13.7-.4 16.7-.8 19.8-2.5 21.2-11.8 25.6-13.9 32.1-15.1 6.7-1.3 12.4-3.6 21.7-8.9 6.4-3.6 7.1-4.4 7.1-8 0-4.4-2.4-8.9-6.7-12.4-8-6.6-12.9-5-26.7 9.1l-10 10.2-18 .6c-16.3.5-18.5.8-22.5 2.9-5.1 2.7-11.2 2.3-14.6-.9-1.6-1.5-5.1-2.4-13.9-3.5-11.9-1.6-22.6-4.9-31.1-9.8-5.2-3-5.4-6.2-.6-9.4 3.4-2.3 3.5-2.5 3.6-9.6.1-5.9.6-8.2 2.9-12.5 1.7-3.2 3.1-7.5 3.4-10.5.3-3.9 1.3-6.3 3.8-9.6 4.3-5.6 4.6-11 .9-14.6-1.3-1.4-2.9-2.5-3.5-2.5-.6 0-5-2.4-9.7-5.2-8-4.9-9-5.3-15.7-5.5-3.9-.1-8.7.2-10.6.6z" fill-rule="nonzero"/></svg>
