<svg viewBox="0 0 397 418" xmlns="http://www.w3.org/2000/svg" fill-rule="evenodd" clip-rule="evenodd" stroke-linejoin="round" stroke-miterlimit="2"><path d="M13.547 415.712c-.647-.734-2.189-1.335-3.424-1.335-1.78 0-2.248-.468-2.248-2.247 0-1.237-.765-2.984-1.699-3.882-.935-.899-1.975-3.432-2.312-5.63-.337-2.198-1.087-4.869-1.666-5.936-1.686-3.108-1.91-8.117-1.082-24.037.316-6.062.127-9.98-.543-11.232-.752-1.405-.76-2.737-.032-4.943.67-2.031.703-3.79.103-5.372-.692-1.817-.537-2.832.681-4.47.867-1.164 2.148-3.248 2.848-4.63 1.207-2.385 1.62-2.518 8.195-2.651 3.808-.077 9.282-.036 12.165.092 6.064.267 13.621-2.357 19.29-6.699 1.94-1.485 6.05-4.317 9.133-6.293 3.084-1.976 6.532-4.443 7.663-5.482 1.13-1.039 2.054-1.693 2.054-1.455 0 .239 2.125-1.56 4.721-3.998 4.563-4.285 15.217-10.069 23.135-12.561 2.009-.632 7.557-2.759 12.329-4.726 9.972-4.11 17.353-10.27 17.353-14.483 0-1.313.719-3.056 1.598-3.873.88-.819 2.523-2.329 3.653-3.357s2.055-2.703 2.055-3.723 1.027-4.295 2.283-7.279 2.283-6.052 2.283-6.82c0-2.666 6.772-15.255 9.392-17.46l2.635-2.217-.174-10.27c-.341-20.174 2.14-28.896 11.951-42.011 3.475-4.643 6.892-10.085 7.595-12.095 1.224-3.498 3.349-14.273 3.63-18.406.073-1.083.51-1.734.973-1.45.462.286.578-.164.258-1-.321-.835-.21-1.52.248-1.52.458 0 .676-.812.484-1.807-.191-.993.055-2.056.547-2.36.492-.304.628-1.392.302-2.417-.394-1.243-.255-1.655.42-1.239.942.582 1.425-1.082 1.094-3.758-.215-1.728 6.217-21.112 9.526-28.705 1.665-3.825 4.14-11.091 5.5-16.149l2.47-9.196-1.973-3.192c-1.085-1.755-3.704-4.213-5.82-5.463-5.293-3.123-22.572-20.867-22.572-23.178 0-5.762 1.945-11.79 4.577-14.186 3.699-3.368 10.44-3.511 15.892-.338 2.92 1.7 6.22 2.428 15.15 3.344 9.086.933 13.838 1.998 23.288 5.22 6.53 2.227 12.685 4.112 13.677 4.19 1.617.128 2.004-1.046 3.718-11.274 2.213-13.198 4.351-20.31 7.298-24.263 1.148-1.54 2.376-4.726 2.729-7.078.409-2.729 1.1-4.277 1.908-4.277.696 0 1.266-.751 1.266-1.669 0-1.334.548-1.588 2.74-1.266 2.33.342 2.74.104 2.74-1.59 0-1.561.385-1.869 1.787-1.424.982.312 4.168.694 7.077.85 6.708.358 13.968 3.426 13.968 5.902 0 1.075 1.764 3.076 4.454 5.051 5.146 3.777 8.686 8.122 9.583 11.76.375 1.52 1.534 2.888 2.884 3.401 1.242.472 2.258 1.289 2.258 1.814 0 .526 1.13 1.445 2.511 2.044 1.382.597 4.053 2.54 5.936 4.318 2.982 2.813 3.424 3.768 3.425 7.39 0 3.506-.465 4.601-2.968 6.977-1.632 1.55-3.864 3.088-4.96 3.417-1.096.33-3.1 2.533-4.455 4.896s-3.907 5.81-5.672 7.663c-2.623 2.753-3.29 4.25-3.662 8.22-.496 5.292-1.214 6.187-4.975 6.209-1.639.008-3.002.795-3.987 2.297-1.17 1.787-2.267 2.283-5.044 2.283-3.103 0-3.548.266-3.548 2.121 0 1.474-1.138 2.866-3.735 4.567-4.723 3.092-5.892 3.063-11.155-.274-3.82-2.423-4.289-2.534-4.289-1.019 0 .936.936 2.315 2.08 3.064 1.144.75 3.154 3.572 4.466 6.27 2.157 4.436 2.44 6.28 2.941 19.227.306 7.875.967 15.402 1.47 16.727.504 1.324.916 3.74.916 5.37 0 2.849 2.083 8.812 6.375 18.253 1.134 2.492 1.828 5.44 1.582 6.724-.356 1.86.859 3.695 6.534 9.875 8.251 8.984 23.263 21.43 25.847 21.43 1.003 0 4.564-1.183 7.913-2.63 8.025-3.465 19.22-4.613 21.334-2.188 2.315 2.657 3.429 9.237 2.283 13.494-.27 1.005-.523 2.34-.561 2.969-.039.628-.438 1.141-.887 1.141-.45 0-2.14 1.237-3.76 2.75-3.704 3.46-7.188 4.45-8.645 2.457-.89-1.218-2.398-1.37-9.226-.927-7.195.466-8.59.298-11.793-1.42-1.999-1.07-3.997-1.946-4.441-1.946-1.846 0-27.173-13.335-33.925-17.862-10.532-7.061-13.175-9.537-14.567-13.647-1.043-3.083-1.704-3.725-4.232-4.11-2.338-.356-3.145-1.02-3.68-3.026-.747-2.812-2.417-5.194-3.638-5.194-1.209 0-3.565 5.122-3.565 7.748 0 1.298-1.016 4.366-2.26 6.818-2.405 4.747-5.499 17.756-4.577 19.247.303.49 1.183.893 1.955.893s2.494.604 3.828 1.343c1.333.739 4.125 1.77 6.206 2.292 2.349.588 4.357 1.825 5.299 3.263.834 1.274 2.42 2.737 3.524 3.252 3.303 1.54 7.31 3.883 10.368 6.062 1.585 1.13 3.407 2.053 4.05 2.053 3.85 0 12.218 3.341 15.19 6.064 1.844 1.689 2.959 3.07 2.48 3.07-.48 0-1.4.846-2.047 1.88-1.078 1.727-1.026 1.802.634.914 2.48-1.328 2.512-1.306 2.31 1.624-.195 2.812-.47 2.542 13.102 12.85 8.238 6.256 9.777 8.268 9.497 12.413-.234 3.463-2.605 10.906-4.8 15.07-.927 1.758-2.68 5.508-3.897 8.333-1.215 2.827-3.643 6.73-5.395 8.677-1.752 1.946-6.158 9.482-9.792 16.744-3.634 7.264-10.231 19.043-14.66 26.176-8.497 13.685-8.474 13.613-7.342 23.348.068.588 7.925 8.443 11.935 11.932 1.01.88 2.43 1.599 3.153 1.599.724 0 1.574.418 1.89.928.315.51.94.702 1.387.426 1.007-.623 4.527 1.49 4.576 2.747.04 1.05 8.416 5.337 10.43 5.337.73 0 1.049.445.71.989-.34.544-.497 1.914-.351 3.044.145 1.13-.146 2.055-.648 2.055-.503 0-1.556.642-2.341 1.428-2.165 2.164-23.723 2.41-25.05.284-.51-.817-2.393-1.76-4.186-2.096-1.792-.337-3.26-.942-3.26-1.345 0-2.014-15.985-6.757-21.384-6.345-2.497.19-4.56-.274-6.235-1.402-1.526-1.025-3.323-1.48-4.596-1.16-2.296.576-3.254-.496-6.788-7.602l-2.03-4.082 4.05-7.612c2.226-4.187 4.912-8.72 5.968-10.074 2.045-2.624 6.855-10.496 10.99-17.988 1.386-2.512 3.81-8.414 5.39-13.116 4.723-14.076 11.004-27.466 17.143-36.544 5.429-8.029 5.696-8.665 4.297-10.211-1.812-2.003-11.838-6.122-16.593-6.817-3.424-.5-3.498-.444-8.477 6.458-2.763 3.83-5.312 7.146-5.666 7.367-.353.222-5.952-2.257-12.441-5.508l-11.799-5.913-7.157 13.075-7.158 13.076-7.86.447c-6.636.379-9.13 1.017-16.02 4.1-4.487 2.01-9.714 4.157-11.615 4.772-2.868.93-4.386 2.504-8.925 9.254-6.404 9.525-9.654 11.607-23.45 15.023-6.154 1.524-11.1 3.553-17.521 7.19-4.922 2.786-9.486 5.713-10.142 6.503-.656.791-6.982 4.223-14.057 7.626-15.343 7.381-34.797 18.35-37.98 21.415-1.257 1.21-4.236 3.507-6.622 5.105-2.386 1.599-4.39 3.298-4.452 3.776a65.39 65.39 0 01-.229 1.576c-.063.389-1.034 1.694-2.158 2.9-1.125 1.208-2.311 3.048-2.638 4.09-.326 1.041-1.377 2.898-2.336 4.125-.958 1.227-1.643 3.077-1.52 4.11.238 2.018-2.649 8.728-3.756 8.728-.368 0-.572 1.438-.455 3.196.119 1.758-.15 3.197-.596 3.197-.446 0-.81.435-.81.967s.48.67 1.067.307c.708-.438.881-.172.515.783-.32.834.004 1.659.767 1.952.726.278 1.213 1.018 1.083 1.643-.13.625 1.202 1.869 2.96 2.764l3.197 1.627-5.48-.033c-3.627-.023-5.878-.485-6.658-1.37zm338.83-40.066c-10.079-2.882-18.97-9.508-22.78-16.978-10.371-20.327-.69-42.91 21.254-49.574 11.41-3.465 24.673-.417 34.15 7.85 4.854 4.233 10.072 14.603 10.853 21.57 1.663 14.83-7.97 30.152-22.404 35.636-6.066 2.305-15.821 2.998-21.074 1.496z" fill-rule="nonzero"/></svg>
