<svg viewBox="0 0 227 401" xmlns="http://www.w3.org/2000/svg" fill-rule="evenodd" clip-rule="evenodd" stroke-linejoin="round" stroke-miterlimit="2"><path d="M75.177 2.491c-2.4 1.5-5 4.1-6.1 6.2-1 2-2.7 5.3-3.7 7.2-1.8 3.4-2.6 8.2-4 22-.6 6.4-.5 6.7 2.9 11.1 5.6 7.4 5.8 8.1 3.7 11.7-1.1 1.8-3.1 3.4-4.7 3.8-15.6 3.5-30.2 10.4-36.4 17-5.5 5.9-11.6 16.3-18.1 30.4-5 10.9-5.5 12.9-3.8 15.9.7 1.3.1 4.3-2 10.7-3.1 9.3-3.8 17.3-2 22.8 7.9 24.7 11 42.5 10.3 57.7-.7 14.4-.1 17.9 3.9 21.8 3 2.9 3.7 3.1 10.5 3.1 4 0 7.3-.4 7.3-.8 0-.5-1.4-2.1-3.1-3.8-4.6-4.4-5.2-5.8-3.5-9.9.8-1.9 2-3.5 2.5-3.5 1.2 0 4.1 5.2 4.1 7.5 0 .8.5 1.5 1 1.5 1.6 0 1.2-15.6-.5-19.8-.9-2-3.5-5.6-5.8-8l-4.2-4.3.3-21.7c.2-17.8 0-23-1.4-29-1.7-7.1-1.7-7.4.3-10 1.1-1.5 2.9-2.8 4.1-3 1.3-.2 3.2-2.3 5.1-5.7 5.6-10 6.8-8.9 8.1 7.6.5 6.8 1.4 13.9 2.1 15.7.7 2.1.9 5.5.5 8.9-.9 7.7 1.2 39.5 3.5 53.3 1 6.3 1.9 13.7 1.9 16.5.1 5.3 3.2 17.7 7.4 28.8 2.7 7.1 4.5 14.5 7.6 31.4 2.6 14.5 2.5 14.3 6.6 14.3 3.1 0 3.6.5 6 5.2 3.8 7.6 8.4 13.3 12.9 16.2 5.7 3.8 8.1 3.4 13.1-2 3.7-3.9 4.6-4.4 6.3-3.5 4.2 2.3 6.6 7.4 11.6 25.4 2.3 8.1 6.5 12.7 11.5 12.7 6.8 0 9-4 9-16.3 0-7.6-.3-8.7-3.5-14.2-6.1-10.4-8.4-15.8-9.4-22.5-.9-5.3-1.6-7-4.2-9.4-2.8-2.5-3.8-2.8-8-2.4-4.1.4-4.9.2-4.9-1.2 0-.9.9-2.5 2-3.5 2.3-2 2.6-7.2 1-15.2-1.7-8.7-2.9-18.7-2.3-19.3 1-1 4.4 4.6 9.5 15.9 2.9 6.2 6.6 12.9 8.3 14.7 2.9 3 3.8 3.4 8.3 3.4 2.8 0 6.3-.5 7.7-1.2 3.6-1.6 5.4.5 6.4 7.3.9 6.8 3.1 10.9 12.5 23.4 4.1 5.4 10.7 15.3 14.6 21.8 6.7 10.9 7.3 12.4 8.1 19.5.6 5.2.5 10.9-.3 17.6-1.2 9.3-1.1 9.9.7 11.3 2.8 2.1 17.3 1.3 20.9-1 3.2-2.1 3.3-4.4.6-12.7-1.1-3.4-2-8.5-2-11.3 0-3.9-.8-6.4-3.5-11.3-1.9-3.4-3.5-7.6-3.5-9.3 0-1.6-.4-5.2-.9-7.8-.5-2.6-1.5-7.7-2.1-11.3-4.2-22.8-10.5-39-18.7-48.1-4.4-4.9-5.5-8-4-11.9 1.1-2.9.7-3.9-5.2-15.8-3.6-7-7.9-15-9.6-17.7-1.8-2.8-4.7-7.9-6.5-11.5-1.9-3.6-4.8-9-6.6-12-1.8-3-3.8-7.5-4.4-10-2.2-9-5.7-14.7-16.6-27.5-4.8-5.8-5.6-7.3-6.1-11.9-.4-4-.1-6.4 1.6-10.1 1.1-2.6 2.1-6.6 2.1-8.9 0-2.2.9-7 2-10.4 1.1-3.5 2-7.4 2-8.5 0-4.7 1.5-5.3 6.2-2.7 2.4 1.3 7.6 4.8 11.5 7.9 6.3 4.7 7.8 5.5 11 5.3 4.5-.4 7.5 2.3 11.8 10.3 3.8 6.9 10.7 13.8 17.6 17.5 9.9 5.3 11.6 7.1 12.1 13.6.4 5.2.9 6.1 4.7 9.6 4 3.8 4.3 3.9 6.6 2.4 1.3-.9 3.4-1.6 4.5-1.6 2.5 0 6 5.4 6 9.2 0 4.2 2 4.5 5.1.8 3.9-4.6 4.4-8 2.1-13.2-1.8-4.1-4.7-6.6-15.2-13-1.4-.9-5.7-7.2-10-14.9-6.7-12.1-8.5-14.5-18.2-23.9-9-8.9-10.6-10.9-10.2-13 .4-2-.8-4-5.7-9.5-3.4-3.9-9.4-11.1-13.5-16.2-14.9-18.6-25.9-25.8-44-28.4-4-.6-7.9-1.7-8.5-2.5-2-2.4-.1-10.6 3.7-15.9 3.7-5.3 4.4-9.7 2-14.3-.7-1.5-1.6-5.1-2-8.1-1-7.8-7.4-18.9-12.5-21.9-5.3-2.9-10.5-2.8-15.9.4zM44.977 350.791c-4.6 1.5-8.5 3.9-11.6 7.3-5.1 5.4-6.4 8.9-6.4 17.5 0 7.1.3 8.4 3.3 13.3 2.5 4.4 4.4 6.2 9.2 8.7 13.1 7.1 27.4 2.7 35.8-10.9 2.5-4 2.3-17.6-.2-22.7-2.2-4.2-7.4-9.2-12.3-11.7-3.6-1.9-14-2.8-17.8-1.5z" fill-rule="nonzero"/></svg>
