<svg viewBox="0 0 373 405" xmlns="http://www.w3.org/2000/svg" fill-rule="evenodd" clip-rule="evenodd" stroke-linejoin="round" stroke-miterlimit="2"><path d="M2.535 172.978c4.19 5.69 11.34 6.37 17.53 3.82 5.39-2.22 13.66 5.46 18.88 1.31 6.61-5.24 9.73 1.61 16.04 2.79 33.38 6.25 65.68 19.42 98.16 29.68 9.69 3.06 3.82 9.13-.81 13.8-14.68 14.79-26.49 32.79-41.92 46.57-10.77 9.61-24.88 15.14-33.98 26.9-10.89 14.07-17.95 33.32-31.03 43.44-5.9 4.56-16 3.94-18.61 12.63-2.61 8.69 9.32 7.3 7.16 15.3-2.72 10.06-1.49 20.78 3.76 30.24 2.97 5.37 14.94 8.09 11.55.2-3.9-9.07.69-17.73 3.28-25.79 1.62-5.01 7.46-9.11 10.39-15.4 4.99-10.71 13.53-19.64 23.09-27.13 12.21-9.57 18.15-26.44 33.68-31.73 6.54-2.23 10.34-7.64 15.76-11.28 17.74-11.92 36.87-22 54.9-33.39 7.71-4.88 11.65-12.59 18.32-19.22 7.67-7.61 17.3-9.36 26-13.25 11.68-5.23 23.27-11.78 31.47-22.47 9.34-12.15 19.98-25.32 22.6-40.09 1.4-7.88 8.95-5.72 13.44-8.16 5.05-2.76.88-16.03 8.1-21.32 7.8-5.71 16.7-11.37 22.3-18.99 9.96-13.55 14.99-30.93 25.04-44.64 4.41-6 15.89-9.17 14.85-17.49-.8-6.39-6.8-1.64-6.12-3.85 2.19-7.15-5.55-5.2-5.02-5.38 2.07-.7.96-6.1-6.94-7.69-2.45-6.26-8.9-1.85-9.89 2.81-2.19 10.36-.82 21.34-7.72 30.82-3.89 5.34-4.81 11.86-9.98 16.66-7.42 6.89-13.31 15.31-19.12 23.39-3.91 5.45-16.52 21.97-17.3 4.88-.57-12.43-8.4-32.08-21.9-34.91-14.49-3.26-22.09 11.7-26.37 12.49-2.74.51-12.08-5.94-5.7-12.46 10.24-10.47 18.16-21.68 30.88-29.37 8.92-5.4 18.61-5.55 26.63-12.53 6.51-5.68 1.87-12.76 3.28-13.8 6.94-5.13 2.12-9.8 1.19-13.63-1.13-4.7-9.31-5.48-13.52-6.52-6.33-1.56-11.11 5.62-14.35 9.96-5.49 7.36-6.24 18.52-14.36 24.97-9.88 7.85-20.99 13.51-29.21 22.84-5.18 5.88-13.39 10.35-15.58 17.54-1.8 5.93 3.91 15.19.87 18.8-4.85 5.78 2.43 12.79 4.7 18.51 2.85 7.23 11.93 12.58 8.36 21.21-3.11 7.5-1.3 17.51-6.04 23.83-4.1 5.46-6.73 10.17-14.79 10.52-13.56.58-26.84 4.23-40.58 4.48-14.45.27-28.85 1.14-42.8-4.03-25.81-9.55-54.58-4.77-81.4-9.44-10.1-1.75-25.11-5.53-36.1.4-4.93 2.66-4.32 8.76-1.07 13.17z"/></svg>
