<svg viewBox="0 0 315 552" xmlns="http://www.w3.org/2000/svg" fill-rule="evenodd" clip-rule="evenodd" stroke-linejoin="round" stroke-miterlimit="2"><path d="M232.354 2.659c-5.7 2.7-12 8.4-14.5 13.2-8.7 16.2-2 36.6 14.5 44.2 4.1 1.9 6.6 2.3 14 2.2 10.9 0 14.5-1.4 22-8.5s9.9-13.4 9.2-24.4c-.5-9.7-2.6-14.1-9.4-20.6-7.1-6.9-10.3-8.2-20.8-8.6-8.3-.4-9.5-.2-15 2.5zM189.005 82.859c-6.9.8-12.8 3.9-16.9 9-2.6 3.3-3.1 4.7-3.1 9.5 0 8.1-1 9.5-7 9.5-10.6 0-19.9 2.1-25.3 5.7-12.4 8.3-32.5 13.6-47.5 12.5-3.6-.2-8.2.1-10.9.9-8.8 2.4-15.7 1.4-20.8-3.1-2.3-2.1-16.3-7.6-21.6-8.5-5.7-1-5.6 1.1.1 3.6 2.7 1.2 5 2.5 5 2.9 0 .9-5.1 2-9.1 2-2.4 0-2.9.4-2.9 2.4 0 3.1 1.4 4.1 8 5.6 3 .7 6.6 2.3 8 3.5 3.6 3.3 10.6 7.1 18.6 10.1 6.4 2.5 8 2.7 23.4 2.8 17.4.1 21.7 1 20.7 4.4-2.6 8.5-18.8 41.6-21.9 44.9-1.3 1.3-3.8 3.4-5.6 4.5-4.9 3-5.3 5.2-2.6 12.7l2.3 6.4-4.4 6.1c-2.4 3.4-5.5 7.2-7 8.6-6.4 6-12.5 24.2-12.5 37.5 0 3.8.7 11.3 1.5 16.5 1.9 12.5 1.9 26.3-.1 42.2-1.4 10.5-1.5 14-.5 18.2 1.5 6.5 4.9 11.7 9.8 14.7 4.6 2.8 5.3 3.7 5.3 7 0 1.9-1.7 4-6.6 8.4-3.6 3.2-9.8 9.5-13.8 14-6 6.9-7.5 9.4-9 14.7-3.9 13.7-6.2 19.9-12.3 34.2-10.3 23.9-10.6 24.3-18.1 26.5-2.4.7-6.1 2.8-8.3 4.8l-3.9 3.6.6 6.6c.3 3.6 1.2 10.1 2 14.5.8 4.3 1.4 11.7 1.4 16.5.1 12 1.2 16.4 5.5 22.7 3.8 5.5 10.4 10.4 14.1 10.4 1.1 0 3-.7 4.2-1.6 1.9-1.3 2.2-2.4 2.2-8.5 0-6.2.7-12.2 4.1-33.4.5-3.3 1.3-9.4 1.8-13.6 1.1-10.1 5.5-19.4 12.4-26.2 2.9-2.9 7.2-8.1 9.6-11.7 2.4-3.6 6.6-9.1 9.3-12.2 3.7-4.3 5.3-7.2 6.2-11.2 1.6-6.9 10.6-19.4 21.4-29.8 7.4-7.1 8.1-8.1 8.7-12.5.8-6.9 2.4-12.1 5.2-17.6 2.9-5.8 5.3-17.5 5.3-25.7 0-10.6 1.6-11.5 7.5-3.9 7.9 10.2 8.6 10.9 12.8 11.9 3.4.9 6.1 3.1 14 11.2 5.4 5.6 10.4 11.3 11.1 12.7.7 1.4 1.8 5.8 2.5 9.7 1.3 7.8 5.1 15.1 12.7 24.8 3.2 4.1 6.4 6.7 12.1 9.8 6.2 3.4 10.3 6.8 20 16.8 21.3 21.9 28.6 32.5 29.6 43.3.3 3.2 1.5 7.7 2.7 10.1 1.8 3.7 2.9 4.7 7.7 6.5 5.1 2 5.8 2 7.9.6 1.3-.8 3.6-1.5 5.2-1.5s3.5-.7 4.2-1.5c.7-.9 4.2-3.2 7.7-5.1 5.2-3 7-3.5 9.9-3 2.7.6 4.1.2 6.1-1.3 1.4-1.2 4-2.1 5.8-2.1 1.8 0 3.8-.6 4.4-1.4.6-.8 2.6-2 4.4-2.7 1.8-.7 5.1-2.8 7.4-4.6 3.2-2.6 4.3-4.3 4.8-7.5 1.2-7 .5-7.3-22.3-7.4-25 0-28.6-.6-36.7-5.8-7.3-4.7-17.1-15.4-18-19.8-.9-4-11-22.6-17.3-32-3.6-5.3-6.3-8.2-8.9-9.5-3.8-1.8-5.5-3.9-13.8-16.5-5.8-8.8-8.1-13.5-8.8-18.1-.3-2.2-1.9-5.4-3.7-7.5-1.8-2-5-6.6-7.2-10.1-3.2-5.2-3.9-7.1-3.5-10 .3-2.7-.4-5.3-2.8-10.1-3.3-6.7-6.6-14.4-13-31-2.1-5.2-5.1-11.6-6.7-14.2-3.1-5-5.8-12.5-5.8-16.5 0-3.8 3.5-2.9 21 5.7 11.1 5.4 17.5 8 19.9 8 3 0 4.5.9 9.9 6.2 6.3 6.3 7 6.5 8.5 2.3.2-.5 2 .2 4 1.8 5.9 4.4 10.4 3.3 9.3-2.4-1.9-10-10-18.1-25.7-25.9-4.6-2.3-10.6-5.5-13.4-7.2-5.7-3.6-23.5-20.6-23.5-22.6 0-.7 1.1-1.8 2.5-2.4 1.8-.8 2.5-1.9 2.5-4 0-1.6 1.5-5 3.5-7.9 1.9-2.8 3.5-6.1 3.5-7.2 0-1.1 2.6-7.7 5.8-14.6 4.2-9.1 6.2-14.8 7.2-20.6 1.5-9 2.2-10.9 5.8-14.7 2.4-2.6 2.8-2.7 9.9-2.1 6.8.6 7.5.4 9.9-1.8 4.3-4 7.4-11.3 8.5-20 .5-4.4 1.4-9.1 2-10.5.5-1.5 1.2-7.3 1.6-13 .6-9.7.4-10.7-1.8-14.9-1.7-3.2-3.3-4.8-5.6-5.6-1.7-.5-4.3-1.9-5.7-3-3.1-2.5-9.6-3.6-16.6-2.9z" fill-rule="nonzero"/></svg>
