<svg viewBox="0 0 350 391" xmlns="http://www.w3.org/2000/svg" fill-rule="evenodd" clip-rule="evenodd" stroke-linejoin="round" stroke-miterlimit="2"><g fill-rule="nonzero"><path d="M18.804 336.83c-12.1 2.5-19.8 14.3-18.7 28.4.9 10.4 5.7 17.5 14.5 21.7 5 2.3 18.4 2.8 23 .8 5.2-2.2 11.1-7.7 13.4-12.5 2.9-5.9 3.2-17.7.7-23.4-2-4.6-8.2-11.5-12.1-13.6-3.4-1.7-15.5-2.6-20.8-1.4zM331.404 3.53c-2.2 1.9-5.4 4.3-7.1 5.2-10.8 5.9-13.5 7.2-14.8 7.2-.8 0-5.2 2.8-9.8 6.2-9.5 7.1-19.5 13.4-32.8 20.8-7.4 4.1-11.8 5.7-21.4 8-6.6 1.5-13.2 3.2-14.6 3.8-1.4.6-8.3 1.5-15.5 2.1-7.1.6-15.5 1.4-18.5 1.7-13.8 1.5-18.8.5-24.7-5.2-4.9-4.7-5.1-5.6-2.2-15.1 1-3.2 1-4.8.2-6.5-.7-1.3-1.4-5.3-1.6-9-.6-8.5-3.5-14.4-8.9-18.2-3.6-2.6-5.3-3-12.3-3.4-7.3-.4-8.7-.2-13.3 2.2-8.1 4.1-9.2 6.6-9.2 21.4 0 11.7.1 12.6 3.6 21 1.9 4.8 3.8 9.5 4.1 10.4.4 1.3-1 2.4-6.3 4.8-3.8 1.7-8.8 3.4-11.2 3.7-2.4.3-5.9 1.7-7.8 3-1.9 1.3-5.2 3.2-7.2 4.2-2 1.1-4.8 3.6-6.2 5.7-2.6 4-9.5 9.6-19.4 15.9-3.5 2.2-7.8 5.2-9.5 6.7-1.8 1.5-6 4.3-9.4 6.3-3.4 1.9-9.3 6.2-13.2 9.6-3.8 3.3-8.3 6.8-10 7.6-6.1 3.1-7.5 5.2-7.5 11.2 0 6.2 2.3 11.5 5.9 13.9 2 1.4 2.2 1.3 2.8-.6.7-2.8 3.9-2.9 5.5-.2 1.8 2.8 3.8 2.5 3.8-.5 0-1.4.6-4.1 1.4-6 .8-1.9 1.8-5.5 2.2-8.1.6-4.5.8-4.7 6.8-7.5 9.8-4.5 10.4-4.5 15.9 0 4.8 4 11.1 6.2 12.7 4.5.4-.5 1.5-3.3 2.5-6.2.9-2.9 2.7-6.5 3.9-7.9 3.8-4.4 17-8.1 18.1-5.1.3.8-.4 3.9-1.6 6.9-1.2 3-3.5 9.4-5.1 14.4-2.9 9-2.9 9-1.7 19.5.9 8.2 1.8 11.6 4.1 15.6 1.5 2.8 2.8 5.7 2.8 6.3 0 .6-2.5 5.3-5.5 10.4-3 5-5.6 9.6-5.8 10.2-.2.6-1 .4-2.1-.4-1.4-1.2-2.2-1.1-5.7.4-3.5 1.6-4.5 1.7-7.2.6-4.2-1.7-7.3-1.5-11.1.7-4.4 2.6-5.4 6.2-3.4 12 .9 2.6 1.9 6.7 2.3 9.2.6 4.4.5 4.7-4.8 10.5-7.7 8.6-12.4 16.5-17 28.5-3 7.8-4.1 12.4-4.4 17.9-.6 8.8-.1 11 3.3 15 2.3 2.8 3.1 3.1 8.5 3.1 8.4 0 12.5-2.4 25.4-15 6.1-5.9 12.5-11.7 14.3-13 3.8-2.5 9.6-2.9 16.2-.9 3.4 1.1 4.3 1 5.9-.5 1-.9 2.2-3.5 2.5-5.8.7-4.5 7.7-13.8 10.3-13.8 1.8 0 1.2 2.5-2.8 10.4-4 8.2-3.8 10.6 1.6 17.3 3.5 4.3 4.5 6.3 4.5 9.2 0 5.2-3.8 16.2-6.4 18.6-1.1 1.1-3.2 3.6-4.5 5.5-1.4 1.9-5 6.2-8.1 9.5-4.2 4.4-7.7 10-13.4 21.1-4.3 8.4-9.8 17.6-12.3 20.5-5.8 6.9-14.8 20.5-16.8 25.2-1.5 3.5-1.4 3.7.9 5.2 1.7 1.1 6.9 1.8 18.7 2.5 9 .6 19.9 1.5 24.2 2.2 7.5 1.1 7.9 1.1 10-1.1l2.2-2.2-5.2-4.9c-3.4-3.1-7.1-5.4-10.5-6.5-5.9-1.9-9.8-5-9.8-7.6 0-2.1 7.9-9.4 17.6-16 6.2-4.3 8.3-6.6 14.7-16.2 4.1-6.2 9.1-12.9 11.1-14.9s3.6-4.6 3.6-5.8c0-3.5 2.5-8.3 7-13.5 2.4-2.8 5.1-6.8 6.1-9 1.8-4.2 5.8-8.4 9.6-10.4 3.9-2 5.8-6.8 12.4-32.6 1.1-4.3 2.7-9.1 3.4-10.5 1-2 1.1-3.5.3-6.6-1-3.7-.8-4.7 2.5-11.5 8.1-16.7 8.8-19.2 25.2-87.4 2.6-10.5 5.2-20.8 5.9-23 1.7-5 6.6-8.9 22.5-17.8 6.4-3.6 13.2-8.2 15.1-10.2 1.9-2 4.7-4.3 6.2-5.1 1.5-.8 3.7-3.2 4.8-5.4 1.5-3 2.9-4.2 5.8-4.9 6.7-1.9 31.7-24.8 39.9-36.6 1.9-2.7 3.1-3.2 11.3-4.8 8.3-1.6 9.3-1.6 12.2-.1 2.3 1.2 3.3 1.3 4.2.4.8-.8.4-1.6-1.6-3.2-1.6-1.1-2.8-2.3-2.8-2.8s3.2-1.8 7-3c3.9-1.2 6.8-2.6 6.4-3.1-.3-.5-2.9-.9-5.7-.9l-5.2-.1 3.8-3.2c5.5-4.8 4.5-7.4-1.8-4.5-2.8 1.3-4.5.4-2.7-1.4.7-.7 1.2-1.8 1.2-2.5 0-2.3-3.4-1.3-7.5 2.3z"/></g></svg>
