<svg viewBox="0 0 665 466" xmlns="http://www.w3.org/2000/svg" fill-rule="evenodd" clip-rule="evenodd" stroke-linecap="round" stroke-linejoin="round" stroke-miterlimit="1.5"><circle cx="642.139" cy="60.861" r="60.861" stroke="#000" stroke-width="1.43" transform="matrix(.7064 0 0 .6956 167.603 .5)"/><path d="M601.987 100.726c-2.151-3.635-8.735-5.59-13.13-2.947-25.456 15.297-27.365 18.289-53.043 26.695-2.438.798 4.35-4.456 4.6-7.01.163-1.666-2.725-3.837-4.107-2.893-7.39 5.048-3.336 13.179-13.553 12.763-2.467-.1-4.009-1.938-6.479-1.924-1.197.007-2.875.949-2.256 1.975 1.31 2.176 8.683 4.229 6.168 5.165-33.392 12.429-55.548 10.759-101.175 16.385-10.942 1.349-19.949 6.556-30.742 8.805-12.667 2.64-21.233 1.459-29.425 3.326-10.778 2.456-21.229 7.339-31.979 9.909-9.67 2.313-19.322 1.178-29.051 3.43-38.865 9-55.14 27.364-98.353 42.04-5.94 2.017-22.375 1.744-34.631-.324-11.422-1.926-19.032-4.12-21.83-6.033-3.346-2.29 28.767-10.943 45.138-17.497 4.626-1.852 16.435-2.783 28.151-7.242 21.364-8.131 23.096-13.77 44.67-21.322 6.328-2.215 19.048-.654 25.095-3.552 9.745-4.671 5.166-6.177 8.93-9.323 3.697-3.09 7.565-.688 9.837-2.265 1.971-1.37.26-3.77 1.606-4.926 3.228-2.775 10.803.879 10.397-7.157-.132-2.596-3.702-4.668-7.945-4.93-11.6-.716-18.022-2.03-25.033 1.956-17.482 9.942-18.845 12.888-43.941 18.946-13.125 3.168-25.913 3.58-38.679 7.973-19.41 6.679-25.918 15.525-47.95 16.192-20.477.619-38.208-3.28-58.477-.297-5.67.834-10.627 12.095-15.3 11.555-4.758-.551 1.816-30.386-2.401-43.267-8.092-24.706-27.893-36.307-54.67-12.633-6.217 5.497-4.64 17.48-5.064 25.768-.217 4.255-4.883 4.169-4.186 7.32 3.31 14.97 15.272 11.563 19.387 21.65 2.283 5.596 6.211 20.08 2.44 23.684-11.963 11.43-23.463 24.016-26.752 32.379-5.229 13.299-1.53 44.076-1.25 61.479.063 3.929 4.966 5.083 4.57 8.189-5.652 44.293-8.88 40.144-7.092 83.855.417 10.189 3.583 22.78.418 32.474-4.58 14.029-9.865 30.44 4.131 36.487 2.697 1.165.422-4.487 2.6-6.461 3.127-2.836 6.264-.858 8.268-6.818 1.073-3.191-4.343-5.507-2.942-8.087 1.173-2.16 6.133 2.434 7.823.649 2.126-2.247-2.875-7.448-.18-8.966 4.404-2.48 7.631-5.025 14.38-12.273 3.096-3.324 7.503-3.27 12.306-8.317 1.166-1.225-.709-4.386-2.399-4.473-6.758-.35-15.1 8.583-18.152 2.542-4.83-9.565 2.898-20.19 3.85-30.862 3.158-35.394-1.644-31.898 6.356-66.405 1.191-5.137 2.856-8.956 3.625-11.277 1.007-3.042.404-11.832 3.82-12.32 22.374-3.193 86.906 29.036 113.153 32.288 56.993 7.063 64.858-7.361 91.94-12.753 13.537-2.695 31.211.293 44.326-4.014 11.135-3.657.47-20.54 12.746-20.103 4.83.172 8.243 8.619 15.97 12.542 5.703 2.896 12.886.974 16.79 3.794 3.754 2.71 4.545 10.53 9.175 10.513 25.53-.097 69 4.99 82.6-15.08 3.12-4.603 1.743-13.401-2.925-16.424-7.272-4.71-17.238-2.543-25.897-2.241-10.327.36-22.874 6.006-30.713 4.215-9.4-2.148-10.68-23.61-20.974-40.704-5.194-8.624-22.803-13.094-22.704-18.281.06-3.134 24.486-17.473 41.913-21.948 24.402-6.266 43.842.704 65.649-10.651 26.558-13.83 35.954-17.17 52.58-21.88 5.252-1.488 19.59-5.796 23.64.6 3.22 5.084 5.464 5.12 13.095 6.682 5.158 1.056 8.755 6.318 15.206 2.648 11.827-6.73 11.053-24.316 22.236-33.283 9.362-7.505 19.664-12.831 27.09-22.924 5.894-8.011 10.594-21.595 8.705-24.786z"/></svg>
