<svg viewBox="0 0 195 402" xmlns="http://www.w3.org/2000/svg" fill-rule="evenodd" clip-rule="evenodd" stroke-linejoin="round" stroke-miterlimit="2"><path d="M137.61 340.658c-.62-.165-1.15-.477-1.527-1.015-1.737-2.477-2.174-10.457-2.247-12.447-.27-7.347 2.11-13.294 2.507-20.441.542-9.74-1.428-14.191-2.514-24.87-.25-2.464 1.139-12.153-.746-15.272-1.257-2.082-6.928-.626-8.16-1.187-1.888-.86-3.23-2.623-4.64-4.143-4.634-4.997-8.387-10.765-13.017-15.766-1.095-1.183-2.322-3.984-3.688-3.128-1.654 1.037-.626 3.872-.616 5.824.02 4.09.383 8.173.704 12.25.511 6.475.999 12.956 1.792 19.403.338 2.752 2.477 7.361 1.501 10.26-.755 2.243-8.312 5.324-9.053 5.624-7.74 3.13-14.909 2.252-14.906 11.358.004 15.362.113 30.732.78 46.08.077 1.789 1.886 9.674 3.406 11.77 2.194 3.027 3.883 1.681 4.87 5.268 1.478 5.372-.05 5.533 1.733 10.894.588 1.768 2.038 3.137 2.823 4.827 1.422 3.06 4.235 11.148-.362 13.319-3.891 1.837-12.325.742-16.361.444-2.908-.214-6.903-.239-9.547-2.174-4.237-3.102-4.393-5.922-4.066-10.762.273-4.02-.078-8.083.428-12.081.496-3.918 2.25-3.274 2.837-7.156.42-2.77.438-5.619.14-8.404-1.597-14.906-6.58-29.256-9.422-43.975-.952-4.93-.343-11.847-.306-16.486.087-11.259.157-11.154-1.393-22.405-2.179-15.81-2.473-15.658-4.194-31.433-.913-8.376-.94-18.42-2.978-26.802-.652-2.683-2.006-1.9-2.79-4.508-1.272-4.239-.468-9.518.225-13.62.394-2.337 1.728-3.016.774-5.326-.946-2.287-5.1-.575-6.918-1.827-6.76-4.659-18.165-14.784-23.303-19.66-8.963-8.507-22.81-14.545-18.6-28.667 1.255-4.214 4.444-7.59 6.795-11.305 7.18-11.342 7.343-11.067 14.168-22.678 2.075-3.528 4.86-6.725 6.228-10.584.883-2.491-1.668-5.552-.483-7.914 1.488-2.962 5.962-2.927 9.073-4.068 5.739-2.101 8.096-1.663 11.707-5.461 1.183-1.244 1.946-2.859 3.187-4.043 1.924-1.834 6.518-3.306 6.932-6.626.65-5.203-.41-7.724-1.19-12.79-.378-2.458.12-4.64-2.145-6.403-.489-.38-1.254.068-1.856-.077-2.467-.595-4.794-1.629-6.017-4.136-2.577-5.283 1.22-12.898 2.146-17.99.707-3.886.188-7.947 1.045-11.802C52.07 10.892 58.605 2.757 66.424.624c3.742-1.02 9.643-.622 12.932.008 1.85.354 3.632 1.11 5.267 2.045 4.243 2.426 8.385 5.011 10.814 9.36 2.642 4.73 2.257 11.139 2.311 16.062.068 6.052-.455 15.992-1.502 22.228-.255 1.513-.21 3.354-1.323 4.41-2.804 2.657-4.275-.01-6.685 2.958-3.307 4.072-3.765 11.652-1.773 16.314.916 2.147 5.24 3.698 6.835 4.136 4.797 1.32 9.9.259 14.63 2.283 10.39 4.448 8.058 17.786 11.614 26.312 1.515 3.636 8.973 7.494 9.092 12.096.018.7-1.547 6.309-1.203 8.596 1.421 9.435.97 17.946 1.469 27.48.146 2.788 1.63 5.397 1.776 8.185.209 3.956-.29 5.886-1.813 9.627-1.305 3.204-3.701 3.533-1.718 8.343.464 1.123 6.003 5.179 7.088 6.778 2.655 3.913-1.637 6.745-1.37 10.78.065.965.866 1.748 1.476 2.5 3.831 4.725 6.287 4.884 10.053 11.136 2.515 4.175 4.103 8.845 5.992 13.337 2.275 5.415 5.065 10.683 6.499 16.378 1.375 5.458 1.006 27.32.673 31.092-.887 10.068-3.945 19.919-4.269 30.022-.062 1.933-.166 4.025.684 5.763 4.544 9.294 17.65 10.255 23.595 17.69 1.733 2.168 2.896 3.98 1.37 6.244-.992 1.47-4.306 3.124-4.306 3.124l-.309.055c11.995 5.39 20.332 17.24 20.332 30.98 0 18.806-10.586 33.98-34.867 34.076-24.857.098-34.866-15.27-34.866-34.077 0-10.577 4.941-20.036 12.688-26.287zM35.574 132.645c-1.412-1.212-4.234 1.113-5.53 2.443-3.633 3.731-9.854 8.619-9.638 14.73.062 1.743 2.806 5.511 3.518 6.384 5.005 6.138 10.287 11.93 16.406 16.992.72.596 5.175 5.54 7.977 3.907a3.679 3.679 0 001.43-1.547c.651-1.353 1.157-2.805 1.382-4.29.345-2.27-3.444-4.868-4.186-6.339-1.808-3.583-3.22-7.357-4.624-11.117-1.405-3.768-2.575-7.62-3.795-11.451-1.026-3.223-1.53-8.5-2.94-9.712zm75.96 3.35c-.588-.183-.855 12.422.28 16.311.657 2.254 2.736 3.539 3.185 3.088.864-.865-.37-3.098-1.164-6.173-1.147-4.44-1.48-12.968-2.302-13.226z"/></svg>
