<svg viewBox="0 0 2560 600" xmlns="http://www.w3.org/2000/svg" xmlns:xlink="http://www.w3.org/1999/xlink" fill-rule="evenodd" clip-rule="evenodd" stroke-linejoin="round" stroke-miterlimit="2"><path d="M2750.2 352.4L1249.5 726.2c-.9.2-1.8-.3-2-1-.4-.8.1-1.7 1-1.9l1500.7-373.8" fill="#004c92" fill-rule="nonzero"/><path d="M1795.9-256.2l-1634 373.8m-1.1-2.8l1634-373.8" fill="none"/><path d="M2894.2 4.2L1260.2 378c-1 .2-2-.2-2.2-1-.3-.8.2-1.6 1.1-1.8l1634-373.8" fill="#fff" fill-rule="nonzero"/><path d="M2836.3 324.5L643.5 826.2c-4.8 1-7.4 5.2-5.8 9.2 1.5 4 6.7 6.4 11.5 5.3L2842 339m-185.8 48.2l-2014 501.7c-4.4 1-6.8 5.2-5.3 9.2 1.4 4 6.1 6.4 10.5 5.3l2014-501.7" fill="#1a2e46" fill-rule="nonzero"/><path d="M2643.9 449.9l-2014 501.7M-93.9 154.1L2001-325.1m-5.5-13.9L-99.3 140.2m-7.4 73.8L1988-265.2m-5.4-13.9L-112.1 200.1m-7.5 73.8l2094.7-479.2m-5.4-13.9L-125 260" fill="none"/><path d="M-132.5 333.8l2094.8-479.2c4.5-1 7-5 5.6-8.9-1.5-3.8-6.5-6-11-5L-138 319.9" fill="#1a2e46" fill-rule="nonzero"/><path d="M1626.8-57.2c-3.4-8.8-14.7-14-25.2-11.6L678.5 142.4c-10.5 2.4-16.3 11.5-12.9 20.3 3.5 8.8 14.8 14 25.3 11.5l152-34.7c10.5-2.5 21.8 2.7 25.2 11.5 3.5 8.8-2.3 17.8-12.8 20.2L771 190.5c-10.5 2.5-16.3 11.5-12.9 20.3 3.5 8.8 14.8 14 25.3 11.5l429-98.1c10.5-2.4 16.3-11.5 12.8-20.3-3.4-8.7-14.7-14-25.2-11.5l-197.1 45c-10.6 2.5-21.9-2.7-25.3-11.5-3.4-8.7 2.3-17.8 12.8-20.2L1614-37c10.5-2.4 16.3-11.4 12.8-20.2" fill="#1a2745" fill-rule="nonzero"/><path d="M231 311.3L1383.8 47.5c2.5-.5 3.9-2.7 3-4.8-.8-2.1-3.5-3.4-6-2.8L228 303.6" fill="#fff" fill-rule="nonzero"/><path d="M2387.8 405c-.8-2-3.5-3.3-6-2.7L1229 666c-2.5.6-3.9 2.7-3 4.8.8 2.2 3.5 3.4 6 2.8L2384.7 410c2.6-.6 4-2.8 3.1-4.9m116.8-550.5L1351.8 118.3c-2.5.6-3.9 2.8-3 4.9.8 2.1 3.5 3.3 6 2.8l1152.8-263.8" fill="#1a2e46" fill-rule="nonzero"/><path d="M2497.5-112.4L1344.8 151.3c-2.6.6-4 2.8-3.1 4.9.8 2 3.5 3.3 6 2.7l1152.8-263.7" fill="#fff" fill-rule="nonzero"/><path d="M2496.5-76.7c-.9-2-3.6-3.3-6-2.8L1337.6 184.3c-2.6.5-4 2.7-3.1 4.8.8 2.1 3.5 3.4 6 2.8L2493.4-71.8c2.5-.6 3.9-2.8 3-4.9m-7 33c-.8-2.1-3.5-3.4-6-2.8L1330.5 217.2c-2.5.6-4 2.8-3 4.9.7 2.1 3.4 3.3 6 2.8L2486.3-39c2.5-.5 4-2.7 3-4.8" fill="#1a2e46" fill-rule="nonzero"/><path d="M31.7 801.6l1203.5-275.3c3.4-.8 7.1.9 8.3 3.8 1.1 2.9-.8 5.8-4.2 6.6L35.8 812.1" fill="#1c2e4e" fill-rule="nonzero"/><path d="M2203.8 408.6c.7 2-.6 4.2-3 4.7l-849.2 194.3c-2.4.5-5-.7-5.9-2.7-.8-2 .6-4.1 3-4.7L2198 406c2.4-.5 5 .7 5.9 2.7" fill="#fff" fill-rule="nonzero"/><path d="M67.9 754.5l799.8-183c2.1-.4 3.3-2.2 2.6-4-.7-1.7-3-2.8-5-2.3l-201.7 46.1c-2.1.5-4.4-.5-5-2.3-.7-1.7.4-3.5 2.5-4l500.6-114.5c2-.5 3.2-2.3 2.6-4-.7-1.8-3-2.9-5-2.4l-716.6 164c-2.1.4-3.3 2.2-2.6 4 .7 1.7 3 2.8 5 2.3l87.7-20c2.1-.5 4.4.5 5 2.2.8 1.8-.4 3.6-2.5 4L65.4 748.3" fill="#1c2e4e" fill-rule="nonzero"/><path d="M1656.6 38.4c-.8-2.1-3.5-3.3-6-2.8L696.5 254c-2.5.6-3.9 2.7-3 4.8.7 2.1 3.4 3.4 6 2.8l240.5-55c2.5-.6 5.2.6 6 2.7.8 2.1-.5 4.3-3 4.8L345.8 350.6c-2.5.6-3.9 2.8-3 4.9.8 2 3.5 3.3 6 2.7l854.7-195.5c2.5-.6 3.9-2.8 3-4.9-.7-2-3.4-3.3-6-2.7L1096 179c-2.5.5-5.2-.7-6-2.8-.8-2.1.5-4.3 3-4.9l560.6-128.2c2.5-.6 3.8-2.7 3-4.8m40.2 456.9c-.7-2-3.2-3.1-5.6-2.6L806.8 695c-2.3.5-3.6 2.5-2.8 4.4.8 2 3.3 3.1 5.6 2.6l223-51c2.3-.6 4.8.6 5.5 2.5.8 2-.5 4-2.8 4.5L481.8 784.6c-2.3.5-3.6 2.6-2.8 4.5.7 2 3.2 3 5.5 2.5l792.3-181.2c2.4-.6 3.6-2.6 2.9-4.5-.8-2-3.3-3-5.6-2.5l-97 22.1c-2.3.6-4.8-.6-5.5-2.5-.8-2 .5-4 2.8-4.5L1694 499.6c2.3-.5 3.6-2.5 2.8-4.4" fill="#1a2e46" fill-rule="nonzero"/><path d="M1843.7 131.7c-4.4-11.3-19-18-32.6-14.9l-1192 272.7c-13.5 3.1-20.9 14.8-16.5 26.1 4.4 11.4 19 18 32.6 15L987.3 350c13.6-3.1 28.2 3.6 32.6 14.9 4.4 11.3-3 23-16.6 26.1l-117.1 26.8c-13.6 3.2-21 14.9-16.6 26.2 4.5 11.3 19 18 32.6 14.9l150.5-34.4c13.6-3.1 28.2 3.5 32.6 14.9 4.4 11.3-3 23-16.6 26.1l-299 68.4c-13.6 3.1-21 14.9-16.6 26.2 4.5 11.3 19 18 32.6 14.9l660.1-151c13.6-3.1 21-14.8 16.6-26.2-4.5-11.3-19-18-32.6-14.9L1355 400c-13.6 3.2-28.2-3.5-32.6-14.9-4.5-11.3 3-23 16.5-26.1l216.6-49.6c13.6-3 21-14.8 16.6-26.1-4.5-11.3-19-18-32.6-15l-345.6 79.2c-13.6 3-28.2-3.6-32.6-15-4.5-11.3 3-23 16.5-26l649.3-148.6c13.6-3.1 21-14.9 16.6-26.2" fill="#1a2745" fill-rule="nonzero"/><path d="M732.2 345.4c3.2 8.2 13.7 13 23.5 10.7L1613.3 160c9.8-2.2 15.1-10.6 12-18.8-3.3-8.1-13.8-13-23.5-10.7l-141.3 32.3c-9.7 2.2-20.2-2.6-23.4-10.7-3.2-8.2 2.1-16.6 11.9-18.8l78.4-18c9.7-2.2 15-10.6 11.9-18.8-3.2-8.1-13.7-13-23.5-10.7L1117.3 177c-9.8 2.2-15.1 10.6-12 18.8 3.2 8.2 13.7 13 23.5 10.7l183.1-41.9c9.8-2.2 20.3 2.6 23.5 10.8 3.2 8.1-2.2 16.5-12 18.8L744.3 326.6c-9.8 2.2-15.2 10.7-12 18.8" fill="#828383" fill-rule="nonzero"/><path d="M2285.1 72.4c-4.5-11.6-19.6-18.5-33.6-15.3l-1228 281c-14 3.1-21.6 15.2-17 26.9 4.5 11.6 19.6 18.5 33.6 15.3l202.2-46.3c14-3.2 29 3.7 33.6 15.4 4.5 11.7-3.1 23.7-17.1 27L1146.6 402c-14 3.2-21.6 15.3-17 27 4.5 11.6 19.5 18.5 33.5 15.3l570.7-130.6c14-3.2 21.6-15.2 17-26.9-4.5-11.7-19.5-18.5-33.5-15.3l-262.2 60c-14 3.1-29-3.7-33.6-15.4-4.6-11.7 3-23.8 17-27l829.6-189.7c14-3.2 21.6-15.3 17-27m-638.9 529.7c-2.3-6-10.1-9.6-17.3-8L993.2 739.7c-7.2 1.7-11.2 8-8.8 14 2.3 6 10.1 9.6 17.3 8l104.7-24c7.3-1.7 15 1.9 17.4 8 2.4 6-1.6 12.2-8.8 13.9l-58.1 13.2c-7.3 1.7-11.2 8-8.8 14 2.3 6 10.1 9.6 17.3 8L1361 727c7.2-1.7 11.1-8 8.8-14-2.4-6-10.2-9.6-17.4-8l-135.7 31.1c-7.3 1.7-15-1.9-17.4-8-2.4-6 1.6-12.2 8.8-13.9l429.4-98.2c7.2-1.7 11.2-8 8.8-14" fill="#1a2e46" fill-rule="nonzero"/><path d="M2004.3 295.9c-2-5.3-8.9-8.4-15.2-7L867 545.8c-6.3 1.4-9.8 6.9-7.7 12.2 2 5.2 8.8 8.3 15.1 6.9l347.5-79.5c6.3-1.4 13 1.7 15.1 7 2 5.2-1.4 10.7-7.7 12.1l-205.6 47c-6.3 1.5-9.8 7-7.7 12.2 2 5.3 8.8 8.4 15.1 7l55.6-12.8c6.3-1.4 13 1.7 15.1 7 2 5.2-1.4 10.7-7.7 12.1l-124.6 28.5c-6.3 1.5-9.7 7-7.7 12.2 2 5.3 8.9 8.4 15.2 7L1555.5 492c6.3-1.4 9.8-6.8 7.7-12.1-2-5.3-8.8-8.4-15.2-7l-320.9 73.5c-6.3 1.4-13-1.7-15.1-7-2-5.2 1.4-10.7 7.7-12.1l225.1-51.5c6.3-1.5 9.8-7 7.7-12.2-2-5.3-8.8-8.4-15.1-7L1317.8 484c-6.3 1.5-13.1-1.6-15.2-6.9-2-5.3 1.4-10.7 7.7-12.2l686.3-157c6.3-1.4 9.7-6.8 7.7-12.1" fill="#828383" fill-rule="nonzero"/><path d="M822.8 109c1.4 3.4 5.8 5.4 10 4.4l734.6-168c4.1-1 6.4-4.5 5-8-1.3-3.4-5.7-5.5-9.9-4.5l-227.4 52c-4.1 1-8.6-1-10-4.5-1.3-3.5 1-7 5.1-8l134.6-30.8c4.2-1 6.4-4.5 5-8-1.3-3.4-5.7-5.4-9.9-4.5l-36.3 8.3c-4.1 1-8.6-1-10-4.5-1.3-3.5 1-7 5.1-8l81.6-18.6c4.1-1 6.4-4.5 5-8-1.3-3.4-5.8-5.5-9.9-4.5l-378.8 86.6c-4.1 1-6.4 4.5-5 8 1.3 3.4 5.8 5.5 9.9 4.5l210-48c4.2-1 8.7 1 10 4.5 1.4 3.4-.9 7-5 8L1189-9c-4.2 1-6.4 4.5-5 8 1.3 3.4 5.7 5.4 9.8 4.5l78.3-18c4.2-.9 8.6 1.2 10 4.6 1.3 3.5-1 7-5.1 8L827.8 101c-4 .9-6.3 4.5-5 8m171.8 457c-.9-2.3-3.7-3.6-6.4-3L516.8 671c-2.6.6-4 2.9-3.2 5 .8 2.3 3.7 3.6 6.3 3l146-33.4c2.6-.6 5.5.7 6.3 2.9.9 2.2-.5 4.5-3.2 5.1l-86.4 19.8c-2.6.6-4 2.9-3.2 5 .9 2.3 3.7 3.6 6.4 3L609 676c2.6-.7 5.5.7 6.4 2.9.8 2.2-.6 4.5-3.3 5L560 696c-2.7.7-4.1 3-3.3 5.2 1 2.2 3.8 3.5 6.4 2.9l243-55.6c2.7-.6 4.2-3 3.3-5.1-.9-2.3-3.7-3.6-6.4-3l-134.8 30.9c-2.6.6-5.5-.7-6.3-3-.9-2.1.5-4.4 3.2-5l94.6-21.7c2.6-.6 4-2.9 3.2-5-.8-2.3-3.7-3.6-6.4-3L706.2 645c-2.6.6-5.5-.7-6.3-3-1-2.1.5-4.4 3.2-5l288.3-66c2.6-.6 4-2.9 3.2-5" fill="#71706e" fill-rule="nonzero"/><path d="M1913.2 172.8c-1.7-4.2-7-6.7-12.1-5.5L1005.5 372c-5 1.2-7.7 5.5-6.1 9.7 1.6 4.3 7 6.7 12 5.6l277.3-63.4c5-1.2 10.5 1.3 12.1 5.5 1.7 4.2-1 8.5-6.1 9.7l-164.1 37.5c-5 1.2-7.8 5.5-6.2 9.7 1.7 4.2 7.1 6.7 12.1 5.6l44.3-10.2c5-1.1 10.5 1.3 12.1 5.6 1.7 4.2-1 8.5-6.1 9.7l-99.4 22.7c-5 1.2-7.8 5.5-6.2 9.7 1.7 4.2 7 6.7 12.1 5.5L1555 329.4c5-1.1 7.8-5.5 6.2-9.7-1.6-4.2-7-6.7-12.1-5.5l-256 58.6c-5.1 1.1-10.5-1.4-12.2-5.6-1.6-4.2 1.1-8.5 6.2-9.7l179.6-41c5-1.2 7.8-5.6 6.2-9.8-1.7-4.2-7-6.7-12.1-5.5l-95.4 21.8c-5 1.2-10.5-1.3-12.1-5.5-1.7-4.2 1-8.6 6.1-9.7L1907 182.5c5-1.2 7.8-5.5 6.2-9.7" fill="#1a2e46" fill-rule="nonzero"/><path d="M1049.7 401.7c.7 2-.6 4-3 4.6L213.4 596.9c-2.4.6-5-.6-5.8-2.6-.7-2 .6-4 3-4.6l833.3-190.6c2.4-.6 5 .6 5.8 2.6" fill="#fff" fill-rule="nonzero"/><path d="M3023-138L1389 235.8c-.9.2-1.9-.3-2.2-1-.3-.9.2-1.7 1.2-1.9l1633.9-373.8M-195.7 259.7L1438.2-114c1-.2 2 .3 2.3 1 .3.9-.3 1.7-1.2 1.9l-1634 373.8" fill="#71706e" fill-rule="nonzero"/><path d="M177.1 351.5l1634-373.8c1-.2 2 .2 2.2 1 .3.8-.2 1.6-1.1 1.9l-1634 373.8" fill="#2a327c" fill-rule="nonzero"/><path d="M-187.3 769l1633.9-373.7c1-.3 2 .2 2.2 1 .3.8-.2 1.6-1.1 1.8l-1634 373.8M2869.4-275.2L1235.5 98.7c-1 .2-2-.3-2.3-1-.3-.9.2-1.7 1.2-1.9l1634-373.8M-490 377.3L1143.8 3.5c.9-.2 2 .3 2.2 1 .3.9-.2 1.7-1.1 1.9L-489 380.2M227.5 268l1634-373.8c.9-.2 1.9.2 2.2 1 .3.8-.2 1.6-1.2 1.8L228.6 270.8" fill="#004c92" fill-rule="nonzero"/><path d="M139.5 169.6l1633.9-373.8c1-.2 2 .3 2.3 1 .3.9-.2 1.7-1.2 1.9L140.6 172.5" fill="#1a2e46" fill-rule="nonzero"/><path d="M1185.9 68.2c-1-2.6-4.4-4.1-7.5-3.4l-554 126.7c-3.2.7-4.9 3.4-3.9 6 1 2.6 4.4 4.2 7.5 3.5l171.5-39.3c3.2-.7 6.5.8 7.5 3.4 1 2.6-.7 5.3-3.8 6l-101.5 23.3c-3.1.7-4.8 3.4-3.8 6s4.4 4.1 7.5 3.4l27.4-6.3c3.1-.7 6.5.8 7.5 3.4 1 2.6-.7 5.3-3.8 6L675 221c-3.2.7-4.9 3.4-3.8 6 1 2.6 4.3 4.2 7.4 3.4l285.7-65.3c3.1-.7 4.8-3.4 3.8-6s-4.4-4.2-7.5-3.4l-158.4 36.2c-3.1.7-6.5-.8-7.5-3.4-1-2.6.7-5.3 3.8-6L909.7 157c3-.8 4.8-3.4 3.8-6-1-2.7-4.4-4.2-7.5-3.5L847 161c-3.2.7-6.5-.8-7.5-3.4-1-2.6.7-5.3 3.8-6L1182 74.2c3-.7 4.8-3.4 3.8-6m192 142.6c1 2.6 4.3 4.2 7.4 3.5l554-126.8c3.2-.7 4.9-3.4 3.9-6-1-2.6-4.4-4.1-7.5-3.4L1764 117.3c-3.1.7-6.5-.8-7.5-3.4-1-2.6.7-5.3 3.8-6l101.5-23.2c3.1-.7 4.8-3.4 3.8-6s-4.4-4.2-7.5-3.5l-27.4 6.3c-3.1.7-6.5-.8-7.5-3.4-1-2.6.7-5.3 3.8-6l61.5-14c3.2-.8 4.9-3.5 3.8-6-1-2.7-4.3-4.2-7.4-3.5l-285.7 65.3c-3.1.8-4.8 3.4-3.8 6s4.4 4.2 7.5 3.5L1761.4 87c3.1-.7 6.5.8 7.5 3.4 1 2.6-.7 5.3-3.8 6L1653.9 122c-3 .7-4.8 3.4-3.8 6s4.4 4.1 7.5 3.4l59-13.5c3.2-.7 6.5.8 7.5 3.4 1 2.6-.6 5.3-3.8 6l-338.7 77.5c-3.2.7-4.9 3.4-3.9 6M238.5 529.2c.7 1.8 3 2.8 5 2.3l800-183c2-.5 3.2-2.3 2.5-4-.7-1.8-3-2.8-5-2.3l-201.7 46.1c-2.1.5-4.4-.5-5-2.3-.7-1.7.4-3.6 2.5-4l500.6-114.6c2.1-.4 3.2-2.2 2.6-4-.7-1.8-3-2.8-5-2.3L618.3 425c-2.1.4-3.3 2.2-2.6 4 .7 1.7 3 2.8 5 2.3l87.7-20c2.1-.6 4.4.5 5 2.2.8 1.8-.4 3.6-2.5 4L241.1 525.3c-2 .4-3.2 2.3-2.6 4" fill="#1a2e46" fill-rule="nonzero"/><path d="M223.5 185l2111.3 2.8-92.4 124.6L328 324.9 223.5 185z" fill="#366093" fill-rule="nonzero"/><path d="M312 346.8l1940.3-4 167.9 124L203 470.2l108.8-123.4z" fill="#1a2745" fill-rule="nonzero"/><use xlink:href="#prefix___Image1" x="1065" y="55" width="389" height="503"/><path d="M1430.4 155.6c-.3-6.3-70.7 3.6-76.2-79.5-.4-5.3-81.1-13-101.7-12.3-20.7.6-91.3 4.7-99.8 12 0 0-4.8 48.5-29 61.8-31.6 17.4-46 16.2-46 16.2s-25.1 210.8 49.6 294.1c74.7 83.3 123.7 87.7 123.7 87.7s74.8-25.3 131.4-92.6c56.6-67.3 51-217.4 48-287.4" fill="#366093" fill-rule="nonzero"/><path d="M1412.2 170.4c-.3-5.6-63.5 3.2-68.4-71.4-.3-4.8-72.8-11.6-91.3-11-18.5.5-82 4.2-89.5 10.7 0 0-4.3 43.6-26 55.5-28.4 15.6-41.3 14.5-41.3 14.5s-22.6 189.2 44.5 264c67 74.8 111 78.8 111 78.8s67.2-22.8 118-83.2c50.7-60.4 45.8-195 43-258" fill="#fff" fill-rule="nonzero"/><path d="M1403 177.8c-.1-5.3-59.8 3-64.4-67.3-.3-4.5-68.6-11-86-10.4-17.5.5-77.3 4-84.5 10.1 0 0-4 41-24.5 52.3-26.8 14.8-39 13.7-39 13.7s-21.2 178.4 42 249c63.2 70.4 104.7 74.2 104.7 74.2s63.3-21.5 111.2-78.4c47.9-57 43.2-184 40.6-243.2" fill="#366093" fill-rule="nonzero"/><path d="M1255 61.9h-2.6c-.9 0-90.2 3.3-100.8 12.4l-.6.5v.8c0 .5-5 47.7-28 60.4-27.7 15.2-42 16-44.6 16h-.5l-1.7-.2-.2 1.8c0 .5-6.3 53.5-3.2 116.1 1.7 36.8 6.3 69.6 13.6 97.6 9 35.1 22.4 62.7 39.6 81.9 38.8 43.2 70.6 64.9 90.4 75.5a102 102 0 0034.5 12.8h.6c.8-.3 76-26.3 132.2-93.2 24.6-29.3 40.4-77.7 46.8-143.8 5.5-56.8 3-114.2 1.6-145-.1-2.8-3.2-3.4-10-4.6-18.6-3.4-62-11.2-66.2-75-.1-2-.3-5-42.3-9.7-21.9-2.5-46.6-4.3-58.6-4.3m0 1.9c24 0 98.8 7.2 99.2 12.3 5.5 83.1 75.9 73.2 76.2 79.5 3 70 8.6 220.1-48 287.4-56.6 67.3-131.4 92.6-131.4 92.6s-49-4.4-123.7-87.7-49.6-294.1-49.6-294.1h.7c3.2 0 17.6-1 45.3-16.2 24.2-13.3 29-61.8 29-61.8 8.5-7.3 79.1-11.4 99.8-12h2.5" fill-rule="nonzero"/><path d="M1250.2 154c-7 0-12.8 2.5-17.4 7.4a24 24 0 00-6.8 17c0 4.7 1.4 9 4.3 13 4.3 6 14.8 14.4 31.4 24.7a245.8 245.8 0 0127 18.7l-6.8-20.6c-1.8-5.5-3-8.3-3.6-9.1-.7-1.3-2-2.5-3.7-3.6-1.4-1-3.4-1.4-6.3-1.7l-1.6-.1v-5h21.1c-1.7-8.5-3.5-14.8-5.5-18.8-2.5-5-7-12-13.7-16.3a34 34 0 00-18.4-5.6M1222 290.7c3.3 4.9 7.7 9 13.1 12.4a40 40 0 0021 5.8c8.6 0 15.4-2.6 20.2-7.8 5-5.2 7.3-11.2 7.3-18.3 0-3.8-1-7.8-2.8-11.9-1.8-4-4.8-7.8-8.8-11.3-2.7-2.4-10-7.5-23-16a229.4 229.4 0 01-27-19.5v66.6zm31.9 32.4c-2.5 0-5.2-.1-7.8-.6l-1.7-.2c-2.5-.1-6.7-.3-12.2-3.2h-37.7v-7.4h4.9c2.4 0 4.3-1.5 6-4.6.7-1.4 1.1-6.2 1.1-14.2v-33.2h-37.9V293c0 6.7 1.1 11.2 1.5 12.4a9 9 0 002.7 3.5l.6.5c1.5 1.2 3 2.4 4.2 2.4h3v7.4H1141v-7.4h5.4c2.4 0 4-1.3 5.8-4.6.8-1.5.8-7.8.8-14v-85.1c.1-3.6.1-6.5-.2-7.7l-.1-.4c-.4-1.3-.7-2.2-1.4-2.9-2-1.5-3.5-2.2-4.9-2.2h-5.4v-5.6h39.6v5.6h-3c-1.5 0-3.4.8-5.3 2.2-1 .8-2 2.4-2.4 3.9-.3 1.3-1.4 5.3-1.4 11.6v38h38v-38c0-5.3 0-10.4-.6-12.2-.4-1.6-1-2.6-1.8-3.2-2-1.6-3.5-2.3-4.8-2.3h-5v-5.6h11v-1.8c0-12.9 4.3-24 12.6-33.2 8.3-9.1 19.1-13.7 32-13.7 7.8 0 16.2 2.3 25.6 7.1l1.4.7c2.9 1.5 5.4 2.8 6.4 2.8h1.3l.9.1c.7 0 1-.1 1.2-.3l.4-.5c1-1 1.5-1.5 2-4.3l.3-1.4h6.6v55.8c0 .3.1.6.3.8l.2.7.2.4c.3.5.6 1 .7 2.1v.4c.5 2.9 1.2 8 3 13.7l20.5 63.2 19-62.3c2-6.5 3-11 3-13.3 0-1.2-.5-2.4-1.4-3.5-1-1.2-2.8-2.1-5.3-2.6h-.2c-.6-.2-2.1-.5-2.1-2.1v-3.2h27.5v4.4l-1 .5c-1.5.6-3.8 2.1-5.2 3.8a24.9 24.9 0 00-3.3 8.4l-1.1 4.2-30.8 101.2h-4.9l-10.1-31.7a48.7 48.7 0 01-46.7 37.4h-4.5" fill-rule="nonzero"/><path d="M1288.9 237.4c-5-4.6-14.4-11.1-28-19.7-16.9-10.5-27.5-18.9-32-25.2-3.1-4.2-4.7-9-4.7-14.2 0-6.8 2.5-12.9 7.4-18.2 4.9-5.3 11.1-8 18.6-8 6.6 0 13 2 19.3 6 6.2 3.9 11 10.2 14.3 17a92 92 0 016.1 21.5h-21.5v1.4a13.5 13.5 0 0111.4 6.1c.7 1.1 2 4.3 3.7 9.4l9.1 27.8a46.8 46.8 0 00-3.7-3.9m-11.5 65a28 28 0 01-21.3 8.3c-7.8 0-15.4-2-22-6a43.7 43.7 0 01-13.9-13.4v-71c1.7.8 1.8 1.5 2.6 2.2 5.3 4.9 14.4 11.4 27 19.6a268.7 268.7 0 0123.1 16 37 37 0 019.3 12c2 4.3 3 8.5 3 12.7 0 7.6-2.5 14.1-7.8 19.6m58.2-105.8v1.4l1 .2c3 .7 5 1.7 6.2 3.3a7.4 7.4 0 011.8 4.7c0 2.6-1 7.2-3 13.9l-20.6 67.5-22.2-68.4c-2-6-2.7-11.6-3-14.4-.3-1.2-.7-1.5-1-2.4 0-.1-.5-.9-.5-1.9v-54h-3.5c-.7 3.7-1.7 4.4-2.9 5.7-1.2 1.3-2.7.8-4.6.8-1.6 0-4.5-1.6-8.5-3.7-8.8-4.5-17-7-24.8-7a39.8 39.8 0 00-30.8 13.2 46 46 0 00-12 35.6H1196v1.8h3.2c2 0 4 1.2 5.8 2.7 1.4 1 2 2.6 2.5 4.1.5 2 .5 6.5.5 12.8v39.8h-41.3v-39.8c0-6 1-10.1 1.4-12.1.6-2 1.8-4 3.1-5a11 11 0 016.2-2.5h1.4v-1.8h-36.2v1.8h3.7c2 0 4 1.2 6 2.7 1.3 1 1.6 2.6 2 4.1.6 2 .3 6.5.3 12.8V293c0 7.4 0 13.2-1 15.1-1.6 3-3.7 5.6-7.3 5.6h-3.7v3.7h36.2v-3.7h-1.4c-2 0-4-1.8-5.8-3.3-1.4-1-3-3-3.4-4.4-.5-2-1.5-6.7-1.5-13v-35h41.3v35c0 7.4-.2 13.2-1.3 15.1-1.6 3-4 5.6-7.5 5.6h-3.2v3.7h36.4c7 3.7 11.6 3 13.8 3.3 3.8.8 7.8.6 12 .6 13.6 0 24.7-5 33.3-14.4a46 46 0 0012.8-28.8l12 37.4h2.3l30.4-100c1.8-5.7 2.6-10.3 4.8-13.1 1.6-2 4.1-3.6 5.8-4.3v-1.4h-24z" fill-rule="nonzero"/><path d="M1288.9 237.4c-5-4.6-14.4-11.1-28-19.7-16.9-10.5-27.5-18.9-32-25.2-3.1-4.2-4.7-9-4.7-14.2 0-6.8 2.5-12.9 7.4-18.2 4.9-5.3 11.1-8 18.6-8 6.6 0 13 2 19.3 6 6.2 3.9 11 10.2 14.3 17a92 92 0 016.1 21.5h-21.5v1.4a13.5 13.5 0 0111.4 6.1c.7 1.1 2 4.3 3.7 9.4l9.1 27.8a46.8 46.8 0 00-3.7-3.9m-11.5 65a28 28 0 01-21.3 8.3c-7.8 0-15.4-2-22-6a43.7 43.7 0 01-13.9-13.4v-71c1.7.8 1.8 1.5 2.6 2.2 5.3 4.9 14.4 11.4 27 19.6a268.7 268.7 0 0123.1 16 37 37 0 019.3 12c2 4.3 3 8.5 3 12.7 0 7.6-2.5 14.1-7.8 19.6m58.2-105.8v1.4l1 .2c3 .7 5 1.7 6.2 3.3a7.4 7.4 0 011.8 4.7c0 2.6-1 7.2-3 13.9l-20.6 67.5-22.2-68.4c-2-6-2.7-11.6-3-14.4-.3-1.2-.7-1.5-1-2.4 0-.1-.5-.9-.5-1.9v-54h-3.5c-.7 3.7-1.7 4.4-2.9 5.7-1.2 1.3-2.7.8-4.6.8-1.6 0-4.5-1.6-8.5-3.7-8.8-4.5-17-7-24.8-7a39.8 39.8 0 00-30.8 13.2 46 46 0 00-12 35.6H1196v1.8h3.2c2 0 4 1.2 5.8 2.7 1.4 1 2 2.6 2.5 4.1.5 2 .5 6.5.5 12.8v39.8h-41.3v-39.8c0-6 1-10.1 1.4-12.1.6-2 1.8-4 3.1-5a11 11 0 016.2-2.5h1.4v-1.8h-36.2v1.8h3.7c2 0 4 1.2 6 2.7 1.3 1 1.6 2.6 2 4.1.6 2 .3 6.5.3 12.8V293c0 7.4 0 13.2-1 15.1-1.6 3-3.7 5.6-7.3 5.6h-3.7v3.7h36.2v-3.7h-1.4c-2 0-4-1.8-5.8-3.3-1.4-1-3-3-3.4-4.4-.5-2-1.5-6.7-1.5-13v-35h41.3v35c0 7.4-.2 13.2-1.3 15.1-1.6 3-4 5.6-7.5 5.6h-3.2v3.7h36.4c7 3.7 11.6 3 13.8 3.3 3.8.8 7.8.6 12 .6 13.6 0 24.7-5 33.3-14.4a46 46 0 0012.8-28.8l12 37.4h2.3l30.4-100c1.8-5.7 2.6-10.3 4.8-13.1 1.6-2 4.1-3.6 5.8-4.3v-1.4h-24zm-169.9 170.9l-19.6-26v19.2c0 1.7.3 2.9 1 3.4.7.6 1.5.9 2.4.9h1.2v1.8h-11.5V365h.4c1.5 0 2.6-.3 3.1-1 .6-.6.9-1.7.9-3.3v-22.6l-.6-.7a5.6 5.6 0 00-1.5-1.6c-.4-.2-1-.3-1.9-.4h-.4v-1.8h11.2l14.2 19.2v-12.6c0-2.2-.4-3.2-.7-3.6-.6-.8-1.6-1.2-3-1.2h-.5l-.2-.4v-1.4h10.8v1.8h-.4c-1.5.2-2.1.5-2.4.7-.3.2-.6.6-.8 1-.2.7-.3 1.7-.3 3.1v27.3h-1.4z" fill="#fff" fill-rule="nonzero"/><path d="M1171.4 333.2h-11.6v2.7h1c1.3 0 2.2.3 2.8 1 .2.3.5 1 .5 3.3v11.2l-13.2-17.9-.3-.3h-11.9v2.7h.9c1 0 1.5.2 1.7.4.3.1.7.5 1.4 1.4l.5.6v22.4c0 1.5-.3 2.5-.8 3-.4.5-1.4.8-2.8.8h-.9v2.8h12.4v-2.8h-1.6c-.8 0-1.5-.2-2.2-.8-.7-.5-.8-2-.8-3v-17.9l18.7 24.9.3.3h2v-27.8c0-1.7.1-2.5.3-2.8l.6-1c.2 0 .7-.3 2.3-.5l.7-.1v-2.6zm-.9.9v.9a7 7 0 00-2.5.7c-.4.2-.8.7-1 1.3-.3.6-.4 1.7-.4 3.2v26.9h-.7l-20.3-26.9v20.5c0 1.9.4 3.1 1.2 3.8.8.6 1.7 1 2.7 1h.7v.8h-10.6v-.8c1.7 0 2.8-.4 3.4-1.1.7-.7 1-2 1-3.7V338l-.6-.9a6 6 0 00-1.7-1.7c-.5-.2-1.2-.4-2.1-.4v-.9h10.6l14.8 20v-13.9c0-1.9-.3-3.2-.8-3.9-.7-.9-1.8-1.3-3.4-1.3h-.1v-.9h9.8" fill-rule="nonzero"/><path d="M1172 366.8V365h1.5c.8 0 1.4-.1 1.9-.4.3-.2.5-.5.7-1 0-.1.2-.7.2-2.8V337l-.7-1c-.5-.4-1.2-.6-2-.6h-1.5v-1.8h25.9v10.5h-1.6v-.4c-.5-2.2-1-3.8-1.8-4.8-.7-1-1.7-1.6-3-2-.8-.3-2.4-.5-4.6-.5h-2.6v12.2h.1c1.8 0 3-.6 3.8-1.7.8-1.2 1.3-3 1.6-5.5v-.4h1.7v17.8h-1.7v-.4a13 13 0 00-1.1-4.4c-.5-1-1.1-1.8-1.8-2.1-.6-.3-1.5-.5-2.6-.6v8.6l.1 3.1c.2.3.3.6.7.8.2.1.6.3 1.6.3h1.8c2.7 0 4.8-.7 6.4-2 1.6-1.3 2.8-3.4 3.5-6.1v-.4h1.7l-1.4 11.2H1172z" fill="#fff" fill-rule="nonzero"/><path d="M1198.4 333.2h-26.7v2.7h1.8c.8 0 1.4.2 1.8.5.2.2.4.4.5.8v26.2c-.2.4-.4.6-.6.7-.4.3-1 .4-1.7.4h-1.8v2.8h27.4l.1-.8 1.4-10.3.1-1h-2.4l-.2.6a11 11 0 01-3.3 6 9.5 9.5 0 01-6.2 1.8h-1.8c-1 0-1.3-.1-1.4-.2a1 1 0 01-.5-.5l-.1-3v-8a5 5 0 012 .4c.6.3 1.1 1 1.6 2s.9 2.4 1 4.1l.1.9h2.5v-18.8h-2.5v.9c-.3 2.3-.8 4-1.5 5.2-.7 1-1.7 1.5-3.2 1.5V337h2.2c2.7 0 3.9.2 4.4.4 1.2.4 2.2 1 2.9 1.9.6.9 1.2 2.4 1.6 4.6l.1.8h2.4v-11.4zm-.8.9v9.5h-.9c-.4-2.3-1-4-1.8-5-.7-1-1.8-1.7-3.2-2.2-.9-.3-2.4-.4-4.7-.4h-3v13h.5c2 0 3.3-.6 4.2-1.8.8-1.3 1.3-3.2 1.6-5.7h.8v16.9h-.8c-.2-1.9-.6-3.4-1.1-4.6a5 5 0 00-2-2.3 7 7 0 00-3.3-.6v9c0 1.8.1 3 .2 3.3.2.4.4.7.8 1 .4.2 1 .4 1.9.4h1.8c2.8 0 5-.7 6.7-2.1 1.7-1.4 2.9-3.6 3.6-6.4h.8l-1.3 10.2h-25.9v-.8h1c.9 0 1.6-.2 2.1-.5.4-.3.7-.6.9-1.2.2-.4.2-1.4.2-3v-23.9c-.2-.5-.5-1-.9-1.3-.6-.4-1.3-.6-2.3-.6h-1v-.9h25" fill-rule="nonzero"/><path d="M1218 367.6c-2.7 0-4.7-.4-6.2-1.2-2-1-3.5-2.4-4.3-4.1a15 15 0 01-1.2-6.6v-15.8c0-2.3-.2-3-.3-3.3-.1-.3-.4-.6-.8-.8-.2-.2-.8-.4-2.2-.4h-.6v-1.8h16.3v1.8h-1.2c-1.4 0-2 .2-2.2.4-.3.2-.6.5-.7.8-.1.3-.3 1-.3 3.3v15.8c0 2.8.2 4.6.6 5.5.4.9 1 1.6 1.8 2.2.9.5 2 .8 3.3.8 1.5 0 2.9-.4 4-1 1-.8 1.8-1.8 2.3-3.1.6-1.3.8-3.7.8-7v-13.2c0-1.4-.1-2.3-.3-2.9-.3-.5-.6-.9-1-1-.5-.4-1.4-.6-2.5-.6h-.5v-1.8h11.3v1.8h-1c-.8 0-1.5.2-2 .5-.4.3-.8.8-1 1.4a8 8 0 00-.3 2.6v12.2c0 3.9-.2 6.7-.7 8.4a9.6 9.6 0 01-3.5 4.9 12 12 0 01-7.6 2.2" fill="#fff" fill-rule="nonzero"/><path d="M1234.5 333.2h-12v2.7h.8c1 0 1.9.2 2.4.4.2.2.5.5.7 1 .1.2.3 1 .3 2.6V353c0 3.3-.3 5.6-.8 6.9a6.1 6.1 0 01-2.2 2.8c-1 .7-2.2 1-3.7 1-1.2 0-2.3-.2-3-.7a4.4 4.4 0 01-1.7-2c-.3-.5-.5-2-.5-5.3v-15.8c0-2.4.1-3 .2-3 0-.4.3-.6.5-.7.2-.1.6-.3 2-.3h1.6v-2.7H1202v2.7h1c1.4 0 1.9.2 2 .3l.6.6c0 .1.2.6.2 3.1v15.8c0 2.8.5 5.1 1.3 6.8a10 10 0 004.5 4.3c1.5.8 3.6 1.2 6.4 1.2 3.3 0 5.9-.7 7.8-2.3a10 10 0 003.7-5c.5-1.9.8-4.6.8-8.6V340c0-1.6.1-2.2.2-2.4.2-.5.5-1 .9-1.2a3 3 0 011.6-.4h1.5v-2.7zm-.9.9v.9h-.6c-.8 0-1.5.2-2 .5-.6.4-1 1-1.3 1.7-.2.5-.3 1.4-.3 2.7v12.2a34 34 0 01-.7 8.2 9 9 0 01-3.4 4.7 11.6 11.6 0 01-7.3 2.1 13 13 0 01-6-1.1 9 9 0 01-4.1-4c-.8-1.5-1.2-3.6-1.2-6.3v-15.8c0-1.9 0-3-.3-3.5-.2-.4-.5-.8-1-1-.4-.3-1.2-.4-2.4-.4h-.2v-.9h15.5v.9h-.8a5 5 0 00-2.4.4c-.4.2-.7.6-1 1-.1.5-.2 1.7-.2 3.5v15.8c0 2.9.2 4.8.6 5.7.4 1 1 1.7 2 2.3 1 .7 2.1 1 3.5 1 1.6 0 3-.4 4.1-1.2 1.2-.8 2-1.9 2.6-3.2.6-1.4.9-3.8.9-7.3v-13c0-1.4-.2-2.5-.5-3-.2-.7-.6-1.1-1-1.4-.7-.3-1.6-.5-2.8-.5v-.9h10.3" fill-rule="nonzero"/><path d="M1264.9 367.5l-7.2-20-7.8 20h-1.4l-10-26.6a27.4 27.4 0 00-2-4.7c-.3-.4-1-.7-1.7-.8h-.4v-1.8h13.8v1.8h-.4c-1.2 0-1.7.3-1.8.4a1 1 0 00-.4.8c0 .4.2 1.3 1 3.7l5.5 14.6 4.3-11-1.2-3.3-1.5-3.6c-.4-.6-.7-1-1.1-1.2a4 4 0 00-2-.4h-.4v-1.8h15.4v1.8h-.4c-1 0-1.7.1-2.1.3a1 1 0 00-.5.4 1 1 0 00-.2.6c0 .1.1.7 1 3.2l5 14.1 4.5-12.7a30 30 0 001-2.8l.1-1.4c0-.5-.2-.9-.5-1.2-.2-.2-.7-.4-2-.5h-.5v-1.8h8.6v1.8h-.4c-.4 0-.8.2-1.2.5-.3.2-.6.6-.8 1.1l-1.4 3.6-9.5 27h-1.4z" fill="#fff" fill-rule="nonzero"/><path d="M1280 333.2h-9.4v2.7h.8c1.4 0 1.8.3 1.9.4 0 .1.3.3.3.8 0 .4 0 .8-.2 1.3 0 .3-.3 1-1 2.8l-4 11.5-4.6-13-1-3 .1-.4.3-.2c.3 0 .8-.2 2-.2h.8v-2.7h-16.2v2.7h.8c1 0 1.5.2 1.8.3.3.2.6.5.9 1l1.5 3.6 1.1 3-3.8 9.9-5-13.6c-1-2.5-1-3.2-1-3.5l.1-.4s.4-.3 1.6-.3h.8v-2.7H1234v2.6l.8.1c.7 0 1.2.3 1.4.6.2.3.7 1.3 2 4.6l9.9 26.3.2.6h2l.2-.6 7.3-18.6 6.6 18.6.3.6h2l.2-.6 9.4-26.6 1.4-3.6c.2-.4.4-.8.7-1a2 2 0 011-.3h.8v-2.7zm-.8.9v.9c-.5 0-1 .2-1.4.5-.4.3-.7.7-1 1.3l-1.4 3.7-9.4 26.6h-.9l-7.4-20.8-8.1 20.8h-.9l-9.8-26.3c-1-2.7-1.7-4.3-2-4.8-.5-.6-1.2-1-2.1-1v-.9h13v.9c-1 0-1.8.2-2.1.5-.4.3-.5.7-.5 1.1 0 .6.3 2 1 3.9l6 15.6 4.6-12.2-1.2-3.4-1.6-3.8c-.3-.6-.8-1-1.2-1.3-.5-.3-1.2-.4-2.2-.4v-.9h14.5v.9c-1 0-1.7 0-2.1.2-.3.2-.6.3-.8.6l-.2.9c0 .4.3 1.5 1 3.3l5.4 15.3 4.9-13.8 1-3 .1-1.4a2 2 0 00-.6-1.5c-.4-.4-1.2-.6-2.4-.6v-.9h7.8" fill-rule="nonzero"/><path d="M1280 366.8V365h1.5c.8 0 1.4-.1 1.9-.4.3-.2.5-.5.7-1 0-.1.2-.7.2-2.8v-21.2c0-2-.1-2.7-.2-2.9-.1-.3-.4-.6-.8-.9-.4-.2-1-.4-1.8-.4h-1.4v-1.8h16.5v1.8h-1.4c-.8 0-1.5.2-2 .5-.2.2-.5.5-.6 1-.1 0-.2.6-.2 2.7v21.2c0 2 0 2.7.2 3l.8.8c.4.3 1 .4 1.8.4h1.4v1.8H1280z" fill="#fff" fill-rule="nonzero"/><path d="M1297 333.2h-17.4v2.7h1.9a3 3 0 011.6.3c.2.2.5.4.6.7 0 0 .2.5.2 2.7v21.2c0 2.1-.2 2.6-.2 2.6-.1.4-.3.6-.5.7-.4.3-1 .4-1.7.4h-1.9v2.8h17.4v-2.8h-1.8a3 3 0 01-1.6-.3c-.3-.2-.5-.4-.6-.7 0 0-.2-.5-.2-2.7v-21.2l.1-2.6c.2-.4.4-.6.6-.7.4-.3 1-.4 1.7-.4h1.8v-2.7zm-.8.9v.9h-1c-.9 0-1.6.1-2.1.5-.4.2-.7.6-1 1.1-.1.4-.2 1.4-.2 3v21.2c0 1.7.1 2.7.3 3.1.1.4.5.8 1 1.1.5.3 1.1.5 2 .5h1v.8h-15.7v-.8h1c.9 0 1.6-.2 2.1-.5.4-.3.7-.6.9-1.2.1-.4.2-1.4.2-3v-21.2c0-1.6 0-2.7-.2-3-.2-.5-.5-.9-1-1.2-.5-.3-1.2-.4-2-.4h-1v-.9h15.7" fill-rule="nonzero"/><path d="M1297.7 366.8V365h1.4c.8 0 1.4-.1 1.9-.4.3-.2.5-.5.7-1 0-.1.2-.7.2-2.8v-21.2l-.1-2.6c-.1-.4-.3-.7-.7-1-.4-.4-1.1-.6-2-.6h-1.4v-1.8h25.9v10.5h-1.6l-.1-.4c-.4-2.2-1-3.8-1.7-4.8s-1.8-1.6-3-2c-.9-.3-2.4-.5-4.6-.5h-2.7v12.2h.2c1.8 0 3-.6 3.8-1.7a12 12 0 001.5-5.5v-.4h1.7v17.8h-1.6v-.4c-.2-1.8-.6-3.2-1.1-4.4-.5-1-1.2-1.8-1.8-2.1-.6-.3-1.5-.5-2.7-.6v8.6c0 2.3.2 3 .2 3.1.1.3.3.6.6.8.2.1.7.3 1.7.3h1.7c2.7 0 5-.7 6.5-2 1.6-1.3 2.8-3.4 3.5-6.1v-.4h1.7l-1.5 11.2h-26.6z" fill="#fff" fill-rule="nonzero"/><path d="M1324 333.2h-26.8v2.7h1.9c.8 0 1.4.2 1.8.5.2.2.4.4.5.8v23.6l-.1 2.6c-.1.4-.3.6-.5.7-.4.3-1 .4-1.7.4h-1.9v2.8h27.5l.1-.8 1.4-10.3.1-1h-2.5l-.1.6a11 11 0 01-3.4 6 9.5 9.5 0 01-6.1 1.8h-1.8c-1 0-1.3-.1-1.4-.2a1 1 0 01-.5-.5l-.1-3v-8c.8 0 1.5.1 2 .4.6.3 1.1 1 1.6 2s.9 2.4 1 4.1l.1.9h2.5v-18.8h-2.5v.9c-.3 2.3-.8 4-1.6 5.2-.6 1-1.6 1.5-3.1 1.5V337h2.2c2.7 0 3.9.2 4.4.4 1.2.4 2.2 1 2.9 2 .6.8 1.2 2.3 1.6 4.5l.1.8h2.4v-11.4zm-.8.9v9.5h-.9c-.4-2.3-1-4-1.8-5s-1.8-1.7-3.3-2.2c-.8-.3-2.3-.4-4.6-.4h-3v13h.5c2 0 3.3-.6 4.1-1.8.9-1.3 1.4-3.2 1.7-5.7h.8v16.9h-.8c-.2-1.9-.6-3.4-1.1-4.6a5 5 0 00-2-2.3 7 7 0 00-3.3-.6v9c0 1.8 0 3 .2 3.3.2.4.4.7.8 1 .4.2 1 .4 1.9.4h1.8c2.7 0 5-.7 6.7-2.1 1.7-1.4 2.9-3.6 3.6-6.4h.8l-1.3 10.2h-26v-.8h1c.9 0 1.6-.2 2.1-.5.4-.3.7-.6.9-1.2.1-.4.2-1.4.2-3v-23.9c-.2-.5-.5-1-.9-1.3-.6-.4-1.3-.6-2.3-.6h-1v-.9h25" fill-rule="nonzero"/><path d="M1339.8 361l.1 2.4.4.4c.4.2.9.3 1.6.3a6 6 0 005.2-2.5c1.7-2.4 2.6-6 2.6-11.1 0-4-.6-7.3-1.8-9.7-.9-1.8-2-3-3.4-3.7-1-.5-2.5-.7-4.7-.7V361zm-12.3 5.8V365h1.4c.8 0 1.4-.1 1.8-.4.4-.2.7-.6.9-1l.1-2.8v-21.2c0-2-.1-2.7-.2-2.9-.1-.3-.4-.6-.8-.9-.4-.2-1-.4-1.8-.4h-1.4v-1.8h13.8c3.7 0 6.6.6 8.9 1.6 2.7 1.4 4.8 3.4 6.2 6 1.4 2.7 2.1 5.8 2.1 9.1 0 2.3-.3 4.5-1 6.4a13.5 13.5 0 01-6.6 8 19.5 19.5 0 01-9.6 2.1h-13.8z" fill="#fff" fill-rule="nonzero"/><path d="M1341.8 363.7c-.7 0-1-.2-1.3-.3a.4.4 0 01-.2-.2v-26.3c2.2 0 3.4.3 4 .6 1.3.6 2.4 1.8 3.3 3.5a22 22 0 011.7 9.5c0 5-.9 8.5-2.5 10.8-1.1 1.6-2.8 2.4-5 2.4m-.5-30.5h-14.2v2.7h1.8a3 3 0 011.6.3l.6.7s.2.5.2 2.7v21.2l-.1 2.7-.7.7c-.2.2-.7.3-1.6.3h-1.8v2.8h14.2a19.8 19.8 0 009.8-2.1 14 14 0 006.8-8.3c.7-2 1-4.2 1-6.6 0-3.4-.7-6.5-2.1-9.3a14 14 0 00-6.5-6.2 21 21 0 00-9-1.6m.6 31.4c2.4 0 4.3-1 5.6-2.7 1.7-2.5 2.6-6.3 2.6-11.4 0-4.1-.6-7.4-1.8-10a8 8 0 00-3.7-3.9 13 13 0 00-5-.7h-.2v25.2l.1 2.4c.2.3.3.6.6.7.4.3 1 .4 1.8.4m-.6-30.5c3.6 0 6.5.5 8.7 1.6 2.6 1.2 4.7 3.2 6 5.8 1.4 2.6 2.1 5.5 2.1 8.8 0 2.3-.3 4.4-1 6.3a13 13 0 01-6.3 7.7 19 19 0 01-9.5 2H1328v-.8h1c1 0 1.6-.2 2-.5.5-.3.8-.7 1-1.2.2-.3.3-1.3.3-3v-21.2c0-1.6-.1-2.7-.3-3-.1-.5-.5-.9-1-1.2-.5-.3-1.1-.4-2-.4h-1v-1h13.4" fill-rule="nonzero"/><path d="M1176 432v-1.6a179.6 179.6 0 0016.8-23.9c2-4 3-8 3-11.8 0-2.7-.9-5-2.4-6.7a7.3 7.3 0 00-5.7-2.7c-3.8 0-6.6 2-8.7 6l-.1.4-2.2-.8.1-.5c1.4-5.2 3.6-9.2 6.4-11.8a14.4 14.4 0 0122.3 3.7c1.3 2.4 2 4.6 2 6.6 0 3.7-1 7.5-3 11.2-2.4 5-7.8 11.8-16 20.4h10.1c3.3 0 4.7-.2 5.2-.4.8-.2 1.4-.6 1.8-1.1a16 16 0 002-3.6l.1-.2h2.2l-3 16.8h-31z" fill="#fff" fill-rule="nonzero"/><path d="M1193 374.3c-3.8 0-7.2 1.4-10.1 4a24 24 0 00-6.5 12l-.2.8.8.3 1.4.6.7.2.3-.7c2-3.9 4.7-5.8 8.3-5.8 2.1 0 3.9.9 5.4 2.6a9.4 9.4 0 012.2 6.4c0 3.8-1 7.7-2.9 11.6-2 4-7.5 12-16.7 23.8l-.2.2v2.2h31.7l.1-.7 3-16 .1-1.1h-3l-.2.5a15 15 0 01-1.9 3.5c-.4.4-1 .8-1.6 1-.5.1-1.8.3-5.1.3h-9a97.6 97.6 0 0015.3-19.6c2-3.9 3-7.7 3-11.5 0-2.1-.7-4.4-2-6.8a14.6 14.6 0 00-12.9-7.8m0 1a13.4 13.4 0 0112.2 7.3c1.2 2.2 1.8 4.4 1.8 6.3 0 3.6-1 7.3-2.8 11-2.6 5-8.1 12-16.7 21h11.1c2.7 0 4.5-.1 5.3-.3.8-.3 1.5-.7 2-1.3.6-.6 1.3-1.8 2.1-3.7h1.4l-2.9 16h-30.1v-1a179 179 0 0016.8-23.8c2-4.1 3-8.1 3-12 0-2.9-.9-5.3-2.5-7.2a7.7 7.7 0 00-6-2.8c-3.9 0-6.9 2.1-9 6.3l-1.4-.5a23 23 0 016.2-11.6c2.7-2.5 6-3.7 9.5-3.7" fill-rule="nonzero"/><path d="M1232.3 378.5a3 3 0 00-2.2.9c-.9.8-1.5 2.4-1.8 4.7a330.9 330.9 0 00.3 40.7c.3 1.8.8 3 1.5 3.6.6.6 1.4.9 2.5.9s2-.4 2.5-1.1c1-1.5 1.5-3.7 1.7-6.8l.1-17.5-.1-16.9c-.3-3.6-.8-6.1-1.7-7.4-.6-.7-1.5-1-2.8-1m.2 54.6a12 12 0 01-7-2.1 19 19 0 01-5.4-6 30 30 0 01-3-7.5 56.1 56.1 0 01.7-29.7c1.4-4.2 3.4-7.4 6-9.7 2.8-2.3 5.6-3.4 8.7-3.4 3 0 5.9 1.1 8.5 3.4 2.7 2.2 4.6 5.2 5.9 9a54.1 54.1 0 01.4 32.4c-1 3-2.1 5.4-3.6 7.3a18.3 18.3 0 01-5 4.6 12 12 0 01-6.2 1.7" fill="#fff" fill-rule="nonzero"/><path d="M1232.6 428.8c-1 0-1.7-.2-2.3-.7-.4-.4-.9-1.3-1.3-3.4a332.6 332.6 0 01-.3-40.5c.3-2.2.9-3.7 1.7-4.5.4-.5 1-.7 2-.7s1.9.3 2.3 1c.6.7 1.4 2.6 1.6 7 .1 1.7.2 7.2.2 17l-.2 17.4c-.1 3-.6 5.1-1.6 6.5-.4.6-1.1 1-2.1 1m-.2-54.6c-3 0-6 1.2-8.8 3.5a20.7 20.7 0 00-6.1 10 56.6 56.6 0 00-.8 30c.9 3.1 1.9 5.7 3 7.6 1.6 2.6 3.5 4.7 5.6 6a12.4 12.4 0 0013.6.4c1.9-1 3.6-2.6 5.1-4.6 1.6-2 2.8-4.5 3.7-7.5a54.5 54.5 0 00-.4-32.7 20 20 0 00-6-9.2 13.5 13.5 0 00-8.9-3.5m.2 55.4c1.2 0 2.2-.4 2.8-1.3 1-1.5 1.7-3.8 1.8-7l.2-17.5c0-9.7 0-15.3-.2-16.9-.2-3.8-.9-6.3-1.8-7.6-.6-.9-1.7-1.3-3-1.3-1.1 0-2 .3-2.6 1-1 .9-1.6 2.6-2 5a328.8 328.8 0 00.3 40.8c.4 2 1 3.2 1.7 3.9a4 4 0 002.8 1m-.2-54.5c3 0 5.8 1 8.4 3.2a19 19 0 015.7 8.8c1.6 5.1 2.5 10.7 2.5 16.7 0 5.5-.7 10.6-2.2 15.4-.8 3-2 5.3-3.4 7.2-1.5 1.9-3.1 3.4-5 4.5a11.5 11.5 0 01-6 1.6c-2.4 0-4.7-.7-6.6-2-2-1.4-3.8-3.3-5.3-5.8-1.1-1.9-2.1-4.3-3-7.4a55.4 55.4 0 01.7-29.4c1.4-4.1 3.3-7.3 6-9.5 2.6-2.2 5.3-3.3 8.2-3.3" fill-rule="nonzero"/><path d="M1257.2 432v-2.4h1.8c2 0 3.6-.2 4.5-.7.8-.5 1.4-1.2 1.6-2 .3-.7.5-2.3.5-6.5v-28.6c0-3.1-.2-4.2-.3-4.6a3.2 3.2 0 00-3-2 11 11 0 00-4.5 1.2l-.4.2-1-2.3 19.3-9.5h1.8v45.6c0 3.3.1 5.5.4 6.3.2.9.7 1.5 1.5 2 .8.6 2.2 1 4 1h1.6v2.3h-27.8z" fill="#fff" fill-rule="nonzero"/><path d="M1277.9 374.3h-2.3l-.2.1-18.8 9.3-.8.4.4.8.6 1.5.4.8.8-.4c1.7-.8 3.1-1.2 4.3-1.2a2.7 2.7 0 012.6 1.7c0 .3.3 1.2.3 4.5v28.6c0 4.2-.3 5.7-.5 6.3-.2.7-.7 1.3-1.5 1.7-.5.4-1.7.7-4.2.7h-2.3v3.4h28.7v-3.4h-2c-2.2 0-3.3-.4-3.8-.7-.7-.5-1.1-1-1.3-1.8-.2-.6-.4-2.1-.4-6.2v-46zm-.9 1v45c0 3.5.2 5.6.4 6.6.3 1 .9 1.7 1.8 2.3.9.6 2.3.9 4.2.9h1.2v1.5h-27V430h1.4c2.2 0 3.7-.3 4.7-.8a4 4 0 001.8-2.3c.4-1 .5-3.1.5-6.6v-28.6c0-2.6 0-4.2-.3-4.8-.2-.6-.7-1.2-1.3-1.6-.6-.5-1.3-.7-2.1-.7-1.3 0-2.9.4-4.7 1.3l-.7-1.5 18.9-9.2h1.2" fill-rule="nonzero"/><path d="M1310.6 410.3v-19.9l-13.6 20h13.6zm0 21.7v-12.3H1292v-9l24.6-36h5.2v35.6h4.7v9.4h-4.7V432h-11.2z" fill="#fff" fill-rule="nonzero"/><path d="M1297.8 409.9l12.3-18v18h-12.3zm24.4-35.6h-5.9l-.2.4-24.4 35.5-.1.3v9.6h18.5v12.4h12.1v-12.4h4.7V410h-4.7v-35.6zm-26 36.5h14.8V389l-14.9 21.8m25.3-35.5v35.5h4.7v8.4h-4.7v12.4H1311v-12.4h-18.6v-8.4l24.4-35.5h4.6z" fill-rule="nonzero"/><path d="M1234 458c0-.8-.1-1.3-.2-1.5a3 3 0 00-1-1.3c-.6-.4-1-.5-1.6-.5-.8 0-1.5.3-2.1 1-.6.6-1 1.4-1 2.4h6zm-2.2 12.6c-2 0-3.6-.8-5-2.4a9.7 9.7 0 01-2-6.4c0-3 .7-5.2 2-6.8a6.7 6.7 0 015.4-2.5c1.8 0 3.3.6 4.4 2 1.2 1.2 1.8 3 1.8 5v.5H1228a8 8 0 001.5 5c1 1.2 2.2 1.8 3.5 1.8 1 0 1.7-.2 2.3-.8.7-.5 1.3-1.4 1.7-2.8l.2-.5 1.2.8v.3c-.3 1.7-1 3.3-2.1 4.7a5.6 5.6 0 01-4.5 2.1" fill="#fff" fill-rule="nonzero"/><path d="M1228.6 457.6c.1-.7.4-1.2.8-1.6.6-.6 1.2-.9 1.8-.9.5 0 .9.2 1.3.4.4.3.7.7.9 1.2l.2.9h-5zm3.6-5.6c-2.3 0-4.2.9-5.7 2.6a10.7 10.7 0 00-2.2 7.2c0 2.8.8 5 2.2 6.7a6.7 6.7 0 005.3 2.6 6 6 0 004.8-2.3c1.2-1.5 2-3.1 2.2-4.9v-.6l-.4-.3-.5-.4-.9-.6-.4 1c-.4 1.3-1 2.2-1.5 2.7-.6.4-1.3.7-2 .7-1.3 0-2.4-.6-3.3-1.8-.8-1-1.3-2.4-1.4-4.1h10.4v-1c0-2.2-.6-4-1.9-5.4a6.2 6.2 0 00-4.7-2m-4.7 6.4h7c0-1-.2-1.7-.3-2.2-.3-.6-.7-1.2-1.3-1.5a3 3 0 00-1.7-.6c-.9 0-1.7.4-2.4 1.1-.7.8-1.1 1.9-1.3 3.2m4.7-5.6c1.6 0 3 .6 4.1 1.8 1.1 1.2 1.7 2.8 1.7 4.9h-10.5c0 2.4.6 4.3 1.7 5.6 1 1.4 2.3 2 3.8 2a4 4 0 002.6-.8c.7-.6 1.3-1.6 1.8-3l.6.4c-.3 1.6-1 3-2 4.4a5.2 5.2 0 01-4.2 2c-1.8 0-3.4-.8-4.7-2.3a9.2 9.2 0 01-1.9-6.1c0-2.8.7-5 2-6.5 1.3-1.6 3-2.4 5-2.4" fill-rule="nonzero"/><path d="M1243.1 470.6c-.6 0-1.1-.2-1.6-.7-.4-.4-.6-1-.6-1.7s.2-1.3.6-1.7c.5-.5 1-.7 1.6-.7.7 0 1.2.2 1.6.7.5.5.7 1 .7 1.7s-.2 1.3-.7 1.7c-.4.5-1 .7-1.6.7" fill="#fff" fill-rule="nonzero"/><path d="M1243.1 465.3c-.7 0-1.4.3-1.9.8a3 3 0 00-.8 2.1c0 .8.3 1.5.8 2 .5.6 1.2.9 2 .9.7 0 1.3-.3 1.8-.8a3 3 0 00.8-2 3 3 0 00-.8-2.1c-.5-.6-1.1-.9-1.9-.9m0 1c.5 0 1 .1 1.3.5.4.4.5.9.5 1.4 0 .6-.1 1-.5 1.4-.3.4-.8.6-1.3.6s-1-.2-1.3-.6a2 2 0 01-.5-1.4c0-.5.2-1 .5-1.4.4-.4.8-.6 1.3-.6" fill-rule="nonzero"/><path d="M1259.3 470.7l-8.5-21-.9-1.9-.8-.7a4 4 0 00-1.5-.3h-.4v-1.6h10v1.5h-.4c-1.2.2-1.7.4-1.8.5-.2.2-.3.4-.3.7 0 .4.1 1.1.7 2.6l5.3 13 4.9-12.8c.6-1.7.7-2.4.7-2.7 0-.2 0-.4-.3-.6-.3-.3-.7-.5-1.4-.6l-.6-.1v-1.5h7.7v1.5h-.4a3 3 0 00-1.5.8 7 7 0 00-1.5 2.4l-7.9 20.8h-1.1z" fill="#fff" fill-rule="nonzero"/><path d="M1272.1 444.7h-8.6v2.4l.7.1h.3c.8.2 1.1.4 1.2.5l.2.3c0 .2 0 .8-.7 2.5l-4.5 11.9-4.9-12.1a7.3 7.3 0 01-.7-2.4c0-.1 0-.2.2-.3 0 0 .3-.3 1.5-.4h.8v-2.5h-10.8v2.4l.8.1c.5 0 1 .2 1.3.3l.7.6.8 1.8 8.3 20.7.3.6h1.7l.2-.6 7.8-20.5c.4-1 .9-1.8 1.4-2.3.2-.3.7-.5 1.3-.6l.7-.1v-2.4zm-.8 1v.6c-.8.1-1.4.4-1.8.8-.6.6-1.1 1.5-1.6 2.7l-7.8 20.4h-.6l-8.3-20.7-1-2a3 3 0 00-1-.8c-.3-.2-.9-.3-1.6-.4v-.7h9.2v.7c-1 .1-1.7.3-2 .6-.4.2-.5.6-.5 1 0 .6.2 1.5.7 2.8l5.7 14 5.3-13.8c.5-1.4.8-2.4.8-3 0-.2-.2-.6-.5-.9a3 3 0 00-1.6-.7h-.3v-.7h6.9" fill-rule="nonzero"/><path d="M1271.5 470.6c-.6 0-1.1-.2-1.5-.7-.5-.4-.7-1-.7-1.7s.2-1.3.7-1.7c.4-.5 1-.7 1.5-.7.7 0 1.2.2 1.7.7.4.5.6 1 .6 1.7s-.2 1.3-.7 1.7c-.4.5-1 .7-1.6.7" fill="#fff" fill-rule="nonzero"/><path d="M1270.5 466.3c-.7 0-1.3.3-1.8.8a3 3 0 00-.8 2.1c0 .8.2 1.5.7 2a2.5 2.5 0 003.9 0 3 3 0 00.7-2 3 3 0 00-.7-2c-.5-.6-1.2-.9-2-.9m0 1c.6 0 1 .1 1.4.5.3.4.5.9.5 1.4 0 .6-.2 1-.6 1.4-.3.4-.7.6-1.2.6-.6 0-1-.2-1.3-.6a2 2 0 01-.6-1.4c0-.5.2-1 .6-1.4.3-.4.7-.6 1.3-.6" fill-rule="nonzero"/><path d="M1496.2 217.1c5.3 1 8.5 4 9.4 8.5 2.3-5.2 4.9-7.7 7.8-7.5l12-.2c8 .2 12.2 6.6 12.2 19l-1 44.3-9.8-.1 1-39.2-18.4-.2-2 41.2-9.8-2.2-1.4-63.6zm72.1.4c9.5 1 14.2 8.8 14.2 23.3-.1 12.5-5.3 19.2-15.7 20l-13.1-1.1c0 4.7 1.1 7.3 3 7.8l22.5-1.8-1 15.6-20.5-.4c-10.8.2-15.9-6.7-15.4-20.8l-1.4-21.6c-.2-13.7 4.8-20.6 15-20.5l11.9-.5h.5zm-16.5 24.2c-3 .3-4.3 3.3-3.8 9l19-.4c1.6.2 2.4-1.1 2.4-4s-.8-4.2-2.3-4l-15.3-.6zm73.6 20.3c.5 14.3-2.7 21-9.7 20.2l-16.4.2c-7.7-.3-11.5-6.7-11.3-19.5l-4.1-43.2 15.3-2.4 2.5 47.3 15.9.1 1.1-42 9.6-1.8-2.9 41.2zm71.4-41l-13.9 62.2h-8.8l-7.2-29.5-9.3 29.2-8-.8-21.5-61.8 17.1-.9 7.7 40 4.7-41.2 16.9 2.2 5.5 41 7.6-39.3 9.2-1.2zm9.5 59.5l-6.4 2-.4-65 11 .9-4.2 62zm34.4-63c9.5 1 14.3 8.8 14.2 23.3 0 12.5-5.2 19.2-15.6 20l-13.2-1.1c.1 4.7 1.1 7.3 3 7.8l22.6-1.8-1 15.6-20.6-.4c-10.7.2-15.8-6.7-15.3-20.8l-1.5-21.6c-.2-13.7 4.8-20.6 15-20.5l12-.5h.4zm-16.5 24.2c-3 .3-4.2 3.3-3.7 9l19-.4c1.6.2 2.4-1.1 2.3-4 0-2.9-.8-4.2-2.3-4l-15.3-.6zm65-3l-24 4 .7 26.2 23.6-.8-.3-29.4zm13.3 24.8c0 11.8-3.7 18.2-11 19l-32.6-1 1.1-62.5 31.4-4c8.3 1 12.4 8.9 12.1 23.7l-1 24.8zM1866 239c-.7 13-5.2 19.5-13.6 19.6l-13.4-.1c-3 .4-4.4 3.4-4.4 9l31.5-1.7-2.2 15.9-36.6 1.9 1-19.2c-.2-9.7 4.4-14.7 13.9-14.8l15.5.6c1.7.1 2.6-1.3 2.7-4.3 0-3-.8-4.4-2.6-4.3l-25.8 2.1-1.6-25h20.9c9.8.5 14.7 7 14.8 19.5v.8zm37 2.9l.1.2-21.4-1-.3 25.4 21.3 1.5.3-26.1zm6.4 20.8c-1 12.6-4.6 19-11 19.1l-17.6.9c-6.8-.2-10.7-6.7-11.7-19.6v-23.7c.6-13.7 4.6-20.8 12-21.2l19.2 1c7.5.5 11 7 10.5 19.7l-1.4 23.8zm21.6 18.9l-9.8.5.6-42.4-4 3.9-4.8-15.2 7.5-11.2 12 1.7-1.5 62.7zm28.8-39.9l-13 19.2 12.2-.8.8-18.4zm7.3 32.5l-3.2.1v7.6l-11.6-.3 1-7.9-18.2 1.7-.8-13.3 19.7-45.3 10.3 1.6-.5 41.7 2.8-.4.5 14.5zm50-56.7c9.5 1 14.3 8.8 14.2 23.3 0 12.5-5.2 19.2-15.6 20l-13.2-1.1c.1 4.7 1.2 7.3 3 7.8l22.6-1.8-1 15.6-20.5-.4c-10.8.2-16-6.7-15.4-20.8l-1.5-21.6c-.2-13.7 4.8-20.6 15-20.5l12-.5h.4zm-16.5 24.2c-3 .3-4.2 3.3-3.7 9l19-.4c1.6.2 2.4-1.1 2.3-4 0-2.9-.8-4.2-2.3-4l-15.3-.6zm43 40.1l-8.6.2v-10.8l9.3.1-.7 10.5zm47.4-64l-17.8 67-12.3-3.2-13.6-60.2 9.9-2.3 10.5 41.5 9.1-42 14.2-.8zm11.5 64l-8.6.2v-10.8l9.3.1-.7 10.5zM360.7 280.3l-10.3 2-.1-25.4-14 1-1.2 24.5-7.2-.5-5-63.5 16.5-.8 1.8 25h13.5l.2-25.1 8.7 1-3 61.8zm33.6-62.8c9.5 1 14.2 8.8 14.2 23.3 0 12.5-5.3 19.2-15.7 20l-13.1-1.1c.1 4.7 1.1 7.3 3 7.8l22.5-1.8-1 15.6-20.5-.4c-10.7.2-15.9-6.7-15.3-20.8l-1.5-21.6c-.2-13.7 4.8-20.6 15-20.5l11.9-.5h.5zm-16.5 24.2c-3 .3-4.3 3.3-3.7 9l19-.4c1.6.2 2.3-1.1 2.3-4s-.8-4.2-2.3-4l-15.3-.6zm40.4 38.8l-6.4 2-.4-65 11 .9-4.2 62zm23.8-41.8l-9.6 1 .2 41.8-6.1.3-2.7-62.4c5.2-.5 8.5 1.7 10.1 6.6.7-5.2 3.5-8.2 8.3-8.8l22-.8c7.4 1 11.2 8 11.4 21l.5 45-14.3-.6.7-43.7-11.2 2.1-1.6 41.5-6.6.2-1.2-43.2zm71 13.4c1.2-6.4 0-9.9-3.9-10.3l-27.5 2.2.3-22.8 22.8-1.7c10-.5 15.3 7.1 15.7 22.8l-.7 30.3c-.3 4.3.2 6.9 1.5 7.8-4.7.8-7.8-.6-9.2-4.2-1.3 3.9-3.6 6-6.7 6.5l-12-1.2c-9.8-1.1-14.5-7.8-14.2-20.2.5-9.3 5.6-14.2 15.2-14.4l14 .7c2.1 0 3.7 1.6 4.7 4.5zm-19 4.4c-1.4 0-2.1 1.6-2.3 4.7-.1 3 .9 4.5 3 4.3l16 .5c1.4.1 2-1.2 2-4s-.7-4.4-2-4.7l-16.7-.8zm63.9-15.2l-12.4.8-.1 39.5-9 .9-1.6-41.6-11 .8-2-23 37.2-3-1.1 25.6zM602 268c-.3 9.6-5 14.3-14.1 14.1h-23.6l1-16.1 24.8 2.4c2 .2 3.1-1.2 3.2-4.3 0-3.2-1-4.8-3.3-4.7l-13-.6c-9.7.2-14.3-6.3-13.8-19.3.8-13 5.3-20.2 13.5-21.4l25-2-.6 28.4-24.2-3c-1.7.4-2.6 2-2.6 4.8-.1 2.8.6 4 2 4l13.5-.6c8.1-.3 12.3 4.5 12.3 14.5l-.2 3.9zm9.8-25.3l-.3 7 19 .7c1.7 0 2.8-1.4 3-4.4.3-3-1-4.6-3.8-4.6l-18 1.3zm33.2 2.9c.2 11.3-3.5 17.5-10.9 18.8l-15.6-1.5-1.4 18.6-11 1 .9-64.3 25.4-2.2c8.4.5 12.6 7.7 12.5 21.9l.1 7.7zm30.6-4.9l-21.1 2-.5 26.4 23.2-.2-1.6-28.2zm14 22.8c0 12-3.6 18.5-11 19.6l-18-1.4c-6.5.2-10.7-6.2-12.5-19.3l-1-24.3c.6-5.2 1.9-9.6 4-13.6 2-3.9 4.9-6.1 8.3-6.7h19.9c8.1 1 11.9 8.1 11.3 21.5l-1 24.2zm11-19.2l.7 5.5 26.8 1.6c2.3-.4 3.4-1.8 3.3-4.5-.2-2.6-1.3-3.9-3.5-3.9l-27.3 1.3zm37.5 4.4c-.9 9.3-5.9 14-15 14.2l11.8 18.1-15.6 1-8.3-20.8-4.5.6-.2 18.8-9.3.9-3.4-64.6 30.1.5c12.3.2 17.1 10.6 14.4 31.3zm40.5-7.4l-12.3.8-.2 39.5-9 .9-1.6-41.6-11 .8-2-23 37.3-3-1.2 25.6zm48.4-23.5l-17.8 67.5-11.7-3.5-14.1-61.7 10-.8 10 41.3 9.1-41 14.6-1.8zm30.3-.3c9.5 1 14.2 8.8 14.1 23.3 0 12.5-5.2 19.2-15.6 20l-13.2-1.1c.2 4.7 1.2 7.3 3.1 7.8l22.5-1.8-1 15.6-20.5-.4c-10.8.2-15.9-6.7-15.4-20.8l-1.5-21.6c-.1-13.7 4.9-20.6 15-20.5l12-.5h.5zm-16.5 24.2c-3 .3-4.3 3.3-3.8 9l19-.4c1.6.2 2.4-1.1 2.3-4 0-2.9-.7-4.2-2.2-4l-15.3-.6zm39.8 2.6l.6 5.5 26.8 1.6c2.4-.4 3.4-1.8 3.3-4.5 0-2.6-1.2-3.9-3.4-3.9l-27.3 1.3zm37.5 4.4c-1 9.3-6 14-15 14.2l11.8 18.1-15.6 1-8.3-20.8-4.5.6-.3 18.8-9.2.9-3.4-64.6 30.1.5c12.2.2 17 10.6 14.4 31.3zm33.6-31.2c9.5 1 14.2 8.8 14.2 23.3 0 12.5-5.2 19.2-15.7 20l-13.1-1.1c.1 4.7 1.1 7.3 3 7.8l22.5-1.8-1 15.6-20.5-.4c-10.7.2-15.8-6.7-15.3-20.8l-1.5-21.6c-.2-13.7 4.8-20.6 15-20.5l12-.5h.4zm-16.5 24.2c-3 .3-4.2 3.3-3.7 9l19-.4c1.6.2 2.4-1.1 2.3-4 0-2.9-.8-4.2-2.3-4l-15.3-.6zm40.4 38.8l-6.4 2-.4-65 11 .9-4.2 62zm4.7-65.2c5.8 2.3 9.2 5.7 10.3 10.3 2.3-5.2 5-7.7 7.9-7.5l11.8-.2c8.2.2 12.3 6.4 12.2 18.5l-1.7 44.3-9 .5 1.5-40.1h-19l-2 41-9.4-1-2.6-65.8zM441.4 432.6l-5.3 1.7-1-49.4 8.6 1.5-2.3 46.2zm4.5-47.4c3.8.8 6 3 6.7 6.4 1.6-3.9 3.5-5.8 5.6-5.6l8.5-.2c5.8.2 8.7 5 8.8 14.3l-.8 33.2h-7l.8-29.5-13.2-.1-1.5 30.9-7-1.7-1-47.7zm73.5 33.8c.3 10.6-2 15.7-7 15l-11.7.2c-5.5-.2-8.2-5-8-14.6l-3-32.4 11-1.8 1.7 35.5h11.4l.8-31.5 6.8-1.3-2 30.9zm3.7-35.1c4.2 1.7 6.6 4.3 7.4 7.7 1.6-3.9 3.5-5.8 5.6-5.6l8.5-.2c5.9.2 8.8 4.8 8.7 13.9l-1.2 33.2-6.4.4 1-30h-13.6l-1.3 30.7-6.8-.8-1.9-49.3zm55.9 17.5l-17 3 .4 19.7 16.9-.6-.2-22zm9.6 18.6c0 9-2.7 13.7-8 14.3l-23.2-.8.8-46.8 22.4-3c6 .8 9 6.6 8.7 17.7l-.7 18.6zm39.8-16l-18.6 1.6.2 4.6 19.8 1.4-1.6 6-15.5-.7-.8 17-6.6-.4 2-45.6 23.2-4-2.1 20.1zm34 14.9c0 10.7-2.5 15.7-7.6 15l-11.5.7c-5.5-.6-8.1-5.6-8-15l-2.6-33.3 10.7-.8 1.4 35.9 11.4-.2 1.5-32.3 6.4-.8-1.7 30.8zm-11.5-34.2l.1-8h6l-1 8h-5zm-8.6-8.2l5.9.2-.1 8-5.7.1v-8.3zm29.4 29l.3 4.3 19.3 1.8c1.6-.8 2.4-2.2 2.3-4 0-2-.9-3-2.4-3l-19.5.9zm27 2.9c-.7 7.4-4.4 11.2-11.1 11.3l8.4 13.7-10.7.3-6-15.3-3.5.4-.2 14.2-6.7.8-2-48 21.7-.3c8.3.1 11.7 7.7 10.1 22.9zm16.3-23.2c3.8.8 6 3 6.8 6.4 1.6-3.9 3.4-5.8 5.5-5.6l8.5-.2c5.9.2 8.8 5 8.8 14.3l-.7 33.2h-7l.8-29.5-13.2-.1-1.5 30.9-7-1.7-1-47.7zm52.7.3c6.8.8 10.2 6.6 10.1 17.5 0 9.4-3.7 14.4-11.2 15l-9.4-.8c.1 3.5.9 5.5 2.2 5.8l16.1-1.3-.7 11.7-14.7-.3c-7.6.1-11.3-5-11-15.6l-1-16.2c-.1-10.3 3.5-15.5 10.7-15.4l8.5-.4h.4zm-11.8 18.2c-2.1.2-3 2.5-2.7 6.7l13.6-.3c1.1.2 1.7-.8 1.7-3 0-2.1-.6-3.1-1.7-3l-10.9-.4zm53.8 15.3c.4 10.6-2 15.7-7 15l-11.7.2c-5.5-.2-8.2-5-8-14.6l-3-32.4 11-1.8 1.7 35.5h11.4l.8-31.5 6.8-1.3-2 30.9zm52.2-30.9l-10 46.7h-6.2l-5.2-22.1-6.7 21.9-5.6-.6-15.4-46.4 12.2-.6 5.5 30 3.4-31 12 1.7 4 30.8 5.4-29.5 6.6-.9zm7.9 44.7l-4.6 1.5-.3-48.8 7.9.7-3 46.6zm25.8-47.3c6.8.8 10.2 6.6 10.1 17.5 0 9.4-3.7 14.4-11.2 15l-9.4-.8c.1 3.5.8 5.5 2.2 5.8l16.1-1.3-.7 11.7-14.7-.3c-7.7.1-11.3-5-11-15.6l-1-16.2c-.1-10.3 3.4-15.5 10.7-15.4l8.5-.4h.4zm-11.8 18.2c-2.2.2-3 2.5-2.7 6.7l13.6-.3c1.1.2 1.7-.8 1.7-3 0-2.1-.6-3.1-1.7-3l-11-.4zm47.6-2.3l-17.1 3 .4 19.7 16.9-.6-.2-22zm9.5 18.6c0 9-2.7 13.7-8 14.3l-23.2-.8.8-46.8 22.4-3c6 .8 8.9 6.6 8.7 17.7l-.7 18.6zM1513.3 424.3l4.8.6-.6-14.8h-5l.8 14.2zm14.9 10.9l-3.3-.6-.3 6.5-7 .4v-9l-3.7-.7.2 10.6-9.8-.7.3-7.2h-3.3v-13.6l3.3.5-.1-9.7-3.4.2v-14.3l3.5.9v-8.3l6.4-.9-.7 10h4.7v-9.1l10.7.5-.6 7.6h3.2v14l-3.3-.5v9.6l3.3.1-.1 13.7zM1566.6 438.1l-6.7 1.5.3-19-10.3.3-1 19-5-.7-4.3-46.5 12.2-1.9 1.6 18.7h9.7l-.2-18.3 6.4.5-2.7 46.4zm31.4-21.2c1-4.9 0-7.4-2.7-7.7l-19.6 1.6.2-17.1 16.3-1.3c7.1-.3 10.9 5.4 11.1 17.1l-.5 22.8c-.2 3.2.2 5.1 1.2 5.8-3.4.6-5.6-.4-6.6-3.1-1 2.8-2.6 4.5-4.9 4.8l-8.5-.9c-7-.8-10.3-5.9-10.1-15.1.3-7 4-10.7 10.8-10.9l10 .6c1.5 0 2.7 1.2 3.4 3.4zm-13.5 3.2c-1 .1-1.5 1.2-1.6 3.6-.1 2.3.6 3.3 2 3.2l11.5.4c1 .1 1.5-1 1.4-3 0-2.1-.5-3.3-1.4-3.6l-11.9-.6zm42.9-29.1c6.8.7 10.1 6.5 10 17.4 0 9.4-3.7 14.4-11 15l-9.5-.9c.1 3.6.9 5.6 2.2 6l16-1.5-.6 11.8-14.7-.4c-7.7.2-11.3-5-11-15.5l-1-16.2c-.1-10.3 3.5-15.5 10.7-15.4l8.5-.4h.4zm-11.8 18.1c-2.2.2-3 2.5-2.7 6.7l13.6-.3c1.1.2 1.7-.8 1.6-3 0-2.1-.5-3.2-1.6-3l-10.9-.4zm54.1 19.7c-.1 7.2-3.5 10.7-10 10.6H1643l.7-12.1 17.7 1.8c1.5.2 2.2-1 2.3-3.3 0-2.4-.8-3.5-2.4-3.4l-9.2-.5c-7 .2-10.3-4.7-10-14.5.7-9.8 4-15.2 9.7-16l18-1.6-.5 21.4-17.3-2.2c-1.2.2-1.9 1.4-1.9 3.5s.5 3 1.5 3l9.6-.5c5.8-.1 8.8 3.5 8.8 11l-.2 2.8zm35.6-37.6l-12.7 50.6-8.3-2.6-10.1-46.4 7.1-.6 7.1 31 6.6-30.7 10.3-1.3zm28.4 25.7c.8-4.9 0-7.4-2.8-7.7l-19.6 1.6.2-17.1 16.3-1.3c7.1-.3 10.9 5.4 11.1 17.1l-.5 22.8c-.2 3.2.2 5.1 1.1 5.8-3.3.6-5.5-.4-6.5-3.1-1 2.8-2.6 4.5-4.9 4.8l-8.5-.9c-7-.8-10.3-5.9-10.1-15.1.3-7 4-10.7 10.8-10.9l10 .6c1.5 0 2.7 1.2 3.4 3.4zm-13.6 3.2c-1 .1-1.5 1.2-1.6 3.6-.1 2.3.6 3.3 2 3.2l11.5.4c1 .1 1.5-1 1.4-3 0-2.1-.5-3.3-1.4-3.6l-11.9-.6zm51.6 4.2c.4 10.7-2 15.8-6.9 15.2h-11.7c-5.5-.1-8.2-5-8-14.5l-3-32.5 11-1.7 1.7 35.5h11.3l.9-31.5 6.8-1.3-2 30.8zm34.3 4.5c-.2 7.2-3.5 10.7-10 10.6h-17l.8-12.1 17.7 1.8c1.4.2 2.2-1 2.2-3.3 0-2.4-.7-3.5-2.3-3.4l-9.3-.5c-7 .2-10.2-4.7-9.9-14.5.6-9.8 3.8-15.2 9.7-16l17.9-1.6-.5 21.4-17.3-2.2c-1.2.2-1.8 1.4-1.9 3.5 0 2.1.5 3 1.6 3l9.5-.5c5.8-.1 8.8 3.5 8.8 11l-.1 2.8zm24.2-37.8c6.8.7 10.2 6.5 10.2 17.4 0 9.4-3.8 14.4-11.2 15l-9.4-.9c0 3.6.8 5.6 2.2 6l16-1.5-.7 11.8-14.6-.4c-7.7.2-11.3-5-11-15.5l-1-16.2c-.1-10.3 3.4-15.5 10.7-15.4l8.5-.4h.3zm-11.7 18.1c-2.2.2-3 2.5-2.7 6.7l13.5-.3c1.2.2 1.8-.8 1.7-3 0-2.1-.6-3.2-1.6-3l-11-.4zm31 29l-4.6 1.5-.3-48.7 7.9.7-3 46.5zm31.7-29.4l-8.8.7-.2 29.6-6.4.6-1.1-31.2-7.9.6-1.4-17.2 26.6-2.3-.8 19.2zm33.5-1.7c-.5 9.8-3.7 14.7-9.7 14.8l-9.6-.2c-2.1.3-3.2 2.6-3.2 6.9l22.6-1.3-1.7 11.8-26 1.5.7-14.4c-.1-7.3 3.1-11 9.9-11.1l11 .5c1.3 0 2-1 2-3.3 0-2.2-.6-3.3-1.9-3.2l-18.4 1.6-1.1-18.8h14.9c7 .4 10.5 5.2 10.5 14.7v.6zm28.6 2.2v.1l-15.3-.6-.2 19 15.2 1 .3-19.5zm4.5 15.6c-.7 9.4-3.3 14.2-7.8 14.4l-12.6.6c-4.8-.2-7.6-5-8.3-14.7v-17.7c.4-10.4 3.3-15.6 8.5-16l13.7.8c5.4.3 7.9 5.3 7.5 14.7l-1 18zm17.6 14.2l-7 .4.5-31.8-2.9 2.9-3.4-11.4 5.4-8.4 8.6 1.2-1.2 47zm22.7-29.9l-9.2 14.4 8.7-.7.5-13.7zm5.2 24.4h-2.2v5.7l-8.3-.2.7-5.9-13 1.3-.5-10 14-34 7.4 1.2-.4 31.2 2-.2.3 10.9z" fill="#fff" fill-rule="nonzero"/></svg>
