<svg viewBox="0 0 933 757" xmlns="http://www.w3.org/2000/svg" fill-rule="evenodd" clip-rule="evenodd" stroke-linejoin="round" stroke-miterlimit="2"><path d="M451.194 17.544v24.252l1.115 20.216c.09 3.285-1.295 9.19 0 11.941 1.91 5.73 16.608 7.91 13.493 15.951-1.239 3.196-6.387 5.243-6.921 9.947-.355 3.059 3.375 15.318 4.571 18.877 4 12.212 4.444 25 13.507 34.904 11.677 12.836 23.718 20.036 37.565 29.756 3.91 2.718 13.999 8.131 15.327 12.258 3.593 11.152-11.904 29.448-19.364 36.384-7.64 7.105-22.692 19.714-25.978 29.448-1.47 4.344-.889 16.338-.931 21.534-.095 7.994-.809 23.67.657 31.003l14.93 44.506 6.263 30.994 5.276 13.46c.932 5.2-2.037 7.993-1.196 13.236.936 5.64 4.572 5.99 3.688 16.429 7.503 5.332 8.311 14.485 11.412 22.966 1.286 3.423 3.073 6.926 2.629 10.704-.364 2.978-5.243 13.587-5.867 22.919l-1.73 14.826v17.51l.978 13.498-7.242 36.374c-.398 5.465 1.772 8.037 1.683 12.13l-1.773 9.413v26.952c-.137 21.747-8.084 24.536-8.174 44.487-.048 10.731-.265 18.437 13.46 17.35 11.02-.851 13.908-5.248 22.115-9.266 7.597-3.735 7.46-1.986 16.962-8.084-1.725-5.153-3.9-11.63-9.46-13.852-6.83-2.647-14.565 4.302-17.052-5.153-2.312-8.699 6.174-30.966 9.29-40.28l10.972-39.063v-8.084c1.91-10.089 2.308-7.55 2.213-18.887-.047-13.27-5.148-14.518 0-28.337l19.719 32.474 18.078 24.697 10.746 29.084c-6.345 2.978-19.322 8.448-23.265 13.885-3.375 4.68-2.628 11.298 3.102 13.615 6.845 2.79 20.527-1.513 28.247-1.891L620.63 660.4l2.137 41.745c2.17 9.975 8.131 17.02 9.767 26.947 1.021 6.004 7.016 19.809 11.55 23.827 2.047 1.797 5.687 4.444 8.528 2.931 3.91-1.985 6.127-10.637 5.29-14.608l-2.491-8.084-1.423-9.408c-1.603-6.997-4.401-9.928-1.286-17.54 2.751-6.854 12.079-14.56 12.032-22.928-.048-8.084-8.973-10.968-12.164-14.136-2.983-2.978-4.175-7.47-5.064-11.44-1.82-8.51-4.93-25.482-4.93-33.708-.048-20.423.35-14.135-3.196-33.689l-2.184-12.121c-2.038-6.846-6.255-12.699-9.583-18.873l-18.216-36.374c-5.242-11.322-3.243-9.776-4.968-20.262-.766-4.435-1.835-5.73-1.958-10.746-2.226-11.72-2.533-18.475-5.56-35.04l-3.365-8.085c-.534-3.64 2.661-9.063 4.307-12.301 4.529-8.879 7.507-20.967 16.248-25.449 4.094 29.803-8.878 58.225-7.762 84.922.17 2.751 4.264 20.163 5.455 23.004l5.688 10.651c5.148 10.713 5.956 15.682 14.3 25.629l2.355-10.789 5.73-17.496c1.286-7.815.047-21.54 0-29.666 0-21.014 2.524-13.601 6.084-26.961l1.603-9.422 11.28-27.004c3.328-7.995 4.396-13.852 9.365-24.196 3.914-18.263 10.623-26.697 13.464-37.76 8.529.715 9.54 3.069 16.16-1.332 5.771 7.597 1.952.67 6.75 13.464 4.936 8.57 16.168 19.898 26.607 32.322l5.333 10.803 11.587 18.877 14.575 25.58 7.767 25.8 13.63 26.559 5.38 13.677 5.91 13.511 1.196 12.117 2.978 9.417 2.799 14.835 1.952 21.6c10.212.19 27.132 3.688 31.533-9.464 2.137-6.401-7.2-17.374-10.169-24.252l-8.311-25.629-5.011-11.554v-9.994l-1.82-10.788c-3.82-23.629-1.56-23.676-10.973-48.505l-13.02-24.243-13.847-35.041-13.691-52.585-3.82-14.84c-3.366-9.195-9.186-14.745-13.143-22.92l-6.788-16.125-15.814-28.332-6.756-13.45c4.175-6.004 4.402-37.76 14.84-43.31 3.546-1.91 7.763.842 10.788 2.615 7.858 4.67 15.861 9.242 24.253 12.925 12.074 5.333 21.76 6.803 34.246 14.443l32.904 21.978 25.052 14.566c8.571 5.115 2.487 3.91 15.587 9.105 6.046-1.957 20.75.137 28.299 0 13.847-.217 14.476-6.037 25.628-10.788.662-6.174 3.456-6.803 5.72-12.122 2.275-5.38 3.56-17.284 1.877-22.924-4.755-15.86-22.262-25.765-38.373-22.342-3.82.799-7.03 2.581-10.439 4.359-4.628 2.35-6.49 3.02-9.914 7.332-8.438 10.609-3.947 20.376-6.836 32.233-4.533-2.615-13.37-4.752-14.835-9.413l-1.333-1.376c-5.593-1.593-9.195-6.755-13.46-10.533l-17.581-13.492c-6.137-4.354-7.243-3.149-12.221-6.085l-14.703-10.925-23.09-13.02c-7.946-5.503-10.608-12.608-21.5-19.274l-18.74-10.344c-9.687-3.683-20.433-4.888-26.253-14.745-9.72-16.523 7.073-20.126 13.724-29.85 5.607-8.037 6.402-21.057 7.962-25.354 1.546-4.402 5.148-6.983 5.318-11.37.227-7.073-9.904-20.215-16.92-21.898-6.75-1.65-10.391 1.73-16.168 3.058-10.651 2.445-15.587-1.862-28.243 7.55-6.08 4.539-12.698 12.623-14.925 19.989l-1.503 6.708c-1.116 2.662-3.56 5.64-5.196 8.084 5.9 12.746-7.73 26.21 8.085 30.994v4.047l-12.131 2.449-16.296-6.666-22.783-9.37-16.168-12.041c3.636 5.106 8.297 9.28 11.186 14.84 3.285 6.264 9.37 22.83 9.951 29.665v10.789l3.465 13.464 1.239 9.412 3.517 16.216v13.45l1.466 8.084 1.91 17.591c2.661 16.121 12.868 34.38 12.868 48.458v20.201c-.307 14.977-3.498 10.973-6.434 21.685l-3.423 13.36-.884 8.085-6.576 32.336-11.767-20.205-21.898-29.633c-5.456-2.794-14.655-32.152-15.327-40.454-.35-6.264 3.423-16.305 4.709-22.919l4.751-33.67 9.55-28.285c1.3-4.491 3.073-8.883 2.751-13.634-.61-8.846-7.413-16.348 5.688-22.787 2.76-9.38 6.755-8.482 8.665-14.925 3.418-11.588-6.391-35.75-14.476-44.198-7.152-7.503-14.305-7.016-23.855-6.926-14.873.231-21.317 5.38-28.914 17.544-4.401 6.973-5.195 7.777-6.127 16.168l-24.205-17.77c-6.666-6.695-5.243-11.096-9.19-18.6-8.312-15.68-16.972-30.029-21.01-47.573-.978-4.127-3.867-9.37-3.512-13.1l13.459-36.374-10.788 2.312c-11.328-1.163-6.983-17.681-7.824-22.527-.487-2.841-1.594-4.354-2.979-6.751-10.122 3.74-12.032 6.84-12.121 17.544zM370.366 6.756c-1.74 11.81 7.063 9.46 12.122 25.58l-12.122 2.705c-5.195-3.286-10.391-2.752-14.84 1.342 8.836 4.662 22.745 1.286 26.914 7.276 1.773 2.581 1.56 11.063 1.253 14.306-.364 3.867-1.253 5.867-2.581 9.412-5.914-3.503-6.619-3.82-13.464-4.037l1.343 6.746c5.015 1.159 5.64 1.953 9.46 5.423 2.306 2.137 7.597 6.75 8.528 9.64 1.191 3.503-1.787 10.792-2.766 14.612-2.033 7.81-5.763 19.804-9.37 26.914l-5.503 9.46c-3.375 7.059-1.28 12.344-11.152 19.19l-10.746 5.9c-6.08 3.38-11.946 7.337-17.544 11.507-2.534 1.91-8.174 5.37-9.597 8.041-2.08 3.957.856 7.148 2.539 10.609 2.888 5.867 7.777 12.925 8.434 18.882 10.793-4.931 17.057-13.233 25.448-21.364 7.687-7.38 17.147-12.883 23.274-21.761 6.175-8.968 14.438-32.29 16.977-43.125l3.456-18.877 6.888-22.92c.662-5.195-3.602-12.168-5.115-17.501-.568-2.09-2.128-20.523-1.73-22.158.798-2.979 4.4-7.64 6.268-10.221-1.957-4.038-1.115-6.222-5.38-8.085-1.375-4.878-4.311-2.84-8.131-1.328l1.39-4.037c-6.052-.856-6.846-1.206-9.474-6.756l-4.033 1.376v5.38l-8.084-12.131h-2.662zm61.955 14.485c-11.19.794-22.692 8.391-26.696 19.18-1.15 4.174-.218 13.861 0 18.872l15.95-6.708c.17-8.831 9.144-15.053 14.784-4.033 2.533-.799 3.957-.936 5.777-3.153 2.67-3.253 3.555-17.814 3.682-22.475-4.789-.936-8.438-2.047-13.497-1.683zM559.03 100.83c-10.562-8.311-15.223-8.132-24.243-13.691-6.978-4.265-8.935-7.858-14.618-12.164-4.174-3.154-7.143-4.265-10.566-8.93-3.423-4.568-2.09-6.17-3.513-10.79l-4.08-9.412c-2.846-8.576-.581-12.745-10.348-17.544l2.661 18.873-10.745-5.38c-1.91 5.961-4.889 12.575-2.889 18.877 1.867 5.867 8.699 11.417 12.883 16.168 6.528 7.46 30.507 29.756 38.501 35.85 3.692 2.798 10.968 9.767 14.835 11.095 4.751 1.697 9.323-1.418 14.793-2.217 10.391-1.418 16.92 2.08 19.501 1.423 1.636-.397 1.546-1.116 2.08-1.693-8.212-2.217-16.872-14.612-24.252-20.47v.005zM429.66 64.716l-1.386 1.333-12.121-6.756c-3.106 4.936-6.973 5.196-7.29 9.55-.487 5.995 7.914 14.745 10.576 20.125 2.888 5.688 2.798 16.646 1.82 22.91-1.026 6.619-8.212 17.544-11.1 25.586l-7.333 22.92c-4.614 9.814-15.847 23.4-22.423 32.336l-15.861 22.91c-8.789 10.315-28.682 24.65-41.352 29.675-.884-17.464 7.47-27.321 3.777-37.712-1.286-3.593-3.593-5.413-5.285-8.344-3.244-5.598-3.154-12.576-11.985-16.169-5.64-2.264-11.861.09-17.284 1.863-13.19 4.264-24.56 11.507-29.708 25.32-4.004 10.747-2.751 28.064 3.862 37.524l9.46 9.64c-9.152 3.195-27.273 13.052-35.04 18.74l-21.591 17.019-20.206 10.027-31.008 17.463c-8.434 5.64-28.333 25.312-35.041 33.793v-6.75c-.444-36.285-51.474-46.45-66.13-13.498-2.533 5.82-2.75 8.618-2.58 14.835.32 10.836 4.628 23.231 12.178 30.994 4.037 4.175 14.168 14.66 20.158 14.306l9.417-2.979 13.507-1.512 10.746-4.435 1.376-1.328c1.91-6.085 17.142-13.682 22.645-18.48l23.274-20.92c7.2-4.709 36.998-15.237 47.039-18.967l22.035-9.687c6.572.227 6.619 11.417 6.165 15.861.227 4.926.761 11.28 0 15.852-2.846 10.925-10.212 20.125-15.989 29.585l-14.381 26.957c-5.961 10.528-16.84 20.57-9.952 33.712-4.4 5.9-6.216 17.1-7.776 24.252l-6.709 28.29-4.704 29.666-5.153 12.13c-2.931 9.234-1.863 11.37-6.798 21.535l-11.587 21.59-29.264 82.228c-3.825 9.502-9.507 22.22-17.057 29.216-6.449 5.91-23.014 15.412-26.026 23.354-.67 1.702-1.158 7.328-1.342 9.408-.752 10.732 9.824 20.565 20.57 14.325 9.639-5.532 11.72-16.736 17.85-23.78 9.948-11.44 16.566-11.96 19.894-17.303 1.82-3.026.98-6.24 2.984-12.339l13.412-32.337c3.29-6.476 5.46-8.084 8.925-13.473L198.698 604l8.926-25.462 15.771-25.983 3.593-10.789 5.026-12.135 7.323-18.92 6.353-14.731 15.805-26.971c4.354-9.016 1.342-14.169 5.517-15.592 3.191-1.101 6.17 2.8 13.053 3.47l1.328 1.329c1.116 6.132 3.163 6.619 6.174 11.554 5.607 9.186 8.619 17.147 16.793 24.91 7.242 6.845 15.988 10.883 18.295 21.5 4.184 19.105-7.412 25.719-11.37 41.797l-3.148 33.665c-.799 8.122-4.264 24.32-6.529 32.309l-7.242 25.623c-1.863 5.153-4.889 10.495-2.705 16.169 3.06 8.036 13.725 5.342 20.736 5.389l24.252 2.884h24.253c5.503.567 12.168-.804 13.941-6.902 1.513-5.059-2.661-9.172-7.2-10.354l-8.084-.85c-11.048-1.797-25.264-6.761-32.322-15.791l29.618-1.182 13.506-5.484c-5.375-15.506-10.39-11.866-21.59-14.892l-17.497-5.342 14.211-43.12 8.481-35.041 5.026-20.206.888-8.084c1.329-8.174 8.572-19.364 7.64-29.675-.718-7.815-9.242-17.364-13.327-24.243-4.217-7.072-1.513-9.152-4.534-16.168-5.55-12.883-10.301-8.221-10.301-25.628v-29.675c.043-8.392.931-7.413 1.773-13.45v-12.136l6.264-20.248c13.587-30.337 17.407-58.41 33.268-87.323l4.264-9.323 12.259-17.852c12.788-21.41 34.11-72.71 41.125-97.043 2.841-9.994 3.957-22.57 12.925-28.913 3.513-2.492 11.554-3.868 9.2-8.312-2.539-4.75-10.85-1.423-15.681-6.344-4.137-4.581-.672-9.55 0-14.395V51.204c-5.068 4.794-4.978 8.524-7.025 14.836h-2.705l-5.37-18.873c-4.444 6.037-2.137 10.973 0 17.544l.005.005zm-40.648 110.507c3.375-5.163 7.55-10.528 9.994-16.168l7.46-22.92c2.978-7.242 8.708-15.818 10.358-22.924 1.102-4.968 1.054-19.714-1.91-23.84-1.423-2.048-2.231-2.048-4.141-3.116l-6.207 20.215-2.979 16.168-8.268 26.957-14.382 25.628-1.862 13.45c6.25-3.423 8.16-7.682 11.937-13.45zm56.769-62.012l-9.38 29.675-25.935 60.627c-5.243 11.1-15.1 29.542-23.936 37.75 1.546 7.597 4.264 12.972 8.084 22.924l-2.889 18.078-3.772 7.503-1.693 6.755-3.777 12.117c-3.957 2.889-9.37 14.031-10.576 18.877-.26 2.217-.033 4.491 0 6.709-.122 3.91-1.772 10.084 0 13.19 1.958 4.046 9.29 6.476 12.623 13.766l6.571 21.582 11.767 43.125c4.312 14.442 11.904 29.235 11.999 44.467v49.867c1.588 9.063 5.64 17.01 8.481 25.586l3.286 13.506 9.063 26.957c.17 1.82.534 3.375 0 5.243l-6.666 16.267c-1.021 1.797-2 3.073-3.73 4.302-4.444 3.263-19.724 4.964-16.169 15.932 2.662 8.18 10.576 9.408 17.81 7.943 12.177-2.459 24.739-10.732 31.494-21.416 3.773-6.335 1.726-12.24 0-18.854l-8.576-33.67c10.656-2.614 20.39.227 25.402-3.503 3.777-2.808 4.798-7.105 2.888-11.332-3.465-7.507-12.438-12.826-16.783-18.877-4.306-6.037-5.422-13.767-8.798-20.206 3.286-5.99-.661-8.126 6.038-20.2l21.808-39.093c3.65-5.333 9.866-9.64 11.46-14.835 2.49-6.042-.752-10.963 0-16.159.316-6.264 4.982-16.395 5.153-26.97.137-7.593.534-21.398-1.244-28.29l-14.882-41.433-2.752-50.23c.185-9.38 4.799-16.074 10.926-22.92 3.073-3.376 8.131-7.687 9.417-12.122 2.184-7.422-8.042-26.696-8.042-37.711v-17.544c-.61-7.37-5.408-17.545-11.904-21.412-10.65-6.391-23-1.148-28.64-12.258-1.82-3.503-1.205-7.059-1.555-10.789-.491-4.571-2.127-8.174-1.286-12.93.752-4.387 3.546-7.228 4.752-11.322.978-3.333.751-8.571.751-12.122-6.31 4.265-4.845 6.619-6.788 13.45zm-186.366 13.724c-2.8-1.498-5.683.454-10.349-2.387-3.555-2.184-9.994-9.64-16.074-13.28-16.258-9.644-31.268 5.72-39.182 9.186-6.619 2.889-9.507-.047-15.989 6.481-7.682 7.735-9.81 22.925 5.2 22.66l1.33 1.376c.396 12.21 13.86 23.628 24.252 28.29l-1.334 2.704 1.334 1.342 2.704-1.342 1.342 1.342-1.342 2.71 1.342 1.328h4.038c-7.46 7.597-10.656 3.867-18.83 5.058-3.333.492-11.37 3.513-14.84 4.799l-18.873 7.994c-18.078 6.127-36.908 10.344-54.007 18.962-12.609 6.359-26.82 16.887-41.66 11.691 13.587-7.332 16.339-16.532 16.168-31.008-.09-5.106-.718-10.39-3.512-14.882-5.059-8.117-18.126-14.292-27.496-15.143-3.238-.264-6.344.762-9.46 1.603-11.138 3.021-18.872 9.37-23.09 20.338-3.105 8.132.625 30.29 4.662 37.75 2.397 4.401 11.11 12.22 15.771 14.04l17.497 4.175c4.444 1.376 8.708 4.175 13.498 3.957 4.443-.227 11.37-3.607 16.168-4.708l39.087-11.734 16.169-3.012c6.391-1.333 9.37-2.539 16.168-2.628h14.83c5.286-.747 15.767-4.435 20.216-3.91 11.37 1.343 17.27 23.364 29.618 29.448l1.286 10.755v12.122c18.75-12.486 17.586-14.566 40.51-25.581-1.74-5.947-2.978-5.947-5.422-10.793-4.037-7.99-7.37-23.501-4.53-32.337 2.176-6.878 7.154-12.301 9.952-18.872-4.888-4.978-9.55-16.216-6.126-22.924 2.656-5.239 9.228-10.302 11.37-14.566 3.148-6.434-1.56-14.561-7.952-16.428.127-3.91-.577-12.439-4.444-14.576zM207.269 337.02c-15.374 5.73-30.516 8.576-41.002 22.876-4.567 6.175-1.376 6.756-7.228 16.121l-32.384 48.586-14.963 16.078c-5.957 6.401-11.507 17.941-20.338 20.253l-1.343 1.338-16.565 21.582-8.35 16.168c-12.073 21.718-20.11 37.215-36.86 56.315-7.73 8.803-13.951 5.957-19.01 7.994-6.75 2.752-10.036 12.481-9.062 19.237 2.004 13.142 11.157 16.338 22.432 10.519 3.106-1.594 16.83-15.36 19.411-18.603l11.28-16.169c3.329-5.73 3.957-9.55 8.709-14.972l38.633-36.237c8.35-9.417 11.28-18.66 21.719-28.162l13.507-10.963 40.411-40.251c6.708-5.9 26.025-19.667 29.675-25.751 2.307.657 6.037 2.17 8.391 1.725 6.525-1.101 12.576-16.338 15.677-21.94l15.1-25.586c3.957-8.831 4.846-27.004 2.581-36.416l-40.42 16.258zm234.507 37.669l6.709 26.957c1.683 5.734 4.571 12.793 3.503 18.83-.931 5.243-3.683 8.788-7.508 12.168-5.73-19.274-6.613-37.976-6.75-57.95h4.046v-.005zm-128.05 137.454c-6.345 14.089-4.662 11.782-7.414 25.581-1.423 7.11-3.512 12.306.657 18.887 2.936-8.127 3.518-7.072 6.496-13.247 5.546-11.492 5.943-18.952 4.307-31.22h-4.047zm-10.79 44.468c-.533 8.344-8.178 35.216-11.19 43.527-1.786 4.855-7.994 19.51-8.48 23.86-.81 7.28 4.037 11.299 10.253 13.474 4.217-12.86 9.28-33.85 10.746-47.158v-13.497l1.376-20.206h-2.704z" fill-rule="nonzero"/></svg>
