<svg viewBox="0 0 458 603" xmlns="http://www.w3.org/2000/svg" fill-rule="evenodd" clip-rule="evenodd" stroke-linejoin="round" stroke-miterlimit="2"><path d="M457.386 586.437c-.378-1.551-.745-3.17-1.728-4.464-1.776-2.521-5.067-3.309-6.948-5.72-1.752-2.131-1.77-5.148-3.504-7.278-1.54-1.979-3.511-3.609-4.854-5.74-8.03-13.414-13.14-28.3-20.582-42.018-3.804-6.991-8.127-13.817-13.787-19.453-2.46-2.29-5.171-4.292-7.882-6.27.012-.012.03-.025.043-.037a1.486 1.486 0 01-.153-.122c-.012.012-.024.018-.03.024-6.98-4.652-14.404-8.89-20.18-15.074-2.484-2.491-3.913-5.746-5.525-8.817-1.55-2.71-2.98-5.495-4.549-8.193-.787-1.386-1.514-2.809-2.375-4.152-5.336-7.974-10.831-15.844-16.119-23.855a47.766 47.766 0 01-1.025-1.886c.006 0 .018 0 .024.006-.037-.074-.073-.14-.104-.214-.036-.006-.073-.006-.11-.006-.885-2.015-1.819-4-2.747-5.996a42.712 42.712 0 00-1.691-3.285c-.538-.896-1.105-1.77-1.649-2.646.147-.952.293-1.898.397-2.85-.385-.737-.751-1.51-.672-2.355.037-2.55.11-5.114-.28-7.637-.27-2.798-1.545-5.475-1.057-8.324-.714-2.54-1.795-4.951-2.686-7.418.702.101 1.404.218 2.118.33-.17-.992-.427-1.994-1.147-2.737-3.584-4.208-8.42-7.083-12.328-10.955-.622-.687-1.447-1.18-2.228-1.633.055-.017.11-.03.165-.045a2.707 2.707 0 01-.586-.683l-.135-.005c-1.667-2-3.797-3.968-4.133-6.675.317-1.17.903-2.244 1.294-3.389.824-2.406-.806-5.17.702-7.407 1.972-3.227 4.457-6.096 6.533-9.246 1.71-2.503 1.649-5.647 2.278-8.497.158-2.436.458-4.96 1.587-7.148 1.46-2.157 3.718-3.607 5.257-5.689.843-2.543 1.014-5.266 1.887-7.8.476-.64 1.148-1.088 1.783-1.557 1.447-.981 3.095-1.755 4.194-3.174l-.775.132c.482-4.162 2.137-8.003 3.913-11.748l.745.163.03-.107c.227-.779.416-1.562.569-2.35-.85-2.066-.257-4.325-.422-6.478.061-2.85-1.361-5.5-1.05-8.364-.372-1.003-.824-1.97-1.252-2.941 6.38 1.409 11.919 4.991 17.731 7.795.983-1.41 2.613-1.715 4.22-1.801 3.327-.27 6.202-2.412 7.967-5.165.794-.947 1.288-2.498 2.717-2.57 3.987-5.957 9.006-11.946 9.433-19.42.226-4.218-1.032-8.355-2.87-12.1-1.294-2.279-.891-5.184-2.643-7.25-.22.392-.654 1.175-.867 1.567-.061-2.478-.16-4.96-.764-7.372-.854-2.55-1.984-5.307-4.432-6.706-2.009-1.222-4.524-.932-6.643-.163-1.942.509-3.902 1.878-5.953 1.1-1.514.431-2.967-.362-4.439-.576-2.106-.438-4.34.285-6.356-.621l-.091.01c-2.272.188-4.494 1.232-6.79.718-2.943-.951-5.72-3.46-9-2.407-.28.148-.836.448-1.11.595a23.25 23.25 0 01-.63 3.934c-.103 1.43-1.947 1.44-2.613 2.513-2.808 4.656-10.227 2.244-12.81 7.133-1.104 4.478 1.246 8.95.819 13.483a52.313 52.313 0 00-6.93-.9c-.678-1.796-1.679-3.531-3.437-4.467.232.478.683 1.44.91 1.918-4.403-3.714-5.941-9.565-9.654-13.834-1.904-2.524-5.305-2.3-7.98-3.374.391-.646.788-1.287 1.197-1.923-.69-1.11-1.367-2.218-2.045-3.328.22-.127.678-.386.897-.519-.696-1.216-1.361-2.447-2.063-3.652a73.976 73.976 0 00-1.722-2.743c-1.404-2.132-2.925-4.187-4.158-6.421-2.015-3.877-2.973-8.192-4.823-12.14-.355-.3-.703-.595-1.057-.885-1.361-1.16-2.62-2.443-3.92-3.674-.885-4.05-1.105-8.293-2.82-12.114-1.79-4.488-3.743-8.92-6.118-13.127-.892-1.919-3.2-3.526-2.381-5.867 1.288-6.604 4.39-12.852 8.737-17.976.964.926 1.996 1.802 3.114 2.554-1.069-.85-2.076-1.775-3.078-2.701 2.443-3.028 6.564-3.267 9.696-5.185 5.025-4.116 7.815-10.537 13.487-13.926 4.873-2.208 9.99-3.857 14.83-6.136 4.598-3.526 8.994-7.342 13.58-10.898 3.84-2.188 8.102-3.572 11.936-5.785 5.196-3.165 10.361-6.391 15.368-9.85l.507-.357c1.666-1.21 3.34-2.427 4.988-3.664 3.37-2.68 6.612-5.53 9.696-8.542 5.165-5.363 9.67-11.392 13.004-18.063.526-1.048 1.05-2.09 1.564-3.149 1.972-4.243 3.779-8.558 5.745-12.796 1.74-4.04 4.274-7.647 6.472-11.433.946-1.475.464-3.302.348-4.93-.39-2.992-1.069-5.938-1.856-8.848-.08-.275-.226-.824-.3-1.1a76.055 76.055 0 01-.598-2.233 288.66 288.66 0 00-.885-2.412c-.739-2.03-1.472-4.085-2.613-5.938 1.52-5.052 3.498-10.048 4.011-15.34-.977 0-1.96-.005-2.93-.025-1.442 3.688-2.693 7.449-4.159 11.127-1.092-1.22-1.74-2.752-2.802-3.983-2.625-3.105-5.983-5.501-8.487-8.711-.824.412-1.526.997-1.862 1.872.39 1.333 1.19 2.473 1.99 3.593a66.696 66.696 0 01-1.758-1.277c-.354.111-1.044.33-1.392.442l.22.275c.458.366.55 1.425-.196 1.496 2.95 4.335 7.791 6.955 10.624 11.397-.714 2.01-1.508 4.004-2.564 5.861-.544.896-.983 2.117-2.217 2.112-1.746-2.493-3.278-5.5-6.221-6.752-1.001-.62-2.107-.198-3.06.27-.176.65-.64 1.333-.274 2.01 1.66 4.426 5.367 7.627 8.688 10.822.886.84 1.783 1.669 2.68 2.493.392.361.788.727 1.185 1.1.196.187.574.558.77.747.915.85 1.752 1.796 2.216 2.977.592.462.519 1.5-.366 1.495-1.551 4.193-4.067 7.932-6.704 11.51-3.73 5.021-7.712 9.865-10.868 15.288-3.15 5.058-6.35 10.38-11.247 13.942-2.845 1.297-5.83 2.274-8.737 3.45-4.903 1.97-9.989 3.567-14.598 6.18a.954.954 0 00-.373.106c-1.447.744-2.814 1.586-4.231 2.382-1.55.87-3.187 1.504-4.78 2.275a.888.888 0 00-.178.111c-.006-.004-.012-.004-.018-.009-2.106 1.064-4.298 2.01-6.16 3.48-1.472.962-2.803 2.346-4.629 2.575-5.293 1.074-10.709 1.287-16.063 1.944 1.917-5.017 7.021-7.932 11.808-9.693l.433.58.025-.01c.561-.29 1.184-.056 1.746.127.269-.117.806-.346 1.074-.463l-.653-.295c1.624-1.638 3.303-3.226 4.701-5.073.416-.35.776-1.343 1.46-.62l.042.015c3.945-5.475 7.303-11.432 9.397-17.864.94-3.195 1.752-6.589 1.093-9.922-.122.698-.25 1.39-.385 2.087-.403-1.995-1.026-3.934-2.106-5.669l.476-.31c-.897-.951-1.862-1.837-2.937-2.58l-.623.306c-2.075-.702-4.066-1.674-6.117-2.437l1.19-.28c-4.616-1.344-9.512-2.178-14.275-1.155l.061.081c.098.173.294.524.385.703-.543.208-.983.076-1.337-.408-3.389.79-6.57 2.575-9.268 4.758-4.561 4.528-8.267 10.018-10.203 16.19.757.239.763.509.025.808.598 1.044.836 2.326.354 3.465-1.319 3.353-4.317 5.628-5.996 8.767-1.447 2.666-2.576 5.49-3.95 8.197-1.68 3.348-4.073 6.645-7.657 8.095-1.929.488-3.962.005-5.922.249-1.691.58-3.205 2.315-5.141 1.628-6.069-1.69-12.12-3.454-18.207-5.103-6.63-1.394-13.261 2.06-19.898.504-8.004-2.01-15.997-4.04-23.995-6.065a8.21 8.21 0 01-2.119-.906c-4.7-2.767-9.457-5.439-14.146-8.222-1.307-.819-2.797-1.252-4.244-1.76-5.623-2.026-11.258-4.03-16.888-6.04-7.583-2.488-14.55-6.462-21.705-9.916-2.155-.9-3.383-3.048-5.33-4.239-2.07-.605-4.25-.732-6.399-.82-5.928-.121-11.912-.085-17.761 1.019-1.209.198-2.357.64-3.431 1.206-.05.819-.623 1.969.476 2.33 2.228.035 4.47.147 6.698-.005 2.405-.6 4.89-.58 7.35-.402-.042.117-.121.346-.164.458-.08.234-.232.692-.305.92-3.554 1.201-6.631 3.476-9.195 6.178.14 1.226.415 2.96 2.094 2.635 1.984-1.303 3.914-2.762 6.234-3.44-.776 1.023-1.655 1.96-2.54 2.896.305.712.66 1.414 1.062 2.086a80.487 80.487 0 004.524-1.537c-.067 1.339.171 2.661.904 3.796 4.353-.672 8.926.229 13.133-1.41a925.418 925.418 0 0012.462 8.6c9.604 5.988 19.232 11.94 28.83 17.935 1.124.698 2.394 1.148 3.676 1.444 1.294.3 2.625.446 3.95.557 1.331.112 2.668.187 4 .343.372.044.793.054 1.153.16 1.453.424 2.93.783 4.384 1.209.745.217 1.484.437 2.229.648a70.677 70.677 0 001.697.46c.287.072.55.193.836.266.3.078.611.128.916.205.544.137 1.057.355 1.576.55.262.097.525.19.8.261.262.072.543.095.805.169l1.148.322a2137.006 2137.006 0 019.146 2.603c1.527.436 3.047.873 4.573 1.31 1.527.436 3.047.872 4.573 1.306 1.527.434 3.053.867 4.58 1.298l.342.097c1.013.29 2.075.488 2.967 1.094-2.357 4.386 1.13 9.621-1.514 13.905-.483.6-1.075 1.115-1.869 1.2-.287 3.278-2.417 5.822-4.237 8.386.08 2.951-.568 5.84-1.813 8.517-2.1 4.513-4.482 9.179-8.377 12.415-1.588-.686-2.888-1.852-4.207-2.948a3.605 3.605 0 01-.55-.364c-6.398-6.06-10.36-14.15-16.68-20.27-9.384-6.875-18.75-13.79-28.214-20.566.104-.204.306-.61.41-.81-.611.138-1.478.112-1.802-.513-.427-.744-.836-1.496-1.264-2.229-.793.682-1.789.26-1.636-.814-.751-.148-2.045-.708-1.557-1.659l.092-.249c-.977-.778-2.033-1.868-3.291-.845.03-.916.055-1.826.08-2.737-1.771-.433-3.243-1.542-4.898-2.254-.354.895-.787 1.766-1.465 2.468-1.13-1.018-2.283-2-3.413-3.002-1.148 1.648-1.807 3.571-2.515 5.434-.14.66-.257 1.332-.41 2-.189.167-.58.503-.775.67-.513.49-.446 1.329-.702 1.95-.653-.56-1.3-1.125-1.984-1.634.494 1.837 1.24 3.618 2.38 5.155 3.682 5.103 9 8.649 13.33 13.142 1.074 1.221 2.368 2.508 2.295 4.274a39.81 39.81 0 002.35 2.788 6.943 6.943 0 00-2.643 1.567c-2.632-1.323-5.129-2.895-7.571-4.533-4.335-2.936-8.652-6.014-13.603-7.83-5.434-2.138-11.247-3.507-16.192-6.722-7.474-4.94-13.2-12.038-20.631-17.04-8.78-5.947-18.78-10.221-26.456-17.716-7.82-7.612-13.331-17.752-23.05-23.277-8.268-4.509-16.795-8.59-25.607-11.927-1.872-.575-3.735-1.496-5.704-1.557-.926.382-2.015.708-2.915.076l-.28-.137c-.956.804-2.07 1.526-2.605 2.707-1.216 2.345-2.417 4.701-3.633 7.042.814 3.088 3.15 5.444 5.566 7.392 6.345 5.104 13.844 8.432 20.708 12.74 3.328 1.909 4.645 6.01 8.162 7.684.798-.123 1.597-.234 2.401-.341.942.585 1.898 1.16 2.844 1.74 1.44-.275 2.86-.985 4.31-1.214.123.109.29.174.488.195a.802.802 0 00.28.166.77.77 0 00.346.164l-.03.017c6.329 2.672 9.708 8.996 13.853 14.074 7.92 9.01 15.893 17.976 23.83 26.966 6.191 6.91 14.465 11.418 22.628 15.58 8.51 4.304 17.321 8.324 24.788 14.383 7.54 6.36 12.035 15.376 18.677 22.555 2.815 3.063 5.898 5.872 8.939 8.721 3.12 2.809 6.215 5.638 9.213 8.573 6.033 5.72 10.6 12.751 16.595 18.506.11.106.324.325.428.437.427.417.867.84 1.3 1.267 1.643 1.308 3.26 2.656 5.013 3.816 1.435-.3 2.54.784 3.718 1.4 1.435.895 3.06 1.414 4.524 2.253.715 1.786.556 3.893-.232 5.642.03 1.812.208 3.618.3 5.43-.013-.003-.025-.007-.03-.01.011.044.017.089.023.133-.018.17.007.346.068.505.012.147.012.295 0 .442.024-.008.048-.02.067-.028.067.911.14 1.832.262 2.748.184 1.155.33 2.32.483 3.485.238 1.832.5 3.658.732 5.495l-.055-.015c.007.086.013.172.007.258.714 2.941 1.031 5.96 1.648 8.92.232 1.273.47 2.54.672 3.817.58 3.638-.019 7.316-.641 10.908.366.728.757 1.491.53 2.341-.457 3.165-.67 6.385-.305 9.575.14 1.516.813 3.18-.274 4.519.293 3.45 1.343 6.812 1.245 10.292-.042 3.084-.14 6.167-.08 9.25.007.153.013.458.02.61 0 .337-.007 1.008-.013 1.34.3 1.353.702 2.686 1.062 4.024.3 1.073.599 2.147.898 3.23.745 2.8 1.618 5.572 2.186 8.416.03.148.097.448.128.6 1.35 9.016-3.828 17.452-2.98 26.453.385 8.182 2.711 16.088 4.079 24.112.525 3.587.458 7.24-.012 10.827-.464 4.94-1.942 9.718-3.584 14.379-1.19 3.246.848 6.512.397 9.804-1.222 7.632-1.466 15.397-1.27 23.109.622 8.114.958 16.857 5.727 23.8.915.286 1.837.555 2.772.836-.825.812-1.661 1.618-2.437 2.485-.378.47-.732.952-1.074 1.46-1.178 1.965-2.052 4.133-2.345 6.41.635 3.047.55 6.276-.012 9.335.373 3.84 1.441 7.571 2.54 11.253 1.392 4.982 3.914 9.757 3.602 15.075 1.16 3.413-.085 6.978-.018 10.47.024 2.15.83 4.354-.03 6.448 1.672 9.885 4.628 19.544 5.592 29.551.067 3.822.116 7.62-.207 11.424-.416 1.77-1.002 3.51-1.16 5.342-.043.043-.086.08-.129.116.013.135.019.263.013.397.012.385-.043.77-.165 1.13v.036c-.006.269-.006.531-.006.8 0 .641-.006 1.276-.08 1.917a8.35 8.35 0 01-.494 2.046 5.547 5.547 0 01-.44 1.82c-1.972 5.451-4.408 11.453-2.485 17.278a12.589 12.589 0 002.62 2.784c2.124 1.24 4.548 1.856 6.978 2.125 1.642.207 3.303.207 4.952.055 2.222.08 4.28-.379 6.35-1.185a.865.865 0 00.293-.085l-.05.116c1.839-.763 3.658-1.612 5.184-2.9-.055-1.801.074-3.767-1.086-5.276-1.38-1.831-1.808-4.127-2.113-6.343-.794-6.039-1.294-12.15-.958-18.244 1.196-10.813 3.645-21.436 5.11-32.207-.531-1.416-.55-2.924-.25-4.384.976-6.062 1.031-12.223.854-18.34-.042-2.687-.812-5.398-.067-8.054-.775-5.66-2.51-11.155-4.664-16.436 3.254-2.858 5.665-7.125 10.11-8.267 3.06-1.032 6.173-1.942 9.159-3.169 4.36-2.04 8.694-4.146 13.047-6.197 13.298-5.88 24.136-15.838 36.323-23.568 12.443 9.806 19.171 24.764 30.82 35.321 5.917 5.275 12.835 9.25 19.6 13.31 6.563 4.946 13.023 10.044 19.543 15.05 2.772 2.327 6.008 4.177 8.335 7.004 3.712 4.42 5.531 10.16 9.769 14.189.738.824 1.465 1.673 2.191 2.522 2.29 2.747 4.732 5.373 7.022 8.12.586.678 1.184 1.343 1.795 2.021.012-.006.018-.006.03-.012.043.085.092.165.16.244.573.623 1.22 1.099 1.861 1.642.727.611 1.313 1.734 1.924 2.492 1.099 1.355 2.497 2.423 3.742 3.65.074.068.147.117.226.16.116.14.281.25.495.292 2.106 2.064 4.17 4.183 6.05 6.466a33.87 33.87 0 011.857 2.375c.476.666.94 1.356 1.398 2.058 2.564 3.987 4.145 8.566 4.701 13.273-3.395.971-6.698 2.803-8.768 5.728-.97 1.312-1.22 3.321-.006 4.573 2.064 2.002 4.983 2.637 7.614 3.578 6.441 1.941 13.151 3.235 19.904 3.113 3.59-.079 7.547-.451 10.38-2.894 1.703-1.44 2.045-3.785 1.874-5.885zM264.291 374.146c.494.906.855 1.89 1.056 2.924a10.04 10.04 0 01.94 3.835c.061-.016.116-.038.177-.053.22 3.505.928 6.96 1.686 10.39l.72-.143c.83 3.236 1.294 6.548 1.96 9.825.385 2.982.305 6.02.14 9.016-.189-.158-.574-.473-.763-.63-.134.716-.372 1.414-.586 2.116-3.15 5.077-9.464 6.324-14.318 9.174-9.384 5.48-17.217 13.313-23.897 21.812-1.288 1.8-2.717 3.523-4.384 4.988-.25.19-.75.55-.995.733-.22-7.138.775-14.44-1.026-21.43-1.972-6.21-4.408-12.459-4.713-19.017a15.552 15.552 0 01.03-5.724c.16-2.727.898-5.409 1.337-8.105-.94-.763-.409-1.969-.256-2.946 1.526-6.64 2.735-13.377 4.56-19.935l.721-.091c1.21-5.043 2.278-10.115 3.462-15.157.934-3.755 1.997-7.516 2.204-11.398.324-3.81-.592-7.555-1.086-11.31-1.27-8.95-2.546-17.905-4.317-26.768-.751-6.335-.214-12.888 1.496-19.02.299-2.034.629-4.08 1.282-6.033l.049.188c.598-4.381 2.332-8.564 3.169-12.914 1.086-5.749 2.387-11.457 3.376-17.227.91 2.076.94 4.416 1.423 6.609 1.703-1.114 1.471-3.704 2.76-5.22.61.269 1.147.692 1.703 1.073.183 1.552.372 3.104.55 4.66.445-.284.897-.57 1.355-.849-.348 2.107.989 4.045 3.01 4.615.006-1.216.006-2.427.08-3.638.94.804.53 2.172.787 3.241l1.08-1.11c.538 1.212.776 2.682 1.667 3.68 1.392.274 2.632.93 3.725 1.826.073-.885-.489-2.219.848-2.366-.702-1.537-1.245-3.144-1.337-4.834.476.061.757.331.843.82.824 2.32 1.203 4.793 2.204 7.052.153.091.47.269.635.361l.568-.3a5.034 5.034 0 00.855-2.371l.848.32c-.39-1.124-.781-2.249-1.166-3.368.287.122.855.36 1.142.483.226-.234.665-.697.885-.931.14.438.421 1.318.568 1.755.488-.513.794-1.267 1.496-1.531.287.178.855.534 1.148.712.134.57-.11 1.618.824 1.507.299-.163.891-.484 1.184-.641.025.727.05 1.46.08 2.198.922-.311 1.838-.046 2.71.29.068-.28.208-.835.275-1.11.654 1.155 1.032 2.508 2.021 3.465.067-1.674-.067-3.425.928-4.875 2.137 1.344 2.37 3.94 3.206 6.086.207.142.629.422.836.565.086-.194.257-.57.342-.764-.519-.447-.69-.992-.519-1.622.63-.143 1.276.584 1.398 1.175l.171-.112c4.085 5.78 8.365 11.422 12.505 17.167-9.049 14.841-17.163 30.477-21.858 47.287-1.71 11.525-3.065 23.1-4.64 34.645-.068.944-.208 1.87-.404 2.786.69 1.26 1.13 2.673 1.24 4.164z" fill-rule="nonzero"/></svg>
