<svg viewBox="0 0 433 566" xmlns="http://www.w3.org/2000/svg" fill-rule="evenodd" clip-rule="evenodd" stroke-linejoin="round" stroke-miterlimit="2"><path d="M431.343 12.696c-.785-1.072-1.747-1.602-2.952-1.57l-1.103-.423-2.542.948-2.542.948-5.225 6.406c-2.81 2.631-5.289 4.624-5.812 4.624-.59 0-1.425-2.15-1.85-4.773-1.007-6.345-2.612-9.096-5.295-9.096-1.117 0-1.93.69-2.796 2.625l-.647.884-1.605 2.196v3.575c-1.39 4.186-2.408 6.022-3.773 6.505l-.852-.268-.905.284c-.053-.012-.106-.023-.159-.037-3.433-.901-5.617.393-4.829 2.866.092.294.148.574.17.83.244.282.385.614.442.968.427.566.675 1.287.88 1.996.184.132.304.32.332.563.226 1.947.364 2.816.661 3.413.205 2.707.354 5.95.393 8.914l.12 9.18c-.078.36-.16.703-.244 1.02l-5.47 8.222-5.733 8.598-19.947 21.173c-22.64 24.016-30.187 32.799-33.988 39.548-1.456 2.6-3.005 4.715-3.447 4.715-.898 0-12.458 17.105-15.322 22.687-1.018 1.988-3.224 5.235-4.89 7.223l-3.04 3.606h-6.628a59.05 59.05 0 01-4.349-3.243c-.526-.426-1.053-.852-1.58-1.27-2.924-2.433-8.053-6.211-11.504-8.466l-6.356-4.172-7.06-1.444-7.074-1.445-5.063 2.635-5.073 2.646-13.65 3.34-13.646 3.329h-10.68l-7.594 2.438c-4.172 1.341-9.552 3.155-11.95 4.045-2.393.879-4.853 1.607-5.458 1.607h-.792l.24-.273c1.56-1.745 1.814-4.403 1.478-15.683-.219-7.466.05-13.58.605-13.58 1.294 0 2.598-7.905 2.878-17.335.219-7.246.413-7.72 5.674-13.29 2.99-3.179 6.286-7.154 7.304-8.842l1.619-2.648 2.842 3.672c.93 1.202 2.39 2.964 3.914 4.736 2.863 3.799 4.91 6.141 6.954 7.737l.735.806.75.225c1.354.829 2.789 1.42 4.532 1.964 7.753 2.427 11.705-.474 12.755-9.384.304-2.485.916-2.878 4.395-2.832 4.539.07 5.73-1.028 5.755-5.316.021-3.56 1.962-5.72 5.165-5.744 4.207-.023 5.109-1.572 5.384-9.246.174-4.842 1.217-9.65 2.96-13.59 1.48-3.352 2.693-7.42 2.693-9.027 0-3.686 3.352-14.354 5.226-16.653.784-.96 2.089-4.438 2.923-7.732.683-2.74.976-4.645.675-6.143l.004-1.373-1.577-1.318c-.488-.449-1.092-.881-1.82-1.322a51.244 51.244 0 00-3.592-2.145l-1.768-.944a16.104 16.104 0 01-3.217-3.574l-1.107-1.977-2.577-4.611-5.883-1.896c-3.234-1.04-7.12-2.693-8.633-3.664-1.523-.97-7.558-3.628-13.427-5.905L214.105.002h-7.777l-1.966 2.172-1.962 2.173-4.475.717-4.473.716-6.398 5.836-6.392 5.848-.767 2.543c-.418 1.387-1.92 3.837-3.33 5.42l-2.567 2.89-1.457 10.979-1.456 10.979-1.347 2.89-1.096 2.352c-.294.22-.612.412-.955.58l-9.11.557-9.814.59-12.098 6.194-12.098 6.183-18.777 18.792-.523 1c-7.316 7.837-14.608 16.028-17.352 19.772-1.607 2.208-3.572 4.53-4.357 5.166-2.08 1.676-11.558 13.268-14.17 17.336-2.796 4.357-3.57 5.744-10.193 18.433a252.305 252.305 0 01-3.186 5.916 215.479 215.479 0 00-3.006 4.817l-.195.322c-2.894 2.137-5.91 7.775-5.91 11.043 0 2.103-.508 4.137-1.132 4.518-1.71 1.063-8.98 14.481-10.99 20.306-3.064 8.841-9.847 23.276-11.489 24.42-.25.176-.707.291-1.274.347l-1.429-.363-2.825-.705-.959.957a2 2 0 00-.617.617l-.149.148-1.723 1.722-.81 7.559-.586 5.477-.052.317c-.117.722-.44 1.687-.904 2.775l-1.964 2.71c-1.483 2.046-3.994 5.802-5.579 8.344l-2.882 4.623-.769 7.512-.767 7.512 2.365 11.153L4.73 293.32l3.538 6.76a70.243 70.243 0 002.395 4.175c1.583 2.75 3.336 5.277 5.24 7.502 2.025 2.362 2.95 3.474 3.058 4.5l-3.991 7.296-4.313 7.893v17.509l1.282 2.873c.443 1.348 1.04 2.698 1.837 4.275.135.265.278.533.426.799l1.9 4.256 2.22 1.966c.59.523 1.793 1.3 3.268 2.135 4.851 3.78 10.795 6.236 16.063 6.236 4.784 0 19.184 2.521 26.581 4.656 2.22.637 8.39 1.62 13.695 2.185 4.559.477 8.73 1.21 10.16 1.754v1.467c0 1.262-.516 3.26-1.146 4.44l-.455.849c-.471.54-.984 1.043-1.515 1.47l-2.692.59-3.516.764-1.682 2.578-1.683 2.566-1.187 6.265-1.08 5.684c-.1.294-.205.59-.314.884l-2.437 3.762c-1.453 2.241-3.602 6.667-4.773 9.846-1.172 3.178-4.084 9.697-6.472 14.494-2.388 4.784-4.937 10.92-5.665 13.625l-1.323 4.911-3.486 5.918c-5.265 8.923-11.425 21.473-11.425 23.266v.085a70.567 70.567 0 01-2.64 4.546l-5.45 6.3-8.09 9.35v1.525c0 .095-.015.212-.04.346a11.114 11.114 0 00-.488 1.612 33.424 33.424 0 01-1.784 3.889l-2.311 4.313v1.34c-.223.534-.222 1.004 0 1.598v2.39l1.294 1.294 1.293 1.294-1.431 5.964-1.432 5.974.784 6.933c.432 3.815 1.377 8.23 2.1 9.814l1.315 2.888 3.82 1.948c1.472 1.128 2.864 1.878 4.463 2.277l.415.212h.636c3.043.453 6.95-.18 13.381-1.729 4.357-1.05 7.385-1.962 9.417-2.874l.25-.063.111-.106c1.358-.647 2.224-1.301 2.716-2.005 1.583-2.266 2.149-2.347 7.789-1.167 1.028.216 2.113.364 3.24.456l2.609.672 3.207-.668c9.642-.679 20.541-4.458 26.088-8.87l2.434-1.167 1.26-2.76 1.259-2.762-1.441-1.732-1.443-1.747-4.217-.693c-6.072-1.007-10.41-2.845-14.194-6.02l-3.314-2.797v-1.852c.833-2.125 4.219-5.858 12.503-14.07 4.722-4.681 7.824-7.828 9.987-10.324l.717-.707.2-.378c2.683-3.277 3.677-5.504 4.883-9.153 1.33-4.009 3.606-9.637 5.062-12.49 1.468-2.867 3.444-7.803 4.403-10.98.947-3.179 4.125-10.783 7.038-16.896 2.924-6.116 5.317-12.32 5.317-13.788 0-.77.004-1.315.092-1.622l.654.265c.428.184 4.526 4.483 9.11 9.57l5.41 5.996c1.64 2.177 3.114 4.274 4.267 6.088l2.468 5.25 3.807 8.092 10.613 10.814 9.567 9.736c.473.541.901 1.05 1.293 1.545l1.39 2.694c1.994 3.847 12.161 34.682 12.165 36.877 0 .866 1.018 3.468 2.266 5.78 3.143 5.837 5.823 12.794 5.823 15.092v1.846c-.018.035-.036.07-.057.106l-4.797 1.746-4.204 1.535c-1.117.039-1.608 1.202-1.767 4.419l-.693 2.577.572 1.81-.067 2.747h29.16l5.048-5.271a32.73 32.73 0 002.354-2.754l2.2-1.93.632-2.528c.272-.573.463-1.089.548-1.503l.325-1.615 3.974 4.327 4.055 4.405 2.245 6.356h.923v.011l3.45-.004c6.088.502 21.017.506 57.64.506 26.373 0 45.014-.18 54.542-.513h5.717v-.307c1.04-.096 1.57-.198 1.57-.311 0-.417-.633-.927-1.57-1.344v-.152l-11.267-3.733c-5.501-1.817-11.755-4.143-14.866-5.522a87.212 87.212 0 01-3.871-2.097c-5.339-3.351-12.604-9.372-16.224-13.6l-2.8-3.27a9.072 9.072 0 01-.17-.467l-.82-3.775-.901-4.137-15.464-15.605h-2.223c-1.064-.703-2.34-1.665-3.794-2.86l-6.003-5.518c-5.016-4.61-12.285-12.087-16.145-16.62l-7.029-8.237-12.48-9.535c-6.642-5.07-13.642-10.765-15.912-12.925-.562-.898-1.562-1.866-2.647-2.556-1.234-1.16-2.34-2.156-2.903-2.605l-.947-.753c-.403-.753-.753-1.662-1.086-2.782l-.392-2.454-.743-4.645-3.178-2.231-3.178-2.23-4.33-.796-2.585-.47c-.746-.414-1.326-.88-1.771-1.432-.124-.47-.764-1.68-1.69-3.221a31.381 31.381 0 00-1.7-2.694 63.487 63.487 0 00-.633-.954l-2.68-3.981c-.598-1.34-.951-2.712-.951-3.854a7.13 7.13 0 00-.417-2.393v-1.552l-4.621-5.257-1.838-2.086c-2.818-3.91-3.221-6.947-.58-6.947 1.654 0 15.36 8.588 16.7 10.458.658.915 2.334 2.054 4.296 3.075l1.114.944 2.223.559c1.782.686 3.475 1.138 4.607 1.145 3.701 0 5.95-1.845 8.067-6.73l.658-.892-.01-.721c.908-2.453.93-4.002-.107-7.69l-.032-2.417-5.942-12.968-2.44-1.584c-.286-.265-.54-.435-.756-.491l-2.998-1.948c-3.408-2.217-9.093-5.65-12.632-7.626-7.032-3.93-9.15-5.836-11.415-10.998-.28-.898-.711-1.973-1.206-2.959l-1.106-2.782c-.386-2.345 1.849-3.064 8.41-3.54 6.706-.485 6.957-.612 6.957-3.686a7.05 7.05 0 00-.43-2.42l.155-1.34-2.429-1.7-2.114-1.481c.877-1.206 2.266-2.784 3.952-4.374 2.083-1.973 2.468-3.416.98-5.202-.52-.881-1.552-1.865-3.13-3.25-7.243-6.407-12.716-14.571-15.696-23.316a44.956 44.956 0 01-1.478-16.991c.856-8.194 4.395-17.035 7.792-19.497 1.177-.866 1.87-2.3 1.538-3.178-.346-.89.474-4.472 1.814-7.963 2.114-5.547 2.945-6.495 6.597-7.512 2.301-.635 7.13-1.156 10.736-1.167 3.606 0 9.58-.763 13.293-1.699 3.78-.959 10.019-1.525 14.247-1.294 1.665.05 3.281.03 4.858-.035l1.085.007.099-.064c7.675-.418 14.548-1.727 22.106-.61l4.907 1.599 7.18 2.342a49.13 49.13 0 012.228 1.21c.02.01.039.022.06.032l1.326 1.2c.629.57 1.17 1.112 1.643 1.676.845 1.25 1.63 2.812 2.309 4.604.59 2.088 1.036 4.886 1.548 9.01l1.17 9.292 2.253 7.2c1.248 3.965 2.266 8.657 2.276 10.436.011 1.769.856 6.588 1.895 10.702l1.874 7.49 7.406 12.4c4.07 6.818 7.697 13.58 8.068 15.012l.668 2.624-1.28 1.549-1.297 1.548.672 3.352.671 3.34-6.84 9.431-4.059 1.93-4.07 1.931h-11.383l-2.796 2.98-2.807 2.98 3.87 3.458 3.861 3.454 7.12-.703 7.107-.693 1.594 1.06 1.594 1.078.775 17.171.774 17.175 1.884 3.55c1.04 1.95 2.765 4.274 3.815 5.14l1.92 1.598 2.114-2.8 2.103-2.797 3.928 9.825 2.093 1.12 2.093 1.121 1.813-1.813 1.814-1.814v-5.42l-1.365-.463-1.361-.452.265-6.424-3.316-7.813v-3.539h2.104l2.39 4.914c1.308 2.705 3.987 6.866 5.963 9.245l3.582 4.334h2.22c1.227 0 2.23-.219 2.23-.484 0-.269.312-1.297.694-2.29l.693-1.814-2.832-1.075-2.828-1.085-.683-6.162c-.371-3.384-1.029-7.845-1.467-9.913l-.799-3.759h1.849c2.241 0 11.154 4.533 11.154 5.675 0 .452 1.04 1.94 2.323 3.316l2.322 2.485 1.722-.657 1.722-.658v-3.977l-2.67-2.507-2.658-2.51-2.761-3.164-4.451-6.565-4.462-6.565-.693-8.898-.692-8.913-1.376-4.044-1.385-4.045-2.14-2.068c-1.18-1.133-2.138-2.554-2.138-3.144v-1.074l.23-2.96-1.199-4.622a506.596 506.596 0 01-2.429-9.823l-1.237-5.201.22-6.356c.042-1.179.056-2.372.045-3.475.637-.53 1.312-1.104 2.036-1.734l-.728-4.541 4.165.143 5.37.377c4.606.329 7.014.481 8.934.105l.194.006.11-.072c1.838-.427 3.298-1.382 6.006-3.206 2.061-1.389 3.535-2.594 4.65-3.87l.791-.526.311-.939c.633-.988 1.117-2.062 1.527-3.321.88-2.647 2.74-6.09 4.126-7.64 4.207-4.68 8.552-13.798 9.28-19.484.693-5.41 4.737-13.719 6.668-13.719.569 0 1.043-1.502 1.043-3.34 0-2.634-.637-3.5-2.991-4.09l-.014-.017h-.05c-2.213-.574-2.733-1.234-2.1-2.711 2.079-4.958 1.998-7.316-.3-7.917a3.967 3.967 0 01-.676-.234c-.512-.964-.922-2.053-1.113-2.931a4.21 4.21 0 00-.124-1.936l-.007-1.028-2.807-2.898c-.81-1.167-1.375-2.6-1.375-3.663 0-1.907-.499-2.484-1.736-2.01-1.188.45-1.732-.07-1.732-1.665 0-1.819-.52-2.208-4.313-2.11l-.032-.032-.403.045c-.407.013-.845.03-1.319.052-5.48.254-6.692-.174-12.427-4.38-1.951-1.431-4.655-3.663-7.31-6.003l-.605-.578-9.57-9.161-2.46-2.45.703-6.055c.417-3.56 2.52-9.592 5.108-14.666 4.681-9.165 14.16-25.576 15.336-26.547 2.67-2.195 17.603-25.263 22.075-34.093 1.94-3.814 4.762-8.24 6.275-9.823 1.517-1.595 6.357-7.72 10.75-13.626 4.392-5.917 10.306-12.551 13.138-14.758 6.555-5.109 7.559-7.455 9.096-21.104 1.782-15.89 1.676-15.555 7.085-22.236 8.616-10.625 11.826-14.818 12.186-17.565l.018-.029-.01-.022c.162-1.362-.382-2.372-1.32-3.648z" fill-rule="nonzero"/></svg>
