<svg viewBox="0 0 259 709" xmlns="http://www.w3.org/2000/svg" fill-rule="evenodd" clip-rule="evenodd" stroke-linejoin="round" stroke-miterlimit="2"><path d="M125.423 194.086c-.906 2.11-1.484 11.21-2.536 13.08-1.889 3.36-3.877 7.373-7.434 8.857-23.565 9.83-22.608 4.061-40.161 11-10.484 4.145-19.885 9.244-23.649 14.114-1.654 2.14-1.141 19.636-10.685 18.74-12.852-1.205-11.894-5.568-18.156-7.501-9.671-2.986-6.664 6.109-9.208 9.548-3.715 5.023-6.274-.142-11.006 9.617-3.351 6.91-3.425 14.883-.366 21.962 2.65 6.133 5.569 12.195 11.738 13.263 14.149 2.45 15.545-1.655 21.353-2.7 2.572-.463 4.529 3.523 7.128 3.261 1.5-.15.696-3.119 1.791-4.156.728-.689 2.073.053 2.984-.364.96-.44 1.346-1.885 2.383-2.091.71-.141 1.13 1.618 1.763 1.268 1.102-.611.838-2.565 1.872-3.284 3.327-2.312 4.236-2.197 3.739-6.294-.384-3.168-3.453-6.14-2.598-9.216 1.038-3.73 6.048-9.226 9.25-7.049 14.371 9.768 23.78 24.208 34.312 36.156 7.627 8.652 19.321 16.636 29.293 27.797 4.024 4.502-3.373 12.04-1.936 13.99 2.586 3.509 3.17 4.094 2.04 9.037-3.214 14.077 2.866 32.44 3.085 46.878.222 14.65-7.06 18.15-11.032 33.742-1.024 4.02 1.354 8.411.368 12.441-.626 2.558-4.215 3.643-4.922 6.179-1.337 4.791.73 7.797-.715 12.557-1.4 4.614-.489 28.84 1.397 41.907.345 2.387 3.792 3.67 3.903 6.08.118 2.54-2.344 4.481-2.677 7.003-.358 2.706 1.961 3.676 1.757 6.398-.54 7.192-5.183 13.948-4.617 21.138.399 5.066 3.12 4.799.727 10.078-4.933 10.881-12.757 20.659-15.628 32.257-2.738 11.065.054 22.822-.815 34.188-.699 9.124-1.744 18.278-3.882 27.176-.33 1.373-2.487 1.505-3.29 2.667-1.648 2.385-3.396 2.22-4.671 9.852-.596 3.567-3.588 5.48-4.421 9-3.225 13.623 14.393 11.696 20.396 17.929 5.232 5.433 14.77 9.075 31.743 8.219 3.972-.203 8.645-.341 11.531-3.076 2.264-2.147 2.13-5.941.636-9.49-1.56-3.708-10.114-5.973-14.964-9.932-6.47-5.28-11.24-8.598-8.774-13.987 1.018-2.223-2.816-2.831-4.219-4.834-.993-1.416.122-3.579-.593-5.155-.526-1.163-4.415-5.7-2.161-11.47 8.729-22.35 14.681-45.687 21.75-68.616 2.815-9.13 6.69-8.84 8.335-14.023.38-1.195-1.117-3.9.128-3.756 9.513 1.11 3.205 5.777 2.76 7.736-.654 2.881-.8 7.882-1.276 10.797-.903 5.543-3.253 13.893-3.414 19.507-.454 15.852 6.146 33.477 2.238 49.804-1.229 5.135-3.525 4.142-4.688 6.166-2.861 4.978-1.661 7.941-3.3 12.253-1.197 3.152-1.606 2.23-2.412 4.509-.972 2.754.321 7.32 3.109 8.192 8.712 2.722 19.905-1.163 28.644-1.425 10.813-.323 16.951 3.625 33.731.777 5.892-1 9.428-5.45 7.27-10.072-3.466-7.421-9.812-4.548-16.39-7.358-6.218-2.656-12.718-5.43-17.57-10.14-3.767-3.656 3.107-4.237-.239-8.306-.826-1.004-2.464-.28-2.722 2.064-.318 2.88-2.797.554-4.403-4.304-.703-2.13-.506-4.514-.137-6.726 1.71-10.22 3.568-18.686 4.941-28.957.944-7.06 1.647-15.84 2.794-22.87 1.647-10.1 3.738-18.71 6.788-28.477.49-1.567 2.403-.233 2.621-2.162.584-5.157.234-9.124.56-14.304.226-3.57 1.254-7.055 1.526-10.622.363-4.73.039-9.493.377-14.224 1.231-17.223 3.135-17.188.288-34.6-1.072-6.554-4.103-12.57-4.072-19.21.009-1.958 4.446.798 4.515-3.01.277-15.514 1.55-29.086 1.788-44.701.358-23.647 1.657-35.541-3.537-46.86-.962-2.096-.009-7.387-.514-9.638-1.482-6.599-5.33-9.798-3.743-16.372 1.558-6.454 9.443-7.66 12.432-13.59.897-1.78-1.693-2.356-.649-3.711 6.72-8.722 10.823-17.688 17.167-26.685 22.2-31.482 21.385-43.446 30.086-62.014.833-1.78 2.625-1.672 3.655-3.346.687-1.117-.969-3.083.03-3.93 6.127-5.2 9.086-1.904 12.92-8.937 7.32-13.43-7.954-39.084-15.061-54.302-5.421-11.604-11.257-23.027-16.176-34.852-.725-1.745.282-3.994-.662-5.631-4.932-8.56-13.702-15.075-16.693-24.491-1.61-5.068 5.42-16.056 6.886-21.167 4.4-15.33 9.787-24.7 17.87-36.59 6.046-8.895 9.812-16.018 15.07-25.4 3.112-5.553 6.919-9.304 8.09-12.533.826-2.275-3.2-5.307-5.563-4.667-17.906 4.847-12.6 8.274-23.467 17.478-4.115 3.485-8.45.105-15.97 5.668-4.725 3.496 4.559 8.135.679 18.117-8.405 21.625-14.158 16.188-24.305 37.2-7.051 14.6-6.263 32.072-12.692 46.957-3.388 7.842-9.892 11.603-14.42 22.652-5.807 14.167-8.425 18.474-15.587 24.253-3.525 2.844-8.649 3.58-11.675 6.95-3.708 4.13-5.596 9.618-7.784 14.719zm3.986 130.7c1.929 3.144 3.99 6.561 7.174 8.424.53.31 3.543-1.906 2.987-2.348-3.086-2.459-6.502-4.597-10.161-6.075zm98.885-94.514c-3.425-1.233-21.816 1.182-33.177.755-13.598-.51-22.566-2.943-30.57-2.868-2.089.02-3.048 6.216-10.888 13.01-7.843 6.798-39.534 23.493-39.84 23.696-1.392.92-3.48 6.04-4.583 7.29-2.737 3.101-6.131 3.415-6.786 5.587-1.24 4.106 9.04 11.766 15.6 14.453 1.652.676 1.979-2.62 2.163-3.953.229-1.654-1.806-3.117-.986-4.571 2.674-4.747 7.089-8.58 12.653-12 4.84-2.974 10.958-7.271 18.282-6.914 1.569.077 1.954 1.65 5.167 2.122 1.344.197-2.505 4.265-.725 7.023 1.969 3.051 6.297 3.61 9.526 7.326.846.973 1.27 4.49 2.2 5.381 2.901 2.78 7.077 3.168 9.715 6.199.874 1.003-2.316 2.005-2.725 3.271-.687 2.124.326 1.327 1.481 3.338.592 1.03-2.231 1.709-.445 2.887 1.188.782.903 3.207 1.476 2.674 11.95-11.115 10.472-10.942 18.103-25.498 2.591-4.94 7.23-9.972 10.759-14.343 12.01-14.873 27.594-33.428 23.6-34.865zm-37.926-44.889c4.368 1.624 19.55 6.107 31.093 6.849 4.244.272-2.654-5.518-3.31-12.513-1.178-12.53-.532-22.238-5.397-33.845-1.38-3.291-9.05-7.01-10.62-4.242-3.719 6.563-2.34 8.525-4.652 18.209-2.036 8.528-8.768 24.927-7.114 25.542z"/></svg>
